SansGuiltMB.ufo
<glyph name="uni0021" format="1">
  <advance width="229"/>
  <unicode hex="0021"/>
  <outline>
    <contour>
      <point x="84" y="269" type="curve" smooth="yes"/>
      <point x="96" y="194"/>
      <point x="109" y="158"/>
      <point x="120" y="168" type="curve" smooth="yes"/>
      <point x="138" y="184"/>
      <point x="166" y="393"/>
      <point x="161" y="479" type="curve" smooth="no"/>
      <point x="158" y="555"/>
      <point x="136" y="594"/>
      <point x="104" y="580" type="curve" smooth="yes"/>
      <point x="65" y="563"/>
      <point x="57" y="443"/>
    </contour>
    <contour>
      <point x="97" y="-4" type="curve" smooth="yes"/>
      <point x="123" y="-11"/>
      <point x="149" y="-1"/>
      <point x="160" y="19" type="curve" smooth="yes"/>
      <point x="181" y="59"/>
      <point x="145" y="105"/>
      <point x="102" y="95" type="curve" smooth="yes"/>
      <point x="52" y="83"/>
      <point x="49" y="10"/>
    </contour>
  </outline>
</glyph>
<glyph name="uni0022" format="1">
  <advance width="299"/>
  <unicode hex="0022"/>
  <outline>
    <contour>
      <point x="48" y="444" type="curve" smooth="yes"/>
      <point x="57" y="390" type="line" smooth="no"/>
      <point x="82" y="390" type="line" smooth="no"/>
      <point x="106" y="390" type="line" smooth="no"/>
      <point x="116" y="451" type="line" smooth="no"/>
      <point x="124" y="509"/>
      <point x="125" y="514"/>
      <point x="125" y="559" type="curve" smooth="yes"/>
      <point x="125" y="605" type="line" smooth="no"/>
      <point x="82" y="605" type="line" smooth="no"/>
      <point x="39" y="605" type="line" smooth="no"/>
      <point x="39" y="552" type="line" smooth="yes"/>
      <point x="39" y="500"/>
      <point x="39" y="498"/>
    </contour>
    <contour>
      <point x="185" y="446" type="curve" smooth="yes"/>
      <point x="194" y="390" type="line" smooth="no"/>
      <point x="218" y="390" type="line" smooth="no"/>
      <point x="242" y="391" type="line" smooth="no"/>
      <point x="252" y="448" type="line" smooth="yes"/>
      <point x="261" y="503"/>
      <point x="261" y="507"/>
      <point x="261" y="555" type="curve" smooth="yes"/>
      <point x="261" y="605" type="line" smooth="no"/>
      <point x="218" y="605" type="line" smooth="no"/>
      <point x="175" y="605" type="line" smooth="no"/>
      <point x="175" y="554" type="line" smooth="yes"/>
      <point x="175" y="504"/>
      <point x="175" y="502"/>
    </contour>
  </outline>
</glyph>
<glyph name="uni0023" format="1">
  <advance width="496"/>
  <unicode hex="0023"/>
  <outline>
    <contour>
      <point x="154" y="493" type="curve" smooth="yes"/>
      <point x="137" y="412" type="line" smooth="no"/>
      <point x="69" y="412" type="line" smooth="no"/>
      <point x="2" y="412" type="line" smooth="no"/>
      <point x="2" y="385" type="line" smooth="no"/>
      <point x="2" y="359" type="line" smooth="no"/>
      <point x="64" y="358" type="line" smooth="no"/>
      <point x="126" y="358" type="line" smooth="no"/>
      <point x="111" y="283" type="line" smooth="no"/>
      <point x="95" y="208" type="line" smooth="no"/>
      <point x="48" y="208" type="line" smooth="no"/>
      <point x="2" y="207" type="line" smooth="no"/>
      <point x="2" y="181" type="line" smooth="no"/>
      <point x="2" y="154" type="line" smooth="no"/>
      <point x="42" y="154" type="line" smooth="no"/>
      <point x="83" y="154" type="line" smooth="no"/>
      <point x="83" y="153"/>
      <point x="76" y="117"/>
      <point x="67" y="74" type="curve" smooth="yes"/>
      <point x="57" y="31"/>
      <point x="50" y="-6"/>
      <point x="50" y="-7" type="curve" smooth="yes"/>
      <point x="50" y="-10"/>
      <point x="54" y="-11"/>
      <point x="76" y="-11" type="curve" smooth="yes"/>
      <point x="102" y="-11" type="line" smooth="no"/>
      <point x="119" y="72" type="line" smooth="no"/>
      <point x="137" y="154" type="line" smooth="no"/>
      <point x="222" y="154" type="line" smooth="yes"/>
      <point x="289" y="154"/>
      <point x="307" y="154"/>
      <point x="307" y="152" type="curve" smooth="yes"/>
      <point x="307" y="150"/>
      <point x="300" y="114"/>
      <point x="291" y="72" type="curve" smooth="yes"/>
      <point x="282" y="30"/>
      <point x="274" y="-6"/>
      <point x="274" y="-7" type="curve" smooth="yes"/>
      <point x="274" y="-10"/>
      <point x="279" y="-11"/>
      <point x="300" y="-11" type="curve" smooth="yes"/>
      <point x="326" y="-11" type="line" smooth="no"/>
      <point x="341" y="63" type="line" smooth="yes"/>
      <point x="350" y="103"/>
      <point x="358" y="140"/>
      <point x="359" y="145" type="curve" smooth="yes"/>
      <point x="361" y="154" type="line" smooth="no"/>
      <point x="428" y="154" type="line" smooth="no"/>
      <point x="494" y="154" type="line" smooth="no"/>
      <point x="494" y="181" type="line" smooth="no"/>
      <point x="494" y="207" type="line" smooth="no"/>
      <point x="433" y="207" type="line" smooth="yes"/>
      <point x="371" y="207"/>
      <point x="371" y="207"/>
      <point x="372" y="212" type="curve" smooth="yes"/>
      <point x="373" y="216"/>
      <point x="391" y="304"/>
      <point x="400" y="347" type="curve" smooth="no"/>
      <point x="402" y="359" type="line" smooth="no"/>
      <point x="448" y="359" type="line" smooth="no"/>
      <point x="494" y="359" type="line" smooth="no"/>
      <point x="494" y="385" type="line" smooth="no"/>
      <point x="494" y="412" type="line" smooth="no"/>
      <point x="454" y="412" type="line" smooth="yes"/>
      <point x="413" y="412"/>
      <point x="413" y="412"/>
      <point x="414" y="417" type="curve" smooth="yes"/>
      <point x="414" y="419"/>
      <point x="422" y="455"/>
      <point x="431" y="495" type="curve" smooth="no"/>
      <point x="439" y="536"/>
      <point x="447" y="571"/>
      <point x="447" y="573" type="curve" smooth="yes"/>
      <point x="449" y="577"/>
      <point x="447" y="577"/>
      <point x="422" y="576" type="curve" smooth="no"/>
      <point x="395" y="576" type="line" smooth="no"/>
      <point x="378" y="494" type="line" smooth="yes"/>
      <point x="368" y="450"/>
      <point x="360" y="413"/>
      <point x="360" y="412" type="curve" smooth="yes"/>
      <point x="360" y="410"/>
      <point x="191" y="412"/>
      <point x="191" y="415" type="curve" smooth="yes"/>
      <point x="191" y="417"/>
      <point x="198" y="452"/>
      <point x="207" y="495" type="curve" smooth="yes"/>
      <point x="216" y="537"/>
      <point x="224" y="573"/>
      <point x="224" y="574" type="curve" smooth="yes"/>
      <point x="224" y="577"/>
      <point x="174" y="578"/>
      <point x="173" y="575" type="curve" smooth="yes"/>
      <point x="172" y="574"/>
      <point x="164" y="537"/>
    </contour>
    <contour>
      <point x="334" y="281" type="curve" smooth="yes"/>
      <point x="319" y="208" type="line" smooth="no"/>
      <point x="233" y="208" type="line" smooth="no"/>
      <point x="164" y="207"/>
      <point x="147" y="208"/>
      <point x="147" y="210" type="curve" smooth="no"/>
      <point x="148" y="211"/>
      <point x="155" y="246"/>
      <point x="164" y="286" type="curve" smooth="yes"/>
      <point x="179" y="359" type="line" smooth="no"/>
      <point x="264" y="359" type="line" smooth="yes"/>
      <point x="331" y="359"/>
      <point x="349" y="358"/>
      <point x="349" y="356" type="curve" smooth="yes"/>
      <point x="349" y="355"/>
      <point x="342" y="321"/>
    </contour>
  </outline>
</glyph>
<glyph name="uni0024" format="1">
  <advance width="458"/>
  <unicode hex="0024"/>
  <outline>
    <contour>
      <point x="201" y="554" type="line" smooth="no"/>
      <point x="184" y="550" type="line" smooth="no"/>
      <point x="25" y="517"/>
      <point x="-6" y="343"/>
      <point x="135" y="276" type="curve" smooth="yes"/>
      <point x="142" y="273"/>
      <point x="159" y="265"/>
      <point x="174" y="260" type="curve" smooth="no"/>
      <point x="200" y="249" type="line" smooth="no"/>
      <point x="200" y="160" type="line" smooth="no"/>
      <point x="201" y="102"/>
      <point x="200" y="71"/>
      <point x="199" y="71" type="curve" smooth="yes"/>
      <point x="194" y="71"/>
      <point x="153" y="85"/>
      <point x="138" y="92" type="curve" smooth="yes"/>
      <point x="119" y="100"/>
      <point x="90" y="120"/>
      <point x="64" y="141" type="curve" smooth="yes"/>
      <point x="44" y="157" type="line" smooth="yes"/>
      <point x="43" y="157"/>
      <point x="43" y="133"/>
      <point x="43" y="103" type="curve" smooth="yes"/>
      <point x="44" y="50" type="line" smooth="no"/>
      <point x="66" y="39" type="line" smooth="no"/>
      <point x="104" y="18"/>
      <point x="150" y="2"/>
      <point x="195" y="-7" type="curve" smooth="yes"/>
      <point x="201" y="-8"/>
      <point x="201" y="-8"/>
      <point x="201" y="-54" type="curve" smooth="yes"/>
      <point x="201" y="-99" type="line" smooth="no"/>
      <point x="237" y="-99" type="line" smooth="no"/>
      <point x="274" y="-99" type="line" smooth="no"/>
      <point x="274" y="-53" type="line" smooth="no"/>
      <point x="275" y="-8" type="line" smooth="no"/>
      <point x="292" y="-4" type="line" smooth="no"/>
      <point x="348" y="8"/>
      <point x="386" y="35"/>
      <point x="407" y="79" type="curve" smooth="no"/>
      <point x="455" y="173"/>
      <point x="404" y="268"/>
      <point x="287" y="308" type="curve" smooth="yes"/>
      <point x="275" y="312" type="line" smooth="no"/>
      <point x="274" y="394" type="line" smooth="yes"/>
      <point x="274" y="439"/>
      <point x="274" y="476"/>
      <point x="275" y="476" type="curve" smooth="yes"/>
      <point x="295" y="476"/>
      <point x="360" y="441"/>
      <point x="387" y="416" type="curve" smooth="yes"/>
      <point x="392" y="411"/>
      <point x="397" y="407"/>
      <point x="398" y="407" type="curve" smooth="yes"/>
      <point x="398" y="407"/>
      <point x="399" y="429"/>
      <point x="399" y="456" type="curve" smooth="yes"/>
      <point x="399" y="504" type="line" smooth="no"/>
      <point x="388" y="512" type="line" smooth="yes"/>
      <point x="368" y="527"/>
      <point x="315" y="547"/>
      <point x="284" y="552" type="curve" smooth="yes"/>
      <point x="274" y="553"/>
      <point x="274" y="553"/>
      <point x="274" y="568" type="curve" smooth="yes"/>
      <point x="274" y="583" type="line" smooth="no"/>
      <point x="237" y="583" type="line" smooth="no"/>
      <point x="201" y="583" type="line" smooth="no"/>
      <point x="201" y="569" type="line" smooth="no"/>
    </contour>
    <contour>
      <point x="199" y="337" type="curve" smooth="yes"/>
      <point x="193" y="337"/>
      <point x="155" y="359"/>
      <point x="146" y="368" type="curve" smooth="yes"/>
      <point x="113" y="400"/>
      <point x="128" y="450"/>
      <point x="178" y="470" type="curve" smooth="yes"/>
      <point x="203" y="480"/>
      <point x="201" y="486"/>
      <point x="201" y="406" type="curve" smooth="yes"/>
      <point x="201" y="368"/>
      <point x="200" y="337"/>
    </contour>
    <contour>
      <point x="340" y="142" type="curve" smooth="no"/>
      <point x="340" y="112"/>
      <point x="321" y="90"/>
      <point x="283" y="75" type="curve" smooth="no"/>
      <point x="274" y="71" type="line" smooth="no"/>
      <point x="274" y="145" type="line" smooth="yes"/>
      <point x="274" y="185"/>
      <point x="274" y="218"/>
      <point x="275" y="218" type="curve" smooth="yes"/>
      <point x="276" y="218"/>
      <point x="285" y="214"/>
      <point x="294" y="208" type="curve" smooth="yes"/>
      <point x="330" y="185"/>
      <point x="341" y="171"/>
    </contour>
  </outline>
</glyph>
<glyph name="uni0025" format="1">
  <advance width="570"/>
  <unicode hex="0025"/>
  <outline>
    <contour>
      <point x="84" y="30" type="curve" smooth="yes"/>
      <point x="61" y="-6" type="line" smooth="no"/>
      <point x="94" y="-6" type="line" smooth="no"/>
      <point x="128" y="-6" type="line" smooth="no"/>
      <point x="315" y="286" type="line" smooth="yes"/>
      <point x="419" y="447"/>
      <point x="504" y="580"/>
      <point x="504" y="582" type="curve" smooth="no"/>
      <point x="506" y="585"/>
      <point x="503" y="586"/>
      <point x="473" y="585" type="curve" smooth="no"/>
      <point x="440" y="585" type="line" smooth="no"/>
      <point x="274" y="325" type="line" smooth="yes"/>
      <point x="182" y="182"/>
      <point x="97" y="49"/>
    </contour>
    <contour>
      <point x="27" y="417" type="curve" smooth="yes"/>
      <point x="67" y="290"/>
      <point x="242" y="295"/>
      <point x="275" y="425" type="curve" smooth="yes"/>
      <point x="297" y="514"/>
      <point x="212" y="601"/>
      <point x="123" y="580" type="curve" smooth="no"/>
      <point x="50" y="564"/>
      <point x="5" y="487"/>
    </contour>
    <contour>
      <point x="175" y="395" type="curve" smooth="yes"/>
      <point x="123" y="372"/>
      <point x="67" y="426"/>
      <point x="89" y="477" type="curve" smooth="yes"/>
      <point x="105" y="512"/>
      <point x="135" y="526"/>
      <point x="172" y="513" type="curve" smooth="yes"/>
      <point x="225" y="495"/>
      <point x="227" y="419"/>
    </contour>
    <contour>
      <point x="295" y="93" type="curve" smooth="yes"/>
      <point x="329" y="-36"/>
      <point x="513" y="-36"/>
      <point x="546" y="93" type="curve" smooth="yes"/>
      <point x="569" y="184"/>
      <point x="480" y="273"/>
      <point x="390" y="248" type="curve" smooth="yes"/>
      <point x="321" y="229"/>
      <point x="278" y="158"/>
    </contour>
    <contour>
      <point x="442" y="62" type="curve" smooth="yes"/>
      <point x="388" y="42"/>
      <point x="337" y="101"/>
      <point x="365" y="152" type="curve" smooth="yes"/>
      <point x="381" y="183"/>
      <point x="417" y="195"/>
      <point x="449" y="179" type="curve" smooth="no"/>
      <point x="500" y="156"/>
      <point x="495" y="82"/>
    </contour>
  </outline>
</glyph>
<glyph name="uni0026" format="1">
  <advance width="528"/>
  <unicode hex="0026"/>
  <outline>
    <contour>
      <point x="96" y="456" type="curve" smooth="yes"/>
      <point x="88" y="414"/>
      <point x="107" y="360"/>
      <point x="147" y="312" type="curve" smooth="yes"/>
      <point x="157" y="299"/>
      <point x="157" y="299"/>
      <point x="142" y="290" type="curve" smooth="yes"/>
      <point x="89" y="258"/>
      <point x="45" y="211"/>
      <point x="33" y="176" type="curve" smooth="yes"/>
      <point x="0" y="83"/>
      <point x="67" y="-6"/>
      <point x="169" y="-6" type="curve" smooth="yes"/>
      <point x="224" y="-6"/>
      <point x="280" y="17"/>
      <point x="334" y="62" type="curve" smooth="no"/>
      <point x="352" y="76" type="line" smooth="no"/>
      <point x="360" y="66" type="line" smooth="yes"/>
      <point x="365" y="61"/>
      <point x="379" y="44"/>
      <point x="392" y="29" type="curve" smooth="yes"/>
      <point x="416" y="1" type="line" smooth="no"/>
      <point x="470" y="0" type="line" smooth="yes"/>
      <point x="500" y="0"/>
      <point x="525" y="1"/>
      <point x="525" y="1" type="curve" smooth="yes"/>
      <point x="525" y="2"/>
      <point x="499" y="32"/>
      <point x="467" y="69" type="curve" smooth="yes"/>
      <point x="409" y="136" type="line" smooth="no"/>
      <point x="421" y="151" type="line" smooth="yes"/>
      <point x="450" y="186"/>
      <point x="484" y="242"/>
      <point x="499" y="278" type="curve" smooth="no"/>
      <point x="502" y="286" type="line" smooth="no"/>
      <point x="460" y="286" type="line" smooth="no"/>
      <point x="417" y="286" type="line" smooth="no"/>
      <point x="411" y="276" type="line" smooth="no"/>
      <point x="404" y="262"/>
      <point x="373" y="215"/>
      <point x="364" y="204" type="curve" smooth="no"/>
      <point x="356" y="196" type="line" smooth="no"/>
      <point x="323" y="234" type="line" smooth="yes"/>
      <point x="305" y="255"/>
      <point x="288" y="275"/>
      <point x="284" y="279" type="curve" smooth="yes"/>
      <point x="278" y="286" type="line" smooth="no"/>
      <point x="299" y="302" type="line" smooth="no"/>
      <point x="381" y="369"/>
      <point x="403" y="442"/>
      <point x="362" y="506" type="curve" smooth="yes"/>
      <point x="334" y="550"/>
      <point x="268" y="574"/>
      <point x="209" y="563" type="curve" smooth="yes"/>
      <point x="145" y="550"/>
      <point x="108" y="516"/>
    </contour>
    <contour>
      <point x="302" y="429" type="curve" smooth="yes"/>
      <point x="299" y="402"/>
      <point x="273" y="371"/>
      <point x="231" y="345" type="curve" smooth="yes"/>
      <point x="224" y="341"/>
      <point x="191" y="389"/>
      <point x="184" y="414" type="curve" smooth="yes"/>
      <point x="166" y="470"/>
      <point x="218" y="512"/>
      <point x="272" y="485" type="curve" smooth="yes"/>
      <point x="292" y="474"/>
      <point x="304" y="451"/>
    </contour>
    <contour>
      <point x="299" y="136" type="line" smooth="no"/>
      <point x="287" y="125" type="line" smooth="yes"/>
      <point x="228" y="72"/>
      <point x="163" y="59"/>
      <point x="127" y="93" type="curve" smooth="yes"/>
      <point x="91" y="127"/>
      <point x="110" y="172"/>
      <point x="183" y="225" type="curve" smooth="yes"/>
      <point x="207" y="242"/>
      <point x="207" y="242"/>
      <point x="211" y="237" type="curve" smooth="no"/>
      <point x="214" y="235"/>
      <point x="235" y="211"/>
      <point x="257" y="184" type="curve" smooth="no"/>
    </contour>
  </outline>
</glyph>
<glyph name="uni0027" format="1">
  <advance width="161"/>
  <unicode hex="0027"/>
  <outline>
    <contour>
      <point x="54" y="395" type="curve" smooth="yes"/>
      <point x="55" y="390"/>
      <point x="56" y="390"/>
      <point x="79" y="390" type="curve" smooth="yes"/>
      <point x="103" y="390"/>
      <point x="104" y="390"/>
      <point x="105" y="395" type="curve" smooth="yes"/>
      <point x="117" y="450"/>
      <point x="123" y="506"/>
      <point x="123" y="555" type="curve" smooth="yes"/>
      <point x="123" y="605" type="line" smooth="no"/>
      <point x="81" y="605" type="line" smooth="no"/>
      <point x="38" y="605" type="line" smooth="no"/>
      <point x="38" y="551" type="line" smooth="yes"/>
      <point x="38" y="498"/>
      <point x="44" y="439"/>
    </contour>
  </outline>
</glyph>
<glyph name="uni0028" format="1">
  <advance width="274"/>
  <unicode hex="0028"/>
  <outline>
    <contour>
      <point x="54" y="194" type="curve" smooth="yes"/>
      <point x="55" y="65"/>
      <point x="97" y="-47"/>
      <point x="190" y="-163" type="curve" smooth="yes"/>
      <point x="214" y="-193" type="line" smooth="no"/>
      <point x="239" y="-193" type="line" smooth="yes"/>
      <point x="259" y="-193"/>
      <point x="264" y="-193"/>
      <point x="262" y="-190" type="curve" smooth="yes"/>
      <point x="262" y="-189"/>
      <point x="255" y="-178"/>
      <point x="247" y="-167" type="curve" smooth="yes"/>
      <point x="182" y="-69"/>
      <point x="139" y="88"/>
      <point x="144" y="216" type="curve" smooth="no"/>
      <point x="148" y="354"/>
      <point x="179" y="454"/>
      <point x="248" y="558" type="curve" smooth="yes"/>
      <point x="252" y="563"/>
      <point x="256" y="571"/>
      <point x="259" y="575" type="curve" smooth="yes"/>
      <point x="264" y="583" type="line" smooth="no"/>
      <point x="239" y="583" type="line" smooth="no"/>
      <point x="214" y="583" type="line" smooth="no"/>
      <point x="193" y="555" type="line" smooth="yes"/>
      <point x="93" y="422"/>
      <point x="54" y="320"/>
    </contour>
  </outline>
</glyph>
<glyph name="uni0029" format="1">
  <advance width="273"/>
  <unicode hex="0029"/>
  <outline>
    <contour>
      <point x="18" y="569" type="curve" smooth="yes"/>
      <point x="130" y="412"/>
      <point x="161" y="179"/>
      <point x="96" y="-24" type="curve" smooth="yes"/>
      <point x="83" y="-64"/>
      <point x="62" y="-107"/>
      <point x="25" y="-166" type="curve" smooth="yes"/>
      <point x="17" y="-179"/>
      <point x="10" y="-191"/>
      <point x="10" y="-192" type="curve" smooth="yes"/>
      <point x="10" y="-193"/>
      <point x="21" y="-193"/>
      <point x="34" y="-193" type="curve" smooth="yes"/>
      <point x="59" y="-193" type="line" smooth="no"/>
      <point x="85" y="-157" type="line" smooth="no"/>
      <point x="176" y="-37"/>
      <point x="210" y="47"/>
      <point x="218" y="175" type="curve" smooth="yes"/>
      <point x="222" y="237"/>
      <point x="205" y="331"/>
      <point x="178" y="397" type="curve" smooth="yes"/>
      <point x="154" y="456"/>
      <point x="131" y="494"/>
      <point x="80" y="556" type="curve" smooth="yes"/>
      <point x="58" y="583" type="line" smooth="no"/>
      <point x="34" y="583" type="line" smooth="yes"/>
      <point x="21" y="583"/>
      <point x="10" y="583"/>
      <point x="10" y="582" type="curve" smooth="yes"/>
      <point x="10" y="581"/>
      <point x="14" y="575"/>
    </contour>
  </outline>
</glyph>
<glyph name="uni002A" format="1">
  <advance width="352"/>
  <unicode hex="002a"/>
  <outline>
    <contour>
      <point x="154" y="600" type="curve" smooth="yes"/>
      <point x="145" y="584"/>
      <point x="146" y="576"/>
      <point x="158" y="515" type="curve" smooth="yes"/>
      <point x="171" y="449"/>
      <point x="170" y="457"/>
      <point x="162" y="452" type="curve" smooth="yes"/>
      <point x="155" y="448"/>
      <point x="155" y="448"/>
      <point x="118" y="482" type="curve" smooth="no"/>
      <point x="61" y="537"/>
      <point x="44" y="545"/>
      <point x="26" y="527" type="curve" smooth="yes"/>
      <point x="11" y="511"/>
      <point x="13" y="493"/>
      <point x="32" y="479" type="curve" smooth="yes"/>
      <point x="38" y="474"/>
      <point x="60" y="465"/>
      <point x="94" y="452" type="curve" smooth="yes"/>
      <point x="147" y="433"/>
      <point x="147" y="433"/>
      <point x="147" y="424" type="curve" smooth="yes"/>
      <point x="147" y="415"/>
      <point x="147" y="415"/>
      <point x="103" y="400" type="curve" smooth="yes"/>
      <point x="43" y="379"/>
      <point x="26" y="370"/>
      <point x="18" y="354" type="curve" smooth="yes"/>
      <point x="7" y="333"/>
      <point x="22" y="311"/>
      <point x="45" y="313" type="curve" smooth="yes"/>
      <point x="59" y="315"/>
      <point x="78" y="329"/>
      <point x="119" y="366" type="curve" smooth="yes"/>
      <point x="138" y="384"/>
      <point x="154" y="399"/>
      <point x="155" y="399" type="curve" smooth="yes"/>
      <point x="161" y="399"/>
      <point x="169" y="391"/>
      <point x="168" y="386" type="curve" smooth="yes"/>
      <point x="167" y="383"/>
      <point x="162" y="359"/>
      <point x="157" y="334" type="curve" smooth="yes"/>
      <point x="141" y="260"/>
      <point x="145" y="236"/>
      <point x="173" y="232" type="curve" smooth="yes"/>
      <point x="205" y="228"/>
      <point x="211" y="257"/>
      <point x="195" y="343" type="curve" smooth="no"/>
      <point x="185" y="391" type="line" smooth="no"/>
      <point x="193" y="395" type="line" smooth="yes"/>
      <point x="200" y="399"/>
      <point x="200" y="399"/>
      <point x="234" y="366" type="curve" smooth="yes"/>
      <point x="272" y="328"/>
      <point x="284" y="319"/>
      <point x="299" y="314" type="curve" smooth="yes"/>
      <point x="332" y="304"/>
      <point x="352" y="343"/>
      <point x="326" y="366" type="curve" smooth="yes"/>
      <point x="320" y="371"/>
      <point x="300" y="380"/>
      <point x="250" y="399" type="curve" smooth="yes"/>
      <point x="207" y="415"/>
      <point x="207" y="415"/>
      <point x="208" y="424" type="curve" smooth="yes"/>
      <point x="209" y="433"/>
      <point x="209" y="433"/>
      <point x="263" y="452" type="curve" smooth="yes"/>
      <point x="324" y="474"/>
      <point x="327" y="476"/>
      <point x="334" y="490" type="curve" smooth="yes"/>
      <point x="344" y="511"/>
      <point x="332" y="535"/>
      <point x="311" y="535" type="curve" smooth="yes"/>
      <point x="294" y="535"/>
      <point x="280" y="524"/>
      <point x="227" y="473" type="curve" smooth="yes"/>
      <point x="213" y="460"/>
      <point x="201" y="449"/>
      <point x="200" y="450" type="curve" smooth="yes"/>
      <point x="199" y="450"/>
      <point x="196" y="452"/>
      <point x="192" y="453" type="curve" smooth="yes"/>
      <point x="185" y="456" type="line" smooth="no"/>
      <point x="195" y="505" type="line" smooth="yes"/>
      <point x="207" y="568"/>
      <point x="209" y="586"/>
      <point x="202" y="598" type="curve" smooth="yes"/>
      <point x="195" y="612"/>
      <point x="183" y="617"/>
      <point x="167" y="611" type="curve" smooth="yes"/>
      <point x="162" y="610"/>
      <point x="158" y="606"/>
    </contour>
  </outline>
</glyph>
<glyph name="uni002B" format="1">
  <advance width="494"/>
  <unicode hex="002b"/>
  <outline>
    <contour>
      <point x="212" y="335" type="line" smooth="no"/>
      <point x="130" y="335" type="line" smooth="no"/>
      <point x="47" y="335" type="line" smooth="no"/>
      <point x="47" y="299" type="line" smooth="no"/>
      <point x="47" y="262" type="line" smooth="no"/>
      <point x="130" y="262" type="line" smooth="no"/>
      <point x="212" y="262" type="line" smooth="no"/>
      <point x="212" y="180" type="line" smooth="no"/>
      <point x="212" y="97" type="line" smooth="no"/>
      <point x="248" y="97" type="line" smooth="no"/>
      <point x="285" y="97" type="line" smooth="no"/>
      <point x="285" y="180" type="line" smooth="no"/>
      <point x="285" y="262" type="line" smooth="no"/>
      <point x="366" y="262" type="line" smooth="no"/>
      <point x="448" y="262" type="line" smooth="no"/>
      <point x="448" y="299" type="line" smooth="no"/>
      <point x="448" y="335" type="line" smooth="no"/>
      <point x="366" y="335" type="line" smooth="no"/>
      <point x="285" y="335" type="line" smooth="no"/>
      <point x="285" y="416" type="line" smooth="no"/>
      <point x="285" y="498" type="line" smooth="no"/>
      <point x="248" y="498" type="line" smooth="no"/>
      <point x="212" y="498" type="line" smooth="no"/>
      <point x="212" y="416" type="line" smooth="no"/>
    </contour>
  </outline>
</glyph>
<glyph name="uni002C" format="1">
  <advance width="184"/>
  <unicode hex="002c"/>
  <outline>
    <contour>
      <point x="67" y="2" type="curve" smooth="yes"/>
      <point x="75" y="-1"/>
      <point x="75" y="-1"/>
      <point x="71" y="-24" type="curve" smooth="yes"/>
      <point x="67" y="-45"/>
      <point x="64" y="-53"/>
      <point x="50" y="-70" type="curve" smooth="no"/>
      <point x="40" y="-84"/>
      <point x="35" y="-101"/>
      <point x="40" y="-101" type="curve" smooth="yes"/>
      <point x="51" y="-101"/>
      <point x="89" y="-77"/>
      <point x="105" y="-61" type="curve" smooth="yes"/>
      <point x="167" y="1"/>
      <point x="141" y="126"/>
      <point x="70" y="108" type="curve" smooth="yes"/>
      <point x="21" y="96"/>
      <point x="19" y="20"/>
    </contour>
  </outline>
</glyph>
<glyph name="uni002D" format="1">
  <advance width="274"/>
  <unicode hex="002d"/>
  <outline>
    <contour>
      <point x="34" y="146" type="line" smooth="no"/>
      <point x="137" y="146" type="line" smooth="no"/>
      <point x="241" y="146" type="line" smooth="no"/>
      <point x="241" y="187" type="line" smooth="no"/>
      <point x="241" y="229" type="line" smooth="no"/>
      <point x="137" y="229" type="line" smooth="no"/>
      <point x="34" y="229" type="line" smooth="no"/>
      <point x="34" y="187" type="line" smooth="no"/>
    </contour>
  </outline>
</glyph>
<glyph name="uni002E" format="1">
  <advance width="187"/>
  <unicode hex="002e"/>
  <outline>
    <contour>
      <point x="45" y="27" type="curve" smooth="yes"/>
      <point x="58" y="-16"/>
      <point x="123" y="-18"/>
      <point x="140" y="24" type="curve" smooth="no"/>
      <point x="157" y="63"/>
      <point x="116" y="105"/>
      <point x="75" y="90" type="curve" smooth="yes"/>
      <point x="50" y="80"/>
      <point x="37" y="54"/>
    </contour>
  </outline>
</glyph>
<glyph name="uni002F" format="1">
  <advance width="237"/>
  <unicode hex="002f"/>
  <outline>
    <contour>
      <point x="2" y="-5" type="curve" smooth="yes"/>
      <point x="2" y="-8"/>
      <point x="9" y="-8"/>
      <point x="33" y="-8" type="curve" smooth="yes"/>
      <point x="50" y="-8"/>
      <point x="64" y="-8"/>
      <point x="64" y="-7" type="curve" smooth="yes"/>
      <point x="64" y="-6"/>
      <point x="222" y="560"/>
      <point x="228" y="582" type="curve" smooth="yes"/>
      <point x="229" y="585"/>
      <point x="226" y="586"/>
      <point x="198" y="586" type="curve" smooth="yes"/>
      <point x="167" y="586"/>
      <point x="167" y="586"/>
      <point x="165" y="578" type="curve" smooth="yes"/>
      <point x="160" y="561"/>
      <point x="2" y="-3"/>
    </contour>
  </outline>
</glyph>
<glyph name="uni0030" format="1">
  <advance width="421"/>
  <unicode hex="0030"/>
  <outline>
    <contour>
      <point x="67" y="482" type="curve" smooth="yes"/>
      <point x="12" y="373"/>
      <point x="12" y="199"/>
      <point x="68" y="88" type="curve" smooth="yes"/>
      <point x="104" y="17"/>
      <point x="189" y="-23"/>
      <point x="254" y="2" type="curve" smooth="yes"/>
      <point x="345" y="36"/>
      <point x="397" y="142"/>
      <point x="396" y="291" type="curve" smooth="no"/>
      <point x="396" y="473"/>
      <point x="309" y="597"/>
      <point x="192" y="582" type="curve" smooth="yes"/>
      <point x="146" y="576"/>
      <point x="92" y="533"/>
    </contour>
    <contour>
      <point x="306" y="358" type="curve" smooth="yes"/>
      <point x="321" y="247"/>
      <point x="302" y="139"/>
      <point x="261" y="97" type="curve" smooth="yes"/>
      <point x="211" y="46"/>
      <point x="147" y="78"/>
      <point x="124" y="165" type="curve" smooth="yes"/>
      <point x="99" y="263"/>
      <point x="108" y="401"/>
      <point x="145" y="459" type="curve" smooth="yes"/>
      <point x="169" y="497"/>
      <point x="207" y="513"/>
      <point x="238" y="497" type="curve" smooth="yes"/>
      <point x="274" y="479"/>
      <point x="296" y="433"/>
    </contour>
  </outline>
</glyph>
<glyph name="uni0031" format="1">
  <advance width="428"/>
  <unicode hex="0031"/>
  <outline>
    <contour>
      <point x="173" y="0" type="line" smooth="no"/>
      <point x="215" y="0" type="line" smooth="no"/>
      <point x="257" y="0" type="line" smooth="no"/>
      <point x="257" y="289" type="line" smooth="no"/>
      <point x="257" y="577" type="line" smooth="no"/>
      <point x="215" y="577" type="line" smooth="no"/>
      <point x="173" y="577" type="line" smooth="no"/>
      <point x="173" y="289" type="line" smooth="no"/>
    </contour>
  </outline>
</glyph>
<glyph name="uni0032" format="1">
  <advance width="423"/>
  <unicode hex="0032"/>
  <outline>
    <contour>
      <point x="57" y="541" type="curve" smooth="yes"/>
      <point x="40" y="530" type="line" smooth="no"/>
      <point x="40" y="476" type="line" smooth="yes"/>
      <point x="40" y="447"/>
      <point x="41" y="423"/>
      <point x="42" y="423" type="curve" smooth="yes"/>
      <point x="42" y="423"/>
      <point x="48" y="429"/>
      <point x="54" y="437" type="curve" smooth="yes"/>
      <point x="138" y="539"/>
      <point x="269" y="511"/>
      <point x="269" y="392" type="curve" smooth="yes"/>
      <point x="269" y="370"/>
      <point x="262" y="339"/>
      <point x="252" y="317" type="curve" smooth="yes"/>
      <point x="228" y="264"/>
      <point x="134" y="132"/>
      <point x="51" y="33" type="curve" smooth="yes"/>
      <point x="39" y="19"/>
      <point x="29" y="6"/>
      <point x="29" y="4" type="curve" smooth="yes"/>
      <point x="29" y="1"/>
      <point x="47" y="0"/>
      <point x="212" y="0" type="curve" smooth="yes"/>
      <point x="394" y="0" type="line" smooth="no"/>
      <point x="394" y="41" type="line" smooth="no"/>
      <point x="394" y="82" type="line" smooth="no"/>
      <point x="286" y="82" type="line" smooth="no"/>
      <point x="178" y="82" type="line" smooth="no"/>
      <point x="202" y="110" type="line" smooth="no"/>
      <point x="356" y="295"/>
      <point x="390" y="411"/>
      <point x="319" y="515" type="curve" smooth="yes"/>
      <point x="285" y="565"/>
      <point x="208" y="594"/>
      <point x="146" y="580" type="curve" smooth="yes"/>
      <point x="116" y="574"/>
      <point x="87" y="561"/>
    </contour>
  </outline>
</glyph>
<glyph name="uni0033" format="1">
  <advance width="422"/>
  <unicode hex="0033"/>
  <outline>
    <contour>
      <point x="83" y="566" type="curve" smooth="yes"/>
      <point x="68" y="560" type="line" smooth="no"/>
      <point x="68" y="520" type="line" smooth="no"/>
      <point x="67" y="497"/>
      <point x="68" y="480"/>
      <point x="69" y="480" type="curve" smooth="yes"/>
      <point x="70" y="480"/>
      <point x="78" y="483"/>
      <point x="87" y="487" type="curve" smooth="yes"/>
      <point x="142" y="510"/>
      <point x="188" y="512"/>
      <point x="224" y="493" type="curve" smooth="yes"/>
      <point x="255" y="476"/>
      <point x="272" y="440"/>
      <point x="264" y="405" type="curve" smooth="yes"/>
      <point x="255" y="362"/>
      <point x="226" y="342"/>
      <point x="170" y="338" type="curve" smooth="no"/>
      <point x="151" y="336" type="line" smooth="no"/>
      <point x="151" y="298" type="line" smooth="no"/>
      <point x="151" y="259" type="line" smooth="no"/>
      <point x="180" y="254" type="line" smooth="yes"/>
      <point x="218" y="248"/>
      <point x="223" y="246"/>
      <point x="237" y="236" type="curve" smooth="yes"/>
      <point x="274" y="208"/>
      <point x="282" y="151"/>
      <point x="255" y="111" type="curve" smooth="yes"/>
      <point x="226" y="68"/>
      <point x="155" y="66"/>
      <point x="76" y="106" type="curve" smooth="yes"/>
      <point x="54" y="117" type="line" smooth="no"/>
      <point x="54" y="71" type="line" smooth="no"/>
      <point x="54" y="25" type="line" smooth="no"/>
      <point x="65" y="19" type="line" smooth="no"/>
      <point x="135" y="-17"/>
      <point x="228" y="-14"/>
      <point x="287" y="26" type="curve" smooth="yes"/>
      <point x="378" y="86"/>
      <point x="383" y="250"/>
      <point x="296" y="295" type="curve" smooth="yes"/>
      <point x="278" y="304"/>
      <point x="278" y="304"/>
      <point x="291" y="312" type="curve" smooth="yes"/>
      <point x="305" y="321"/>
      <point x="330" y="347"/>
      <point x="336" y="359" type="curve" smooth="yes"/>
      <point x="363" y="413"/>
      <point x="350" y="497"/>
      <point x="307" y="539" type="curve" smooth="yes"/>
      <point x="274" y="572"/>
      <point x="209" y="590"/>
      <point x="151" y="583" type="curve" smooth="yes"/>
      <point x="129" y="581"/>
      <point x="101" y="574"/>
    </contour>
  </outline>
</glyph>
<glyph name="uni0034" format="1">
  <advance width="423"/>
  <unicode hex="0034"/>
  <outline>
    <contour>
      <point x="136" y="384" type="line" smooth="no"/>
      <point x="10" y="228" type="line" smooth="no"/>
      <point x="10" y="209" type="line" smooth="no"/>
      <point x="10" y="190" type="line" smooth="no"/>
      <point x="131" y="190" type="line" smooth="no"/>
      <point x="252" y="190" type="line" smooth="no"/>
      <point x="252" y="95" type="line" smooth="no"/>
      <point x="252" y="0" type="line" smooth="no"/>
      <point x="293" y="0" type="line" smooth="no"/>
      <point x="335" y="0" type="line" smooth="no"/>
      <point x="335" y="95" type="line" smooth="no"/>
      <point x="335" y="190" type="line" smooth="no"/>
      <point x="367" y="190" type="line" smooth="no"/>
      <point x="399" y="190" type="line" smooth="no"/>
      <point x="399" y="226" type="line" smooth="no"/>
      <point x="399" y="262" type="line" smooth="no"/>
      <point x="367" y="262" type="line" smooth="no"/>
      <point x="335" y="262" type="line" smooth="no"/>
      <point x="335" y="423" type="line" smooth="no"/>
      <point x="335" y="583" type="line" smooth="no"/>
      <point x="317" y="583" type="line" smooth="no"/>
      <point x="298" y="583" type="line" smooth="no"/>
      <point x="280" y="562" type="line" smooth="no"/>
    </contour>
    <contour>
      <point x="187" y="263" type="curve" smooth="no"/>
      <point x="124" y="263" type="line" smooth="no"/>
      <point x="187" y="342" type="line" smooth="no"/>
      <point x="250" y="422" type="line" smooth="no"/>
      <point x="251" y="343" type="line" smooth="no"/>
      <point x="251" y="263" type="line" smooth="no"/>
      <point x="250" y="262"/>
      <point x="222" y="262"/>
    </contour>
  </outline>
</glyph>
<glyph name="uni0035" format="1">
  <advance width="424"/>
  <unicode hex="0035"/>
  <outline>
    <contour>
      <point x="91" y="276" type="curve" smooth="yes"/>
      <point x="117" y="284"/>
      <point x="166" y="285"/>
      <point x="191" y="279" type="curve" smooth="yes"/>
      <point x="284" y="256"/>
      <point x="316" y="166"/>
      <point x="253" y="107" type="curve" smooth="yes"/>
      <point x="209" y="66"/>
      <point x="141" y="65"/>
      <point x="66" y="103" type="curve" smooth="yes"/>
      <point x="55" y="109"/>
      <point x="45" y="114"/>
      <point x="44" y="114" type="curve" smooth="yes"/>
      <point x="43" y="115"/>
      <point x="42" y="95"/>
      <point x="42" y="71" type="curve" smooth="yes"/>
      <point x="42" y="27" type="line" smooth="no"/>
      <point x="58" y="20" type="line" smooth="yes"/>
      <point x="166" y="-28"/>
      <point x="290" y="-6"/>
      <point x="340" y="71" type="curve" smooth="yes"/>
      <point x="386" y="141"/>
      <point x="381" y="232"/>
      <point x="329" y="297" type="curve" smooth="yes"/>
      <point x="300" y="332"/>
      <point x="234" y="359"/>
      <point x="176" y="359" type="curve" smooth="yes"/>
      <point x="163" y="359" type="line" smooth="no"/>
      <point x="163" y="431" type="line" smooth="no"/>
      <point x="163" y="502" type="line" smooth="no"/>
      <point x="253" y="502" type="line" smooth="no"/>
      <point x="344" y="502" type="line" smooth="no"/>
      <point x="344" y="539" type="line" smooth="no"/>
      <point x="344" y="577" type="line" smooth="no"/>
      <point x="215" y="577" type="line" smooth="no"/>
      <point x="86" y="577" type="line" smooth="no"/>
      <point x="86" y="426" type="line" smooth="yes"/>
      <point x="86" y="275"/>
      <point x="86" y="275"/>
    </contour>
  </outline>
</glyph>
<glyph name="uni0036" format="1">
  <advance width="423"/>
  <unicode hex="0036"/>
  <outline>
    <contour>
      <point x="40" y="233" type="curve" smooth="yes"/>
      <point x="30" y="141"/>
      <point x="65" y="53"/>
      <point x="127" y="19" type="curve" smooth="yes"/>
      <point x="283" y="-68"/>
      <point x="453" y="87"/>
      <point x="374" y="246" type="curve" smooth="yes"/>
      <point x="337" y="321"/>
      <point x="256" y="351"/>
      <point x="170" y="322" type="curve" smooth="yes"/>
      <point x="141" y="312"/>
      <point x="142" y="310"/>
      <point x="161" y="349" type="curve" smooth="yes"/>
      <point x="191" y="411"/>
      <point x="240" y="465"/>
      <point x="304" y="509" type="curve" smooth="yes"/>
      <point x="312" y="514"/>
      <point x="319" y="519"/>
      <point x="319" y="520" type="curve" smooth="yes"/>
      <point x="319" y="522"/>
      <point x="271" y="582"/>
      <point x="268" y="583" type="curve" smooth="yes"/>
      <point x="267" y="583"/>
      <point x="258" y="578"/>
      <point x="250" y="572" type="curve" smooth="yes"/>
      <point x="124" y="479"/>
      <point x="54" y="366"/>
    </contour>
    <contour>
      <point x="309" y="162" type="curve" smooth="yes"/>
      <point x="309" y="86"/>
      <point x="230" y="46"/>
      <point x="166" y="89" type="curve" smooth="yes"/>
      <point x="135" y="110"/>
      <point x="118" y="154"/>
      <point x="123" y="201" type="curve" smooth="yes"/>
      <point x="125" y="226"/>
      <point x="124" y="224"/>
      <point x="152" y="239" type="curve" smooth="yes"/>
      <point x="186" y="257"/>
      <point x="220" y="260"/>
      <point x="250" y="249" type="curve" smooth="yes"/>
      <point x="291" y="233"/>
      <point x="309" y="207"/>
    </contour>
  </outline>
</glyph>
<glyph name="uni0037" format="1">
  <advance width="423"/>
  <unicode hex="0037"/>
  <outline>
    <contour>
      <point x="41" y="495" type="line" smooth="no"/>
      <point x="165" y="495" type="line" smooth="no"/>
      <point x="289" y="494" type="line" smooth="no"/>
      <point x="185" y="261" type="line" smooth="yes"/>
      <point x="128" y="133"/>
      <point x="80" y="27"/>
      <point x="80" y="26" type="curve" smooth="yes"/>
      <point x="80" y="23"/>
      <point x="149" y="-7"/>
      <point x="153" y="-6" type="curve" smooth="yes"/>
      <point x="156" y="-5"/>
      <point x="415" y="570"/>
      <point x="415" y="575" type="curve" smooth="yes"/>
      <point x="415" y="576"/>
      <point x="331" y="577"/>
      <point x="228" y="577" type="curve" smooth="yes"/>
      <point x="41" y="577" type="line" smooth="no"/>
      <point x="41" y="536" type="line" smooth="no"/>
    </contour>
  </outline>
</glyph>
<glyph name="uni0038" format="1">
  <advance width="421"/>
  <unicode hex="0038"/>
  <outline>
    <contour>
      <point x="45" y="379" type="curve" smooth="yes"/>
      <point x="52" y="354"/>
      <point x="61" y="339"/>
      <point x="85" y="315" type="curve" smooth="no"/>
      <point x="105" y="293" type="line" smooth="no"/>
      <point x="92" y="284" type="line" smooth="no"/>
      <point x="13" y="227"/>
      <point x="5" y="115"/>
      <point x="75" y="46" type="curve" smooth="yes"/>
      <point x="144" y="-23"/>
      <point x="279" y="-23"/>
      <point x="348" y="45" type="curve" smooth="no"/>
      <point x="417" y="115"/>
      <point x="407" y="227"/>
      <point x="328" y="286" type="curve" smooth="no"/>
      <point x="318" y="293" type="line" smooth="no"/>
      <point x="335" y="310" type="line" smooth="yes"/>
      <point x="401" y="375"/>
      <point x="403" y="470"/>
      <point x="339" y="534" type="curve" smooth="yes"/>
      <point x="298" y="574"/>
      <point x="228" y="593"/>
      <point x="172" y="579" type="curve" smooth="yes"/>
      <point x="75" y="554"/>
      <point x="21" y="469"/>
    </contour>
    <contour>
      <point x="263" y="349" type="curve" smooth="yes"/>
      <point x="217" y="320"/>
      <point x="155" y="337"/>
      <point x="132" y="385" type="curve" smooth="yes"/>
      <point x="100" y="454"/>
      <point x="166" y="522"/>
      <point x="242" y="499" type="curve" smooth="yes"/>
      <point x="310" y="478"/>
      <point x="323" y="387"/>
    </contour>
    <contour>
      <point x="306" y="134" type="curve" smooth="yes"/>
      <point x="284" y="61"/>
      <point x="156" y="52"/>
      <point x="122" y="122" type="curve" smooth="yes"/>
      <point x="86" y="195"/>
      <point x="152" y="268"/>
      <point x="236" y="248" type="curve" smooth="yes"/>
      <point x="290" y="235"/>
      <point x="321" y="186"/>
    </contour>
  </outline>
</glyph>
<glyph name="uni0039" format="1">
  <advance width="421"/>
  <unicode hex="0039"/>
  <outline>
    <contour>
      <point x="41" y="352" type="curve" smooth="no"/>
      <point x="75" y="262"/>
      <point x="170" y="221"/>
      <point x="262" y="258" type="curve" smooth="yes"/>
      <point x="271" y="262"/>
      <point x="278" y="264"/>
      <point x="279" y="264" type="curve" smooth="yes"/>
      <point x="283" y="264"/>
      <point x="258" y="211"/>
      <point x="243" y="187" type="curve" smooth="yes"/>
      <point x="217" y="147"/>
      <point x="173" y="102"/>
      <point x="125" y="67" type="curve" smooth="no"/>
      <point x="115" y="61"/>
      <point x="107" y="54"/>
      <point x="107" y="53" type="curve" smooth="yes"/>
      <point x="107" y="50"/>
      <point x="156" y="-6"/>
      <point x="158" y="-6" type="curve" smooth="yes"/>
      <point x="168" y="-6"/>
      <point x="232" y="47"/>
      <point x="262" y="79" type="curve" smooth="yes"/>
      <point x="317" y="140"/>
      <point x="349" y="194"/>
      <point x="371" y="264" type="curve" smooth="yes"/>
      <point x="425" y="435"/>
      <point x="352" y="578"/>
      <point x="208" y="582" type="curve" smooth="yes"/>
      <point x="190" y="583"/>
      <point x="178" y="582"/>
      <point x="168" y="580" type="curve" smooth="yes"/>
      <point x="63" y="556"/>
      <point x="5" y="451"/>
    </contour>
    <contour>
      <point x="301" y="391" type="curve" smooth="no"/>
      <point x="300" y="356"/>
      <point x="299" y="353"/>
      <point x="284" y="344" type="curve" smooth="yes"/>
      <point x="231" y="314"/>
      <point x="174" y="317"/>
      <point x="141" y="351" type="curve" smooth="yes"/>
      <point x="74" y="420"/>
      <point x="143" y="530"/>
      <point x="234" y="500" type="curve" smooth="yes"/>
      <point x="278" y="486"/>
      <point x="301" y="448"/>
    </contour>
  </outline>
</glyph>
<glyph name="uni003A" format="1">
  <advance width="186"/>
  <unicode hex="003a"/>
  <outline>
    <contour>
      <point x="75" y="290" type="curve" smooth="yes"/>
      <point x="112" y="275"/>
      <point x="151" y="303"/>
      <point x="146" y="342" type="curve" smooth="yes"/>
      <point x="142" y="378"/>
      <point x="104" y="398"/>
      <point x="73" y="382" type="curve" smooth="yes"/>
      <point x="36" y="362"/>
      <point x="38" y="305"/>
    </contour>
    <contour>
      <point x="54" y="7" type="curve" smooth="yes"/>
      <point x="75" y="-13"/>
      <point x="116" y="-9"/>
      <point x="131" y="13" type="curve" smooth="yes"/>
      <point x="158" y="53"/>
      <point x="122" y="105"/>
      <point x="75" y="93" type="curve" smooth="yes"/>
      <point x="39" y="84"/>
      <point x="26" y="33"/>
    </contour>
  </outline>
</glyph>
<glyph name="uni003B" format="1">
  <advance width="192"/>
  <unicode hex="003b"/>
  <outline>
    <contour>
      <point x="102" y="286" type="curve" smooth="yes"/>
      <point x="129" y="286"/>
      <point x="151" y="308"/>
      <point x="151" y="336" type="curve" smooth="yes"/>
      <point x="151" y="371"/>
      <point x="117" y="396"/>
      <point x="84" y="384" type="curve" smooth="yes"/>
      <point x="30" y="365"/>
      <point x="44" y="285"/>
    </contour>
    <contour>
      <point x="77" y="2" type="curve" smooth="yes"/>
      <point x="92" y="-3"/>
      <point x="79" y="-54"/>
      <point x="56" y="-75" type="curve" smooth="no"/>
      <point x="51" y="-81"/>
      <point x="50" y="-84"/>
      <point x="50" y="-91" type="curve" smooth="yes"/>
      <point x="50" y="-103"/>
      <point x="48" y="-103"/>
      <point x="73" y="-91" type="curve" smooth="yes"/>
      <point x="114" y="-71"/>
      <point x="140" y="-38"/>
      <point x="148" y="6" type="curve" smooth="yes"/>
      <point x="160" y="67"/>
      <point x="125" y="120"/>
      <point x="82" y="108" type="curve" smooth="no"/>
      <point x="31" y="95"/>
      <point x="28" y="20"/>
    </contour>
  </outline>
</glyph>
<glyph name="uni003C" format="1">
  <advance width="496"/>
  <unicode hex="003c"/>
  <outline>
    <contour>
      <point x="48" y="335" type="line" smooth="no"/>
      <point x="47" y="299" type="line" smooth="no"/>
      <point x="46" y="263" type="line" smooth="no"/>
      <point x="244" y="179" type="line" smooth="yes"/>
      <point x="353" y="132"/>
      <point x="443" y="94"/>
      <point x="445" y="93" type="curve" smooth="yes"/>
      <point x="449" y="92"/>
      <point x="449" y="95"/>
      <point x="449" y="130" type="curve" smooth="yes"/>
      <point x="448" y="168" type="line" smooth="no"/>
      <point x="295" y="232" type="line" smooth="yes"/>
      <point x="211" y="267"/>
      <point x="140" y="296"/>
      <point x="138" y="297" type="curve" smooth="yes"/>
      <point x="135" y="298"/>
      <point x="175" y="315"/>
      <point x="292" y="363" type="curve" smooth="yes"/>
      <point x="449" y="428" type="line" smooth="no"/>
      <point x="449" y="466" type="line" smooth="yes"/>
      <point x="449" y="487"/>
      <point x="448" y="504"/>
      <point x="448" y="504" type="curve" smooth="yes"/>
      <point x="447" y="504"/>
      <point x="356" y="466"/>
      <point x="247" y="420" type="curve" smooth="yes"/>
    </contour>
  </outline>
</glyph>
<glyph name="uni003D" format="1">
  <advance width="494"/>
  <unicode hex="003d"/>
  <outline>
    <contour>
      <point x="47" y="355" type="line" smooth="no"/>
      <point x="247" y="355" type="line" smooth="no"/>
      <point x="448" y="355" type="line" smooth="no"/>
      <point x="448" y="390" type="line" smooth="no"/>
      <point x="448" y="425" type="line" smooth="no"/>
      <point x="247" y="425" type="line" smooth="no"/>
      <point x="47" y="425" type="line" smooth="no"/>
      <point x="47" y="390" type="line" smooth="no"/>
    </contour>
    <contour>
      <point x="47" y="172" type="line" smooth="no"/>
      <point x="247" y="172" type="line" smooth="no"/>
      <point x="448" y="172" type="line" smooth="no"/>
      <point x="448" y="207" type="line" smooth="no"/>
      <point x="448" y="242" type="line" smooth="no"/>
      <point x="247" y="242" type="line" smooth="no"/>
      <point x="47" y="242" type="line" smooth="no"/>
      <point x="47" y="207" type="line" smooth="no"/>
    </contour>
  </outline>
</glyph>
<glyph name="uni003E" format="1">
  <advance width="496"/>
  <unicode hex="003e"/>
  <outline>
    <contour>
      <point x="48" y="427" type="line" smooth="no"/>
      <point x="202" y="363" type="line" smooth="no"/>
      <point x="287" y="329"/>
      <point x="357" y="300"/>
      <point x="359" y="299" type="curve" smooth="yes"/>
      <point x="360" y="299"/>
      <point x="290" y="269"/>
      <point x="204" y="234" type="curve" smooth="yes"/>
      <point x="47" y="169" type="line" smooth="no"/>
      <point x="47" y="131" type="line" smooth="yes"/>
      <point x="47" y="95"/>
      <point x="47" y="92"/>
      <point x="50" y="94" type="curve" smooth="yes"/>
      <point x="53" y="95"/>
      <point x="143" y="133"/>
      <point x="252" y="179" type="curve" smooth="yes"/>
      <point x="449" y="263" type="line" smooth="no"/>
      <point x="449" y="299" type="line" smooth="no"/>
      <point x="449" y="334" type="line" smooth="no"/>
      <point x="439" y="339" type="line" smooth="no"/>
      <point x="424" y="345"/>
      <point x="65" y="496"/>
      <point x="55" y="501" type="curve" smooth="no"/>
      <point x="46" y="504" type="line" smooth="no"/>
      <point x="47" y="465" type="line" smooth="no"/>
    </contour>
  </outline>
</glyph>
<glyph name="uni003F" format="1">
  <advance width="281"/>
  <unicode hex="003f"/>
  <outline>
    <contour>
      <point x="55" y="493" type="curve" smooth="yes"/>
      <point x="56" y="493"/>
      <point x="63" y="496"/>
      <point x="72" y="499" type="curve" smooth="yes"/>
      <point x="110" y="514"/>
      <point x="144" y="501"/>
      <point x="155" y="468" type="curve" smooth="yes"/>
      <point x="164" y="442"/>
      <point x="151" y="404"/>
      <point x="111" y="340" type="curve" smooth="yes"/>
      <point x="72" y="278"/>
      <point x="63" y="250"/>
      <point x="68" y="213" type="curve" smooth="yes"/>
      <point x="72" y="185"/>
      <point x="79" y="173"/>
      <point x="102" y="157" type="curve" smooth="yes"/>
      <point x="119" y="145"/>
      <point x="120" y="145"/>
      <point x="120" y="162" type="curve" smooth="yes"/>
      <point x="120" y="184"/>
      <point x="135" y="221"/>
      <point x="165" y="270" type="curve" smooth="yes"/>
      <point x="172" y="281"/>
      <point x="184" y="300"/>
      <point x="192" y="314" type="curve" smooth="yes"/>
      <point x="246" y="401"/>
      <point x="258" y="462"/>
      <point x="232" y="517" type="curve" smooth="yes"/>
      <point x="213" y="555"/>
      <point x="175" y="578"/>
      <point x="120" y="584" type="curve" smooth="no"/>
      <point x="108" y="586" type="line" smooth="no"/>
      <point x="82" y="543" type="line" smooth="yes"/>
      <point x="57" y="500"/>
      <point x="53" y="493"/>
    </contour>
    <contour>
      <point x="101" y="1" type="curve" smooth="yes"/>
      <point x="121" y="-12"/>
      <point x="154" y="-7"/>
      <point x="168" y="10" type="curve" smooth="yes"/>
      <point x="202" y="50"/>
      <point x="162" y="109"/>
      <point x="114" y="92" type="curve" smooth="yes"/>
      <point x="75" y="78"/>
      <point x="68" y="23"/>
    </contour>
  </outline>
</glyph>
<glyph name="uni0040" format="1">
  <advance width="848"/>
  <unicode hex="0040"/>
  <outline>
    <contour>
      <point x="184" y="521" type="curve" smooth="yes"/>
      <point x="50" y="400"/>
      <point x="5" y="180"/>
      <point x="84" y="23" type="curve" smooth="yes"/>
      <point x="133" y="-75"/>
      <point x="199" y="-125"/>
      <point x="320" y="-156" type="curve" smooth="yes"/>
      <point x="499" y="-201"/>
      <point x="667" y="-165"/>
      <point x="772" y="-60" type="curve" smooth="yes"/>
      <point x="795" y="-37"/>
      <point x="818" y="-8"/>
      <point x="822" y="3" type="curve" smooth="yes"/>
      <point x="825" y="10"/>
      <point x="750" y="9"/>
      <point x="746" y="2" type="curve" smooth="yes"/>
      <point x="732" y="-19"/>
      <point x="691" y="-52"/>
      <point x="654" y="-72" type="curve" smooth="yes"/>
      <point x="497" y="-155"/>
      <point x="242" y="-112"/>
      <point x="161" y="13" type="curve" smooth="yes"/>
      <point x="53" y="178"/>
      <point x="114" y="428"/>
      <point x="284" y="513" type="curve" smooth="yes"/>
      <point x="404" y="573"/>
      <point x="532" y="567"/>
      <point x="635" y="498" type="curve" smooth="yes"/>
      <point x="737" y="430"/>
      <point x="772" y="286"/>
      <point x="713" y="176" type="curve" smooth="yes"/>
      <point x="666" y="88"/>
      <point x="562" y="33"/>
      <point x="558" y="93" type="curve" smooth="yes"/>
      <point x="557" y="103"/>
      <point x="611" y="363"/>
      <point x="627" y="429" type="curve" smooth="yes"/>
      <point x="628" y="434"/>
      <point x="628" y="434"/>
      <point x="591" y="434" type="curve" smooth="yes"/>
      <point x="553" y="434" type="line" smooth="no"/>
      <point x="547" y="406" type="line" smooth="yes"/>
      <point x="544" y="390"/>
      <point x="541" y="376"/>
      <point x="540" y="375" type="curve" smooth="no"/>
      <point x="540" y="373"/>
      <point x="536" y="377"/>
      <point x="530" y="385" type="curve" smooth="yes"/>
      <point x="432" y="518"/>
      <point x="234" y="416"/>
      <point x="205" y="218" type="curve" smooth="yes"/>
      <point x="194" y="141"/>
      <point x="224" y="60"/>
      <point x="276" y="25" type="curve" smooth="yes"/>
      <point x="336" y="-15"/>
      <point x="403" y="-5"/>
      <point x="464" y="54" type="curve" smooth="no"/>
      <point x="477" y="67" type="line" smooth="no"/>
      <point x="479" y="56" type="line" smooth="no"/>
      <point x="482" y="32"/>
      <point x="495" y="14"/>
      <point x="513" y="7" type="curve" smooth="yes"/>
      <point x="566" y="-14"/>
      <point x="652" y="13"/>
      <point x="708" y="68" type="curve" smooth="yes"/>
      <point x="831" y="190"/>
      <point x="837" y="375"/>
      <point x="723" y="507" type="curve" smooth="yes"/>
      <point x="656" y="584"/>
      <point x="511" y="629"/>
      <point x="391" y="611" type="curve" smooth="yes"/>
      <point x="302" y="597"/>
      <point x="238" y="570"/>
    </contour>
    <contour>
      <point x="489" y="159" type="curve" smooth="yes"/>
      <point x="422" y="18"/>
      <point x="278" y="33"/>
      <point x="279" y="182" type="curve" smooth="yes"/>
      <point x="279" y="266"/>
      <point x="324" y="349"/>
      <point x="382" y="376" type="curve" smooth="yes"/>
      <point x="407" y="387"/>
      <point x="419" y="388"/>
      <point x="443" y="383" type="curve" smooth="yes"/>
      <point x="516" y="366"/>
      <point x="537" y="261"/>
    </contour>
  </outline>
</glyph>
<glyph name="uni0041" format="1">
  <advance width="565"/>
  <unicode hex="0041"/>
  <outline>
    <contour>
      <point x="120" y="283" type="curve" smooth="yes"/>
      <point x="54" y="129"/>
      <point x="0" y="2"/>
      <point x="0" y="1" type="curve" smooth="yes"/>
      <point x="0" y="1"/>
      <point x="20" y="0"/>
      <point x="43" y="0" type="curve" smooth="yes"/>
      <point x="87" y="0" type="line" smooth="no"/>
      <point x="123" y="85" type="line" smooth="no"/>
      <point x="159" y="170" type="line" smooth="no"/>
      <point x="280" y="170" type="line" smooth="no"/>
      <point x="402" y="170" type="line" smooth="no"/>
      <point x="439" y="86" type="line" smooth="no"/>
      <point x="477" y="2" type="line" smooth="no"/>
      <point x="521" y="1" type="line" smooth="no"/>
      <point x="565" y="0" type="line" smooth="no"/>
      <point x="539" y="58" type="line" smooth="no"/>
      <point x="410" y="347" type="line" smooth="no"/>
      <point x="308" y="579" type="line" smooth="no"/>
      <point x="277" y="579" type="line" smooth="yes"/>
      <point x="246" y="579"/>
      <point x="246" y="579"/>
      <point x="243" y="572" type="curve" smooth="yes"/>
      <point x="242" y="568"/>
      <point x="186" y="438"/>
    </contour>
    <contour>
      <point x="365" y="246" type="line" smooth="no"/>
      <point x="364" y="245"/>
      <point x="325" y="245"/>
      <point x="278" y="245" type="curve" smooth="yes"/>
      <point x="192" y="246" type="line" smooth="no"/>
      <point x="234" y="347" type="line" smooth="no"/>
      <point x="276" y="449" type="line" smooth="no"/>
      <point x="321" y="348" type="line" smooth="no"/>
    </contour>
  </outline>
</glyph>
<glyph name="uni0042" format="1">
  <advance width="477"/>
  <unicode hex="0042"/>
  <outline>
    <contour>
      <point x="64" y="0" type="line" smooth="no"/>
      <point x="186" y="1" type="line" smooth="yes"/>
      <point x="303" y="2"/>
      <point x="310" y="2"/>
      <point x="327" y="6" type="curve" smooth="yes"/>
      <point x="409" y="29"/>
      <point x="455" y="77"/>
      <point x="459" y="149" type="curve" smooth="yes"/>
      <point x="463" y="219"/>
      <point x="421" y="275"/>
      <point x="344" y="299" type="curve" smooth="no"/>
      <point x="326" y="305" type="line" smooth="no"/>
      <point x="341" y="314" type="line" smooth="no"/>
      <point x="431" y="364"/>
      <point x="432" y="490"/>
      <point x="344" y="548" type="curve" smooth="yes"/>
      <point x="309" y="571"/>
      <point x="286" y="575"/>
      <point x="162" y="576" type="curve" smooth="yes"/>
      <point x="64" y="577" type="line" smooth="no"/>
      <point x="64" y="289" type="line" smooth="no"/>
    </contour>
    <contour>
      <point x="313" y="382" type="curve" smooth="yes"/>
      <point x="296" y="345"/>
      <point x="267" y="333"/>
      <point x="192" y="331" type="curve" smooth="yes"/>
      <point x="150" y="330" type="line" smooth="no"/>
      <point x="150" y="416" type="line" smooth="no"/>
      <point x="150" y="503" type="line" smooth="no"/>
      <point x="196" y="501" type="line" smooth="no"/>
      <point x="229" y="501"/>
      <point x="247" y="499"/>
      <point x="256" y="497" type="curve" smooth="yes"/>
      <point x="311" y="482"/>
      <point x="336" y="431"/>
    </contour>
    <contour>
      <point x="347" y="222" type="curve" smooth="yes"/>
      <point x="396" y="175"/>
      <point x="367" y="92"/>
      <point x="297" y="79" type="curve" smooth="yes"/>
      <point x="289" y="78"/>
      <point x="253" y="76"/>
      <point x="216" y="76" type="curve" smooth="yes"/>
      <point x="150" y="75" type="line" smooth="no"/>
      <point x="150" y="165" type="line" smooth="no"/>
      <point x="150" y="256" type="line" smooth="no"/>
      <point x="186" y="256" type="line" smooth="yes"/>
      <point x="207" y="256"/>
      <point x="237" y="255"/>
      <point x="254" y="253" type="curve" smooth="yes"/>
      <point x="304" y="250"/>
      <point x="325" y="243"/>
    </contour>
  </outline>
</glyph>
<glyph name="uni0043" format="1">
  <advance width="597"/>
  <unicode hex="0043"/>
  <outline>
    <contour>
      <point x="75" y="424" type="curve" smooth="yes"/>
      <point x="7" y="288"/>
      <point x="43" y="135"/>
      <point x="163" y="47" type="curve" smooth="yes"/>
      <point x="251" y="-18"/>
      <point x="406" y="-24"/>
      <point x="538" y="32" type="curve" smooth="yes"/>
      <point x="559" y="41" type="line" smooth="no"/>
      <point x="559" y="88" type="line" smooth="yes"/>
      <point x="559" y="114"/>
      <point x="559" y="135"/>
      <point x="558" y="135" type="curve" smooth="yes"/>
      <point x="558" y="135"/>
      <point x="550" y="130"/>
      <point x="541" y="125" type="curve" smooth="yes"/>
      <point x="384" y="36"/>
      <point x="214" y="63"/>
      <point x="153" y="186" type="curve" smooth="yes"/>
      <point x="100" y="295"/>
      <point x="139" y="423"/>
      <point x="241" y="474" type="curve" smooth="yes"/>
      <point x="327" y="517"/>
      <point x="424" y="510"/>
      <point x="535" y="454" type="curve" smooth="yes"/>
      <point x="544" y="450"/>
      <point x="551" y="447"/>
      <point x="553" y="447" type="curve" smooth="yes"/>
      <point x="554" y="447"/>
      <point x="555" y="463"/>
      <point x="555" y="492" type="curve" smooth="yes"/>
      <point x="555" y="537" type="line" smooth="no"/>
      <point x="528" y="547" type="line" smooth="yes"/>
      <point x="445" y="577"/>
      <point x="375" y="588"/>
      <point x="312" y="581" type="curve" smooth="yes"/>
      <point x="212" y="570"/>
      <point x="117" y="507"/>
    </contour>
  </outline>
</glyph>
<glyph name="uni0044" format="1">
  <advance width="633"/>
  <unicode hex="0044"/>
  <outline>
    <contour>
      <point x="64" y="0" type="line" smooth="no"/>
      <point x="184" y="0" type="line" smooth="no"/>
      <point x="360" y="1"/>
      <point x="385" y="4"/>
      <point x="448" y="39" type="curve" smooth="yes"/>
      <point x="635" y="145"/>
      <point x="644" y="411"/>
      <point x="464" y="530" type="curve" smooth="yes"/>
      <point x="409" y="566"/>
      <point x="357" y="575"/>
      <point x="187" y="576" type="curve" smooth="yes"/>
      <point x="64" y="577" type="line" smooth="no"/>
      <point x="64" y="289" type="line" smooth="no"/>
    </contour>
    <contour>
      <point x="428" y="455" type="curve" smooth="yes"/>
      <point x="534" y="378"/>
      <point x="530" y="195"/>
      <point x="419" y="116" type="curve" smooth="yes"/>
      <point x="377" y="85"/>
      <point x="340" y="78"/>
      <point x="227" y="76" type="curve" smooth="yes"/>
      <point x="148" y="75" type="line" smooth="no"/>
      <point x="148" y="288" type="line" smooth="no"/>
      <point x="148" y="502" type="line" smooth="no"/>
      <point x="201" y="502" type="line" smooth="yes"/>
      <point x="231" y="502"/>
      <point x="271" y="501"/>
      <point x="292" y="500" type="curve" smooth="yes"/>
      <point x="354" y="497"/>
      <point x="386" y="486"/>
    </contour>
  </outline>
</glyph>
<glyph name="uni0045" format="1">
  <advance width="425"/>
  <unicode hex="0045"/>
  <outline>
    <contour>
      <point x="64" y="0" type="line" smooth="no"/>
      <point x="232" y="0" type="line" smooth="no"/>
      <point x="401" y="0" type="line" smooth="no"/>
      <point x="401" y="38" type="line" smooth="no"/>
      <point x="401" y="75" type="line" smooth="no"/>
      <point x="274" y="75" type="line" smooth="no"/>
      <point x="148" y="75" type="line" smooth="no"/>
      <point x="148" y="163" type="line" smooth="no"/>
      <point x="148" y="251" type="line" smooth="no"/>
      <point x="265" y="251" type="line" smooth="no"/>
      <point x="383" y="251" type="line" smooth="no"/>
      <point x="383" y="290" type="line" smooth="no"/>
      <point x="383" y="328" type="line" smooth="no"/>
      <point x="265" y="328" type="line" smooth="no"/>
      <point x="148" y="328" type="line" smooth="no"/>
      <point x="148" y="415" type="line" smooth="no"/>
      <point x="148" y="502" type="line" smooth="no"/>
      <point x="270" y="502" type="line" smooth="no"/>
      <point x="392" y="502" type="line" smooth="no"/>
      <point x="392" y="539" type="line" smooth="no"/>
      <point x="392" y="577" type="line" smooth="no"/>
      <point x="228" y="577" type="line" smooth="no"/>
      <point x="64" y="577" type="line" smooth="no"/>
      <point x="64" y="289" type="line" smooth="no"/>
    </contour>
  </outline>
</glyph>
<glyph name="uni0046" format="1">
  <advance width="397"/>
  <unicode hex="0046"/>
  <outline>
    <contour>
      <point x="64" y="0" type="line" smooth="no"/>
      <point x="106" y="0" type="line" smooth="no"/>
      <point x="148" y="0" type="line" smooth="no"/>
      <point x="148" y="134" type="line" smooth="no"/>
      <point x="148" y="267" type="line" smooth="no"/>
      <point x="260" y="267" type="line" smooth="no"/>
      <point x="372" y="267" type="line" smooth="no"/>
      <point x="372" y="305" type="line" smooth="no"/>
      <point x="372" y="344" type="line" smooth="no"/>
      <point x="260" y="344" type="line" smooth="no"/>
      <point x="148" y="344" type="line" smooth="no"/>
      <point x="148" y="423" type="line" smooth="no"/>
      <point x="148" y="502" type="line" smooth="no"/>
      <point x="260" y="502" type="line" smooth="no"/>
      <point x="372" y="502" type="line" smooth="no"/>
      <point x="372" y="539" type="line" smooth="no"/>
      <point x="372" y="577" type="line" smooth="no"/>
      <point x="218" y="577" type="line" smooth="no"/>
      <point x="64" y="577" type="line" smooth="no"/>
      <point x="64" y="289" type="line" smooth="no"/>
    </contour>
  </outline>
</glyph>
<glyph name="uni0047" format="1">
  <advance width="626"/>
  <unicode hex="0047"/>
  <outline>
    <contour>
      <point x="131" y="497" type="curve" smooth="no"/>
      <point x="84" y="453"/>
      <point x="52" y="381"/>
      <point x="44" y="304" type="curve" smooth="yes"/>
      <point x="35" y="212"/>
      <point x="87" y="100"/>
      <point x="161" y="50" type="curve" smooth="yes"/>
      <point x="261" y="-17"/>
      <point x="394" y="-24"/>
      <point x="545" y="29" type="curve" smooth="no"/>
      <point x="570" y="38" type="line" smooth="no"/>
      <point x="570" y="161" type="line" smooth="no"/>
      <point x="570" y="284" type="line" smooth="no"/>
      <point x="472" y="284" type="line" smooth="no"/>
      <point x="374" y="284" type="line" smooth="no"/>
      <point x="374" y="247" type="line" smooth="no"/>
      <point x="374" y="209" type="line" smooth="no"/>
      <point x="429" y="209" type="line" smooth="no"/>
      <point x="484" y="209" type="line" smooth="no"/>
      <point x="484" y="150" type="line" smooth="no"/>
      <point x="484" y="91" type="line" smooth="no"/>
      <point x="460" y="84" type="line" smooth="yes"/>
      <point x="361" y="56"/>
      <point x="285" y="64"/>
      <point x="215" y="113" type="curve" smooth="yes"/>
      <point x="143" y="164"/>
      <point x="112" y="270"/>
      <point x="144" y="361" type="curve" smooth="yes"/>
      <point x="173" y="441"/>
      <point x="233" y="490"/>
      <point x="323" y="505" type="curve" smooth="yes"/>
      <point x="377" y="515"/>
      <point x="463" y="496"/>
      <point x="539" y="458" type="curve" smooth="yes"/>
      <point x="557" y="449" type="line" smooth="yes"/>
      <point x="558" y="449"/>
      <point x="558" y="469"/>
      <point x="558" y="492" type="curve" smooth="yes"/>
      <point x="557" y="536" type="line" smooth="no"/>
      <point x="523" y="549" type="line" smooth="yes"/>
      <point x="443" y="579"/>
      <point x="381" y="589"/>
      <point x="315" y="581" type="curve" smooth="yes"/>
      <point x="251" y="574"/>
      <point x="175" y="540"/>
    </contour>
  </outline>
</glyph>
<glyph name="uni0048" format="1">
  <advance width="615"/>
  <unicode hex="0048"/>
  <outline>
    <contour>
      <point x="63" y="0" type="line" smooth="no"/>
      <point x="105" y="0" type="line" smooth="no"/>
      <point x="147" y="0" type="line" smooth="no"/>
      <point x="147" y="125" type="line" smooth="no"/>
      <point x="147" y="249" type="line" smooth="no"/>
      <point x="308" y="249" type="line" smooth="no"/>
      <point x="468" y="249" type="line" smooth="no"/>
      <point x="468" y="125" type="line" smooth="no"/>
      <point x="468" y="0" type="line" smooth="no"/>
      <point x="510" y="0" type="line" smooth="no"/>
      <point x="552" y="0" type="line" smooth="no"/>
      <point x="552" y="289" type="line" smooth="no"/>
      <point x="552" y="577" type="line" smooth="no"/>
      <point x="510" y="577" type="line" smooth="no"/>
      <point x="468" y="577" type="line" smooth="no"/>
      <point x="468" y="453" type="line" smooth="no"/>
      <point x="468" y="328" type="line" smooth="no"/>
      <point x="308" y="328" type="line" smooth="no"/>
      <point x="147" y="328" type="line" smooth="no"/>
      <point x="147" y="453" type="line" smooth="no"/>
      <point x="147" y="577" type="line" smooth="no"/>
      <point x="105" y="577" type="line" smooth="no"/>
      <point x="63" y="577" type="line" smooth="no"/>
      <point x="63" y="289" type="line" smooth="no"/>
    </contour>
  </outline>
</glyph>
<glyph name="uni0049" format="1">
  <advance width="214"/>
  <unicode hex="0049"/>
  <outline>
    <contour>
      <point x="65" y="0" type="line" smooth="no"/>
      <point x="107" y="0" type="line" smooth="no"/>
      <point x="149" y="0" type="line" smooth="no"/>
      <point x="149" y="289" type="line" smooth="no"/>
      <point x="149" y="577" type="line" smooth="no"/>
      <point x="107" y="577" type="line" smooth="no"/>
      <point x="65" y="577" type="line" smooth="no"/>
      <point x="65" y="289" type="line" smooth="no"/>
    </contour>
  </outline>
</glyph>
<glyph name="uni004A" format="1">
  <advance width="213"/>
  <unicode hex="004a"/>
  <outline>
    <contour>
      <point x="50" y="-77" type="curve" smooth="yes"/>
      <point x="37" y="-102"/>
      <point x="8" y="-114"/>
      <point x="-40" y="-114" type="curve" smooth="yes"/>
      <point x="-47" y="-114"/>
      <point x="-52" y="-115"/>
      <point x="-52" y="-116" type="curve" smooth="yes"/>
      <point x="-52" y="-117"/>
      <point x="-49" y="-134"/>
      <point x="-45" y="-155" type="curve" smooth="yes"/>
      <point x="-38" y="-193" type="line" smooth="no"/>
      <point x="-23" y="-194" type="line" smooth="no"/>
      <point x="51" y="-200"/>
      <point x="118" y="-159"/>
      <point x="136" y="-96" type="curve" smooth="yes"/>
      <point x="147" y="-59"/>
      <point x="147" y="-56"/>
      <point x="148" y="270" type="curve" smooth="no"/>
      <point x="148" y="577" type="line" smooth="no"/>
      <point x="105" y="577" type="line" smooth="no"/>
      <point x="63" y="577" type="line" smooth="no"/>
      <point x="62" y="268" type="line" smooth="yes"/>
      <point x="61" y="-62"/>
      <point x="61" y="-55"/>
    </contour>
  </outline>
</glyph>
<glyph name="uni004B" format="1">
  <advance width="558"/>
  <unicode hex="004b"/>
  <outline>
    <contour>
      <point x="65" y="0" type="line" smooth="no"/>
      <point x="108" y="0" type="line" smooth="no"/>
      <point x="151" y="0" type="line" smooth="no"/>
      <point x="151" y="140" type="line" smooth="no"/>
      <point x="152" y="280" type="line" smooth="no"/>
      <point x="296" y="140" type="line" smooth="no"/>
      <point x="441" y="0" type="line" smooth="no"/>
      <point x="500" y="0" type="line" smooth="no"/>
      <point x="559" y="0" type="line" smooth="no"/>
      <point x="548" y="11" type="line" smooth="no"/>
      <point x="410" y="144" type="line" smooth="no"/>
      <point x="341" y="212"/>
      <point x="276" y="275"/>
      <point x="265" y="285" type="curve" smooth="yes"/>
      <point x="247" y="303" type="line" smooth="no"/>
      <point x="370" y="438" type="line" smooth="yes"/>
      <point x="438" y="512"/>
      <point x="494" y="573"/>
      <point x="495" y="574" type="curve" smooth="yes"/>
      <point x="496" y="576"/>
      <point x="480" y="577"/>
      <point x="443" y="577" type="curve" smooth="yes"/>
      <point x="391" y="577" type="line" smooth="no"/>
      <point x="271" y="447" type="line" smooth="no"/>
      <point x="152" y="317" type="line" smooth="no"/>
      <point x="151" y="447" type="line" smooth="no"/>
      <point x="151" y="577" type="line" smooth="no"/>
      <point x="108" y="577" type="line" smooth="no"/>
      <point x="65" y="577" type="line" smooth="no"/>
      <point x="65" y="289" type="line" smooth="no"/>
    </contour>
  </outline>
</glyph>
<glyph name="uni004C" format="1">
  <advance width="415"/>
  <unicode hex="004c"/>
  <outline>
    <contour>
      <point x="64" y="0" type="line" smooth="no"/>
      <point x="235" y="0" type="line" smooth="no"/>
      <point x="407" y="0" type="line" smooth="no"/>
      <point x="407" y="39" type="line" smooth="no"/>
      <point x="407" y="77" type="line" smooth="no"/>
      <point x="278" y="77" type="line" smooth="no"/>
      <point x="150" y="77" type="line" smooth="no"/>
      <point x="150" y="327" type="line" smooth="no"/>
      <point x="150" y="577" type="line" smooth="no"/>
      <point x="107" y="577" type="line" smooth="no"/>
      <point x="64" y="577" type="line" smooth="no"/>
      <point x="64" y="289" type="line" smooth="no"/>
    </contour>
  </outline>
</glyph>
<glyph name="uni004D" format="1">
  <advance width="661"/>
  <unicode hex="004d"/>
  <outline>
    <contour>
      <point x="62" y="0" type="line" smooth="no"/>
      <point x="104" y="0" type="line" smooth="no"/>
      <point x="146" y="0" type="line" smooth="no"/>
      <point x="146" y="222" type="line" smooth="no"/>
      <point x="147" y="443" type="line" smooth="no"/>
      <point x="235" y="334" type="line" smooth="yes"/>
      <point x="323" y="225"/>
      <point x="323" y="225"/>
      <point x="332" y="225" type="curve" smooth="yes"/>
      <point x="340" y="225"/>
      <point x="340" y="225"/>
      <point x="427" y="334" type="curve" smooth="yes"/>
      <point x="514" y="443" type="line" smooth="no"/>
      <point x="515" y="222" type="line" smooth="no"/>
      <point x="515" y="0" type="line" smooth="no"/>
      <point x="558" y="0" type="line" smooth="no"/>
      <point x="601" y="0" type="line" smooth="no"/>
      <point x="601" y="289" type="line" smooth="no"/>
      <point x="601" y="577" type="line" smooth="no"/>
      <point x="561" y="577" type="line" smooth="no"/>
      <point x="521" y="577" type="line" smooth="no"/>
      <point x="426" y="459" type="line" smooth="yes"/>
      <point x="333" y="343"/>
      <point x="332" y="341"/>
      <point x="328" y="346" type="curve" smooth="yes"/>
      <point x="326" y="349"/>
      <point x="283" y="402"/>
      <point x="233" y="464" type="curve" smooth="yes"/>
      <point x="142" y="576" type="line" smooth="no"/>
      <point x="102" y="576" type="line" smooth="no"/>
      <point x="62" y="577" type="line" smooth="no"/>
      <point x="62" y="289" type="line" smooth="no"/>
    </contour>
  </outline>
</glyph>
<glyph name="uni004E" format="1">
  <advance width="660"/>
  <unicode hex="004e"/>
  <outline>
    <contour>
      <point x="66" y="0" type="line" smooth="no"/>
      <point x="106" y="0" type="line" smooth="no"/>
      <point x="145" y="0" type="line" smooth="no"/>
      <point x="146" y="219" type="line" smooth="no"/>
      <point x="146" y="438" type="line" smooth="no"/>
      <point x="336" y="219" type="line" smooth="no"/>
      <point x="526" y="0" type="line" smooth="no"/>
      <point x="563" y="0" type="line" smooth="no"/>
      <point x="601" y="0" type="line" smooth="no"/>
      <point x="601" y="289" type="line" smooth="no"/>
      <point x="601" y="577" type="line" smooth="no"/>
      <point x="560" y="577" type="line" smooth="no"/>
      <point x="519" y="577" type="line" smooth="no"/>
      <point x="519" y="356" type="line" smooth="no"/>
      <point x="518" y="135" type="line" smooth="no"/>
      <point x="326" y="356" type="line" smooth="no"/>
      <point x="134" y="577" type="line" smooth="no"/>
      <point x="100" y="577" type="line" smooth="no"/>
      <point x="66" y="577" type="line" smooth="no"/>
      <point x="66" y="289" type="line" smooth="no"/>
    </contour>
  </outline>
</glyph>
<glyph name="uni004F" format="1">
  <advance width="693"/>
  <unicode hex="004f"/>
  <outline>
    <contour>
      <point x="95" y="467" type="curve" smooth="yes"/>
      <point x="-11" y="320"/>
      <point x="35" y="108"/>
      <point x="189" y="31" type="curve" smooth="yes"/>
      <point x="316" y="-33"/>
      <point x="484" y="-9"/>
      <point x="577" y="85" type="curve" smooth="yes"/>
      <point x="680" y="190"/>
      <point x="683" y="364"/>
      <point x="583" y="484" type="curve" smooth="yes"/>
      <point x="530" y="549"/>
      <point x="414" y="592"/>
      <point x="318" y="583" type="curve" smooth="yes"/>
      <point x="227" y="575"/>
      <point x="140" y="529"/>
    </contour>
    <contour>
      <point x="568" y="316" type="curve" smooth="yes"/>
      <point x="579" y="252"/>
      <point x="548" y="170"/>
      <point x="496" y="125" type="curve" smooth="yes"/>
      <point x="393" y="38"/>
      <point x="223" y="62"/>
      <point x="157" y="173" type="curve" smooth="yes"/>
      <point x="111" y="250"/>
      <point x="116" y="346"/>
      <point x="170" y="421" type="curve" smooth="yes"/>
      <point x="216" y="485"/>
      <point x="320" y="519"/>
      <point x="404" y="496" type="curve" smooth="no"/>
      <point x="496" y="472"/>
      <point x="551" y="411"/>
    </contour>
  </outline>
</glyph>
<glyph name="uni0050" format="1">
  <advance width="432"/>
  <unicode hex="0050"/>
  <outline>
    <contour>
      <point x="59" y="0" type="line" smooth="no"/>
      <point x="102" y="0" type="line" smooth="no"/>
      <point x="145" y="0" type="line" smooth="no"/>
      <point x="145" y="125" type="line" smooth="no"/>
      <point x="145" y="249" type="line" smooth="no"/>
      <point x="188" y="249" type="line" smooth="yes"/>
      <point x="297" y="249"/>
      <point x="345" y="263"/>
      <point x="385" y="305" type="curve" smooth="yes"/>
      <point x="450" y="375"/>
      <point x="431" y="506"/>
      <point x="349" y="551" type="curve" smooth="yes"/>
      <point x="308" y="574"/>
      <point x="287" y="577"/>
      <point x="161" y="577" type="curve" smooth="yes"/>
      <point x="59" y="577" type="line" smooth="no"/>
      <point x="59" y="289" type="line" smooth="no"/>
    </contour>
    <contour>
      <point x="329" y="447" type="curve" smooth="no"/>
      <point x="339" y="428"/>
      <point x="338" y="395"/>
      <point x="328" y="374" type="curve" smooth="yes"/>
      <point x="309" y="335"/>
      <point x="286" y="326"/>
      <point x="201" y="324" type="curve" smooth="yes"/>
      <point x="145" y="323" type="line" smooth="no"/>
      <point x="145" y="413" type="line" smooth="no"/>
      <point x="145" y="502" type="line" smooth="no"/>
      <point x="195" y="502" type="line" smooth="yes"/>
      <point x="231" y="502"/>
      <point x="250" y="501"/>
      <point x="260" y="499" type="curve" smooth="yes"/>
      <point x="292" y="492"/>
      <point x="316" y="475"/>
    </contour>
  </outline>
</glyph>
<glyph name="uni0051" format="1">
  <advance width="692"/>
  <unicode hex="0051"/>
  <outline>
    <contour>
      <point x="91" y="462" type="curve" smooth="yes"/>
      <point x="20" y="356"/>
      <point x="19" y="228"/>
      <point x="87" y="122" type="curve" smooth="yes"/>
      <point x="122" y="68"/>
      <point x="191" y="21"/>
      <point x="262" y="3" type="curve" smooth="yes"/>
      <point x="274" y="0"/>
      <point x="284" y="-5"/>
      <point x="308" y="-21" type="curve" smooth="yes"/>
      <point x="397" y="-80"/>
      <point x="477" y="-111"/>
      <point x="545" y="-115" type="curve" smooth="yes"/>
      <point x="563" y="-116" type="line" smooth="no"/>
      <point x="603" y="-77" type="line" smooth="yes"/>
      <point x="626" y="-55"/>
      <point x="644" y="-37"/>
      <point x="643" y="-36" type="curve" smooth="yes"/>
      <point x="642" y="-36"/>
      <point x="634" y="-37"/>
      <point x="625" y="-39" type="curve" smooth="yes"/>
      <point x="589" y="-49"/>
      <point x="569" y="-47"/>
      <point x="511" y="-30" type="curve" smooth="yes"/>
      <point x="473" y="-19"/>
      <point x="421" y="0"/>
      <point x="425" y="1" type="curve" smooth="yes"/>
      <point x="427" y="2"/>
      <point x="434" y="4"/>
      <point x="442" y="6" type="curve" smooth="yes"/>
      <point x="499" y="21"/>
      <point x="567" y="68"/>
      <point x="600" y="115" type="curve" smooth="yes"/>
      <point x="666" y="209"/>
      <point x="674" y="332"/>
      <point x="620" y="431" type="curve" smooth="yes"/>
      <point x="581" y="501"/>
      <point x="533" y="540"/>
      <point x="456" y="566" type="curve" smooth="yes"/>
      <point x="424" y="576"/>
      <point x="365" y="587"/>
      <point x="345" y="585" type="curve" smooth="yes"/>
      <point x="343" y="585"/>
      <point x="331" y="584"/>
      <point x="319" y="583" type="curve" smooth="yes"/>
      <point x="227" y="576"/>
      <point x="134" y="526"/>
    </contour>
    <contour>
      <point x="569" y="287" type="curve" smooth="yes"/>
      <point x="569" y="137"/>
      <point x="414" y="33"/>
      <point x="268" y="85" type="curve" smooth="yes"/>
      <point x="188" y="114"/>
      <point x="142" y="170"/>
      <point x="127" y="256" type="curve" smooth="yes"/>
      <point x="115" y="324"/>
      <point x="146" y="407"/>
      <point x="199" y="452" type="curve" smooth="yes"/>
      <point x="248" y="494"/>
      <point x="331" y="513"/>
      <point x="396" y="499" type="curve" smooth="no"/>
      <point x="502" y="474"/>
      <point x="569" y="392"/>
    </contour>
  </outline>
</glyph>
<glyph name="uni0052" format="1">
  <advance width="510"/>
  <unicode hex="0052"/>
  <outline>
    <contour>
      <point x="66" y="0" type="line" smooth="no"/>
      <point x="108" y="0" type="line" smooth="no"/>
      <point x="150" y="0" type="line" smooth="no"/>
      <point x="150" y="125" type="line" smooth="no"/>
      <point x="150" y="249" type="line" smooth="no"/>
      <point x="172" y="249" type="line" smooth="yes"/>
      <point x="236" y="249"/>
      <point x="272" y="219"/>
      <point x="339" y="110" type="curve" smooth="no"/>
      <point x="389" y="31" type="line" smooth="no"/>
      <point x="410" y="1" type="line" smooth="no"/>
      <point x="460" y="0" type="line" smooth="yes"/>
      <point x="488" y="0"/>
      <point x="510" y="1"/>
      <point x="510" y="1" type="curve" smooth="yes"/>
      <point x="510" y="2"/>
      <point x="502" y="14"/>
      <point x="492" y="28" type="curve" smooth="yes"/>
      <point x="474" y="52"/>
      <point x="459" y="75"/>
      <point x="419" y="139" type="curve" smooth="yes"/>
      <point x="379" y="202"/>
      <point x="345" y="245"/>
      <point x="317" y="266" type="curve" smooth="yes"/>
      <point x="306" y="274"/>
      <point x="306" y="273"/>
      <point x="318" y="280" type="curve" smooth="no"/>
      <point x="431" y="334"/>
      <point x="428" y="505"/>
      <point x="314" y="555" type="curve" smooth="yes"/>
      <point x="272" y="573"/>
      <point x="246" y="577"/>
      <point x="146" y="577" type="curve" smooth="yes"/>
      <point x="66" y="577" type="line" smooth="no"/>
      <point x="66" y="289" type="line" smooth="no"/>
    </contour>
    <contour>
      <point x="290" y="475" type="curve" smooth="yes"/>
      <point x="322" y="444"/>
      <point x="322" y="386"/>
      <point x="290" y="355" type="curve" smooth="no"/>
      <point x="268" y="332"/>
      <point x="254" y="328"/>
      <point x="193" y="327" type="curve" smooth="no"/>
      <point x="150" y="325" type="line" smooth="no"/>
      <point x="150" y="415" type="line" smooth="no"/>
      <point x="150" y="504" type="line" smooth="no"/>
      <point x="179" y="504" type="line" smooth="yes"/>
      <point x="195" y="504"/>
      <point x="218" y="503"/>
      <point x="231" y="501" type="curve" smooth="yes"/>
      <point x="259" y="497"/>
      <point x="276" y="489"/>
    </contour>
  </outline>
</glyph>
<glyph name="uni0053" format="1">
  <advance width="387"/>
  <unicode hex="0053"/>
  <outline>
    <contour>
      <point x="35" y="438" type="curve" smooth="yes"/>
      <point x="30" y="370"/>
      <point x="64" y="326"/>
      <point x="169" y="263" type="curve" smooth="yes"/>
      <point x="265" y="205"/>
      <point x="297" y="159"/>
      <point x="274" y="113" type="curve" smooth="yes"/>
      <point x="239" y="46"/>
      <point x="139" y="55"/>
      <point x="58" y="133" type="curve" smooth="yes"/>
      <point x="37" y="153" type="line" smooth="no"/>
      <point x="37" y="99" type="line" smooth="no"/>
      <point x="37" y="45" type="line" smooth="no"/>
      <point x="53" y="35" type="line" smooth="yes"/>
      <point x="168" y="-37"/>
      <point x="308" y="-12"/>
      <point x="348" y="87" type="curve" smooth="yes"/>
      <point x="383" y="176"/>
      <point x="343" y="258"/>
      <point x="231" y="324" type="curve" smooth="yes"/>
      <point x="180" y="355"/>
      <point x="159" y="369"/>
      <point x="144" y="383" type="curve" smooth="yes"/>
      <point x="61" y="459"/>
      <point x="157" y="542"/>
      <point x="270" y="491" type="curve" smooth="yes"/>
      <point x="287" y="484"/>
      <point x="312" y="468"/>
      <point x="326" y="457" type="curve" smooth="yes"/>
      <point x="331" y="453"/>
      <point x="336" y="449"/>
      <point x="337" y="449" type="curve" smooth="yes"/>
      <point x="338" y="449"/>
      <point x="338" y="471"/>
      <point x="338" y="497" type="curve" smooth="yes"/>
      <point x="337" y="545" type="line" smooth="no"/>
      <point x="326" y="551" type="line" smooth="no"/>
      <point x="281" y="578"/>
      <point x="208" y="590"/>
      <point x="161" y="579" type="curve" smooth="yes"/>
      <point x="84" y="561"/>
      <point x="40" y="512"/>
    </contour>
  </outline>
</glyph>
<glyph name="uni0054" format="1">
  <advance width="513"/>
  <unicode hex="0054"/>
  <outline>
    <contour>
      <point x="15" y="502" type="line" smooth="no"/>
      <point x="114" y="502" type="line" smooth="no"/>
      <point x="213" y="502" type="line" smooth="no"/>
      <point x="213" y="251" type="line" smooth="no"/>
      <point x="213" y="0" type="line" smooth="no"/>
      <point x="255" y="0" type="line" smooth="no"/>
      <point x="298" y="0" type="line" smooth="no"/>
      <point x="298" y="251" type="line" smooth="no"/>
      <point x="298" y="502" type="line" smooth="no"/>
      <point x="398" y="502" type="line" smooth="no"/>
      <point x="499" y="502" type="line" smooth="no"/>
      <point x="499" y="539" type="line" smooth="no"/>
      <point x="499" y="577" type="line" smooth="no"/>
      <point x="257" y="577" type="line" smooth="no"/>
      <point x="15" y="577" type="line" smooth="no"/>
      <point x="15" y="539" type="line" smooth="no"/>
    </contour>
  </outline>
</glyph>
<glyph name="uni0055" format="1">
  <advance width="600"/>
  <unicode hex="0055"/>
  <outline>
    <contour>
      <point x="73" y="116" type="curve" smooth="yes"/>
      <point x="106" y="40"/>
      <point x="192" y="-6"/>
      <point x="303" y="-6" type="curve" smooth="yes"/>
      <point x="420" y="-6"/>
      <point x="511" y="51"/>
      <point x="538" y="142" type="curve" smooth="yes"/>
      <point x="547" y="173"/>
      <point x="548" y="180"/>
      <point x="549" y="382" type="curve" smooth="yes"/>
      <point x="550" y="577" type="line" smooth="no"/>
      <point x="508" y="577" type="line" smooth="no"/>
      <point x="466" y="577" type="line" smooth="no"/>
      <point x="465" y="391" type="line" smooth="yes"/>
      <point x="464" y="166"/>
      <point x="463" y="158"/>
      <point x="436" y="124" type="curve" smooth="no"/>
      <point x="376" y="52"/>
      <point x="235" y="49"/>
      <point x="171" y="118" type="curve" smooth="no"/>
      <point x="140" y="153"/>
      <point x="138" y="167"/>
      <point x="138" y="400" type="curve" smooth="yes"/>
      <point x="138" y="577" type="line" smooth="no"/>
      <point x="95" y="577" type="line" smooth="no"/>
      <point x="52" y="577" type="line" smooth="no"/>
      <point x="53" y="386" type="line" smooth="yes"/>
      <point x="54" y="165"/>
      <point x="54" y="160"/>
    </contour>
  </outline>
</glyph>
<glyph name="uni0056" format="1">
  <advance width="509"/>
  <unicode hex="0056"/>
  <outline>
    <contour>
      <point x="124" y="283" type="curve" smooth="yes"/>
      <point x="247" y="-3" type="line" smooth="no"/>
      <point x="257" y="-4" type="line" smooth="yes"/>
      <point x="264" y="-4"/>
      <point x="267" y="-3"/>
      <point x="268" y="-1" type="curve" smooth="yes"/>
      <point x="269" y="0"/>
      <point x="323" y="130"/>
      <point x="389" y="287" type="curve" smooth="yes"/>
      <point x="456" y="444"/>
      <point x="510" y="574"/>
      <point x="510" y="575" type="curve" smooth="yes"/>
      <point x="510" y="576"/>
      <point x="492" y="577"/>
      <point x="468" y="577" type="curve" smooth="yes"/>
      <point x="427" y="577" type="line" smooth="no"/>
      <point x="344" y="382" type="line" smooth="yes"/>
      <point x="298" y="274"/>
      <point x="259" y="184"/>
      <point x="258" y="181" type="curve" smooth="yes"/>
      <point x="256" y="177"/>
      <point x="246" y="197"/>
      <point x="170" y="376" type="curve" smooth="yes"/>
      <point x="84" y="577" type="line" smooth="no"/>
      <point x="41" y="577" type="line" smooth="yes"/>
      <point x="2" y="577"/>
      <point x="-1" y="577"/>
      <point x="0" y="573" type="curve" smooth="yes"/>
      <point x="1" y="571"/>
      <point x="57" y="440"/>
    </contour>
  </outline>
</glyph>
<glyph name="uni0057" format="1">
  <advance width="823"/>
  <unicode hex="0057"/>
  <outline>
    <contour>
      <point x="115" y="286" type="line" smooth="no"/>
      <point x="230" y="-1" type="line" smooth="no"/>
      <point x="240" y="-1" type="line" smooth="no"/>
      <point x="250" y="-1" type="line" smooth="no"/>
      <point x="342" y="227" type="line" smooth="yes"/>
      <point x="393" y="352"/>
      <point x="435" y="457"/>
      <point x="437" y="460" type="curve" smooth="yes"/>
      <point x="439" y="464"/>
      <point x="454" y="427"/>
      <point x="532" y="232" type="curve" smooth="yes"/>
      <point x="626" y="-1" type="line" smooth="no"/>
      <point x="636" y="-1" type="line" smooth="no"/>
      <point x="645" y="-1" type="line" smooth="no"/>
      <point x="734" y="219" type="line" smooth="no"/>
      <point x="823" y="439" type="line" smooth="no"/>
      <point x="823" y="507" type="line" smooth="no"/>
      <point x="823" y="575" type="line" smooth="no"/>
      <point x="809" y="575" type="line" smooth="no"/>
      <point x="795" y="575" type="line" smooth="no"/>
      <point x="762" y="492" type="line" smooth="no"/>
      <point x="684" y="295" type="line" smooth="yes"/>
      <point x="659" y="232"/>
      <point x="638" y="182"/>
      <point x="638" y="183" type="curve" smooth="no"/>
      <point x="637" y="183"/>
      <point x="601" y="272"/>
      <point x="558" y="379" type="curve" smooth="yes"/>
      <point x="479" y="575" type="line" smooth="no"/>
      <point x="439" y="575" type="line" smooth="no"/>
      <point x="399" y="575" type="line" smooth="no"/>
      <point x="321" y="380" type="line" smooth="yes"/>
      <point x="279" y="274"/>
      <point x="243" y="185"/>
      <point x="242" y="183" type="curve" smooth="yes"/>
      <point x="241" y="182"/>
      <point x="208" y="262"/>
      <point x="162" y="377" type="curve" smooth="yes"/>
      <point x="83" y="575" type="line" smooth="no"/>
      <point x="41" y="575" type="line" smooth="yes"/>
      <point x="19" y="575"/>
      <point x="0" y="574"/>
      <point x="0" y="574" type="curve" smooth="no"/>
    </contour>
  </outline>
</glyph>
<glyph name="uni0058" format="1">
  <advance width="740"/>
  <unicode hex="0058"/>
  <outline>
    <contour>
      <point x="272" y="440" type="curve" smooth="yes"/>
      <point x="332" y="367"/>
      <point x="383" y="305"/>
      <point x="385" y="303" type="curve" smooth="yes"/>
      <point x="389" y="298"/>
      <point x="387" y="295"/>
      <point x="266" y="150" type="curve" smooth="yes"/>
      <point x="198" y="69"/>
      <point x="143" y="2"/>
      <point x="143" y="1" type="curve" smooth="yes"/>
      <point x="143" y="1"/>
      <point x="166" y="0"/>
      <point x="194" y="0" type="curve" smooth="yes"/>
      <point x="246" y="0" type="line" smooth="no"/>
      <point x="344" y="118" type="line" smooth="no"/>
      <point x="442" y="236" type="line" smooth="no"/>
      <point x="457" y="218" type="line" smooth="no"/>
      <point x="553" y="101" type="line" smooth="yes"/>
      <point x="598" y="47"/>
      <point x="635" y="2"/>
      <point x="637" y="1" type="curve" smooth="no"/>
      <point x="689" y="1" type="line" smooth="no"/>
      <point x="738" y="2" type="line" smooth="no"/>
      <point x="617" y="148" type="line" smooth="yes"/>
      <point x="551" y="228"/>
      <point x="496" y="295"/>
      <point x="496" y="297" type="curve" smooth="no"/>
      <point x="495" y="298"/>
      <point x="546" y="361"/>
      <point x="608" y="436" type="curve" smooth="yes"/>
      <point x="670" y="512"/>
      <point x="721" y="574"/>
      <point x="721" y="575" type="curve" smooth="yes"/>
      <point x="721" y="576"/>
      <point x="699" y="577"/>
      <point x="671" y="577" type="curve" smooth="yes"/>
      <point x="620" y="577" type="line" smooth="no"/>
      <point x="532" y="469" type="line" smooth="yes"/>
      <point x="484" y="410"/>
      <point x="443" y="361"/>
      <point x="442" y="360" type="curve" smooth="no"/>
      <point x="352" y="468" type="line" smooth="no"/>
      <point x="263" y="577" type="line" smooth="no"/>
      <point x="211" y="577" type="line" smooth="yes"/>
      <point x="179" y="577"/>
      <point x="160" y="576"/>
      <point x="161" y="575" type="curve" smooth="yes"/>
      <point x="161" y="574"/>
      <point x="211" y="513"/>
    </contour>
    <contour>
      <point x="4" y="446" type="curve" smooth="yes"/>
      <point x="21" y="488"/>
      <point x="55" y="571"/>
      <point x="55" y="573" type="curve" smooth="yes"/>
      <point x="55" y="574"/>
      <point x="43" y="575"/>
      <point x="28" y="575" type="curve" smooth="yes"/>
      <point x="2" y="575" type="line" smooth="no"/>
      <point x="2" y="508" type="line" smooth="yes"/>
      <point x="2" y="471"/>
      <point x="3" y="443"/>
    </contour>
  </outline>
</glyph>
<glyph name="uni0059" format="1">
  <advance width="510"/>
  <unicode hex="0059"/>
  <outline>
    <contour>
      <point x="107" y="439" type="curve" smooth="no"/>
      <point x="213" y="303" type="line" smooth="no"/>
      <point x="213" y="152" type="line" smooth="no"/>
      <point x="213" y="0" type="line" smooth="no"/>
      <point x="256" y="0" type="line" smooth="no"/>
      <point x="299" y="0" type="line" smooth="no"/>
      <point x="299" y="152" type="line" smooth="no"/>
      <point x="299" y="304" type="line" smooth="no"/>
      <point x="405" y="439" type="line" smooth="yes"/>
      <point x="463" y="513"/>
      <point x="510" y="574"/>
      <point x="510" y="575" type="curve" smooth="yes"/>
      <point x="510" y="576"/>
      <point x="487" y="577"/>
      <point x="459" y="576" type="curve" smooth="no"/>
      <point x="409" y="576" type="line" smooth="no"/>
      <point x="332" y="478" type="line" smooth="yes"/>
      <point x="291" y="425"/>
      <point x="256" y="381"/>
      <point x="255" y="381" type="curve" smooth="yes"/>
      <point x="254" y="381"/>
      <point x="220" y="425"/>
      <point x="178" y="479" type="curve" smooth="yes"/>
      <point x="102" y="577" type="line" smooth="no"/>
      <point x="51" y="577" type="line" smooth="yes"/>
      <point x="23" y="577"/>
      <point x="0" y="576"/>
      <point x="0" y="576" type="curve" smooth="yes"/>
      <point x="0" y="575"/>
      <point x="48" y="513"/>
    </contour>
  </outline>
</glyph>
<glyph name="uni005A" format="1">
  <advance width="547"/>
  <unicode hex="005a"/>
  <outline>
    <contour>
      <point x="32" y="502" type="line" smooth="no"/>
      <point x="204" y="501" type="line" smooth="no"/>
      <point x="376" y="501" type="line" smooth="no"/>
      <point x="193" y="252" type="line" smooth="no"/>
      <point x="93" y="114"/>
      <point x="10" y="2"/>
      <point x="10" y="1" type="curve" smooth="yes"/>
      <point x="10" y="1"/>
      <point x="128" y="0"/>
      <point x="271" y="0" type="curve" smooth="yes"/>
      <point x="532" y="0" type="line" smooth="no"/>
      <point x="532" y="38" type="line" smooth="no"/>
      <point x="532" y="75" type="line" smooth="no"/>
      <point x="349" y="76" type="line" smooth="no"/>
      <point x="166" y="76" type="line" smooth="no"/>
      <point x="347" y="324" type="line" smooth="yes"/>
      <point x="446" y="460"/>
      <point x="529" y="573"/>
      <point x="530" y="574" type="curve" smooth="yes"/>
      <point x="532" y="576"/>
      <point x="482" y="577"/>
      <point x="282" y="577" type="curve" smooth="yes"/>
      <point x="32" y="577" type="line" smooth="no"/>
      <point x="32" y="539" type="line" smooth="no"/>
    </contour>
  </outline>
</glyph>
<glyph name="uni005B" format="1">
  <advance width="283"/>
  <unicode hex="005b"/>
  <outline>
    <contour>
      <point x="73" y="-187" type="line" smooth="no"/>
      <point x="172" y="-187" type="line" smooth="no"/>
      <point x="271" y="-187" type="line" smooth="no"/>
      <point x="271" y="-151" type="line" smooth="no"/>
      <point x="271" y="-116" type="line" smooth="no"/>
      <point x="214" y="-116" type="line" smooth="no"/>
      <point x="157" y="-116" type="line" smooth="no"/>
      <point x="157" y="195" type="line" smooth="no"/>
      <point x="157" y="506" type="line" smooth="no"/>
      <point x="214" y="506" type="line" smooth="no"/>
      <point x="271" y="506" type="line" smooth="no"/>
      <point x="271" y="542" type="line" smooth="no"/>
      <point x="271" y="577" type="line" smooth="no"/>
      <point x="172" y="577" type="line" smooth="no"/>
      <point x="73" y="577" type="line" smooth="no"/>
      <point x="73" y="195" type="line" smooth="no"/>
    </contour>
  </outline>
</glyph>
<glyph name="uni005C" format="1">
  <advance width="238"/>
  <unicode hex="005c"/>
  <outline>
    <contour>
      <point x="92" y="285" type="curve" smooth="yes"/>
      <point x="174" y="-7" type="line" smooth="no"/>
      <point x="206" y="-8" type="line" smooth="yes"/>
      <point x="230" y="-8"/>
      <point x="237" y="-8"/>
      <point x="236" y="-6" type="curve" smooth="yes"/>
      <point x="235" y="-4"/>
      <point x="198" y="130"/>
      <point x="153" y="291" type="curve" smooth="yes"/>
      <point x="71" y="586" type="line" smooth="no"/>
      <point x="40" y="586" type="line" smooth="yes"/>
      <point x="13" y="586"/>
      <point x="10" y="585"/>
      <point x="10" y="582" type="curve" smooth="yes"/>
      <point x="10" y="580"/>
      <point x="47" y="446"/>
    </contour>
  </outline>
</glyph>
<glyph name="uni005D" format="1">
  <advance width="284"/>
  <unicode hex="005d"/>
  <outline>
    <contour>
      <point x="13" y="506" type="line" smooth="no"/>
      <point x="70" y="506" type="line" smooth="no"/>
      <point x="127" y="506" type="line" smooth="no"/>
      <point x="127" y="195" type="line" smooth="no"/>
      <point x="127" y="-116" type="line" smooth="no"/>
      <point x="70" y="-116" type="line" smooth="no"/>
      <point x="13" y="-116" type="line" smooth="no"/>
      <point x="13" y="-151" type="line" smooth="no"/>
      <point x="13" y="-187" type="line" smooth="no"/>
      <point x="112" y="-187" type="line" smooth="no"/>
      <point x="211" y="-187" type="line" smooth="no"/>
      <point x="211" y="195" type="line" smooth="no"/>
      <point x="211" y="577" type="line" smooth="no"/>
      <point x="112" y="577" type="line" smooth="no"/>
      <point x="13" y="577" type="line" smooth="no"/>
      <point x="13" y="542" type="line" smooth="no"/>
    </contour>
  </outline>
</glyph>
<glyph name="uni005E" format="1">
  <advance width="396"/>
  <unicode hex="005e"/>
  <outline>
    <contour>
      <point x="22" y="248" type="curve" smooth="yes"/>
      <point x="21" y="245"/>
      <point x="24" y="245"/>
      <point x="60" y="245" type="curve" smooth="yes"/>
      <point x="100" y="245" type="line" smooth="no"/>
      <point x="148" y="366" type="line" smooth="no"/>
      <point x="197" y="487" type="line" smooth="yes"/>
      <point x="198" y="487"/>
      <point x="221" y="432"/>
      <point x="248" y="366" type="curve" smooth="yes"/>
      <point x="298" y="245" type="line" smooth="no"/>
      <point x="337" y="245" type="line" smooth="yes"/>
      <point x="373" y="245"/>
      <point x="375" y="245"/>
      <point x="374" y="249" type="curve" smooth="yes"/>
      <point x="373" y="251"/>
      <point x="340" y="326"/>
      <point x="301" y="415" type="curve" smooth="yes"/>
      <point x="229" y="577" type="line" smooth="no"/>
      <point x="198" y="577" type="line" smooth="no"/>
      <point x="167" y="577" type="line" smooth="no"/>
      <point x="95" y="415" type="line" smooth="yes"/>
      <point x="56" y="325"/>
      <point x="23" y="251"/>
    </contour>
  </outline>
</glyph>
<glyph name="uni005F" format="1">
  <advance width="467"/>
  <unicode hex="005f"/>
  <outline>
    <contour>
      <point x="-12" y="-167" type="line" smooth="no"/>
      <point x="234" y="-167" type="line" smooth="no"/>
      <point x="481" y="-167" type="line" smooth="no"/>
      <point x="481" y="-139" type="line" smooth="no"/>
      <point x="481" y="-112" type="line" smooth="no"/>
      <point x="234" y="-112" type="line" smooth="no"/>
      <point x="-12" y="-112" type="line" smooth="no"/>
      <point x="-12" y="-139" type="line" smooth="no"/>
    </contour>
  </outline>
</glyph>
<glyph name="uni0060" format="1">
  <advance width="282"/>
  <unicode hex="0060"/>
  <outline>
    <contour>
      <point x="98" y="521" type="curve" smooth="yes"/>
      <point x="144" y="460" type="line" smooth="no"/>
      <point x="169" y="460" type="line" smooth="yes"/>
      <point x="193" y="460"/>
      <point x="193" y="460"/>
      <point x="191" y="465" type="curve" smooth="yes"/>
      <point x="190" y="468"/>
      <point x="178" y="496"/>
      <point x="163" y="527" type="curve" smooth="no"/>
      <point x="137" y="585" type="line" smooth="no"/>
      <point x="93" y="585" type="line" smooth="yes"/>
      <point x="66" y="585"/>
      <point x="50" y="585"/>
      <point x="51" y="584" type="curve" smooth="no"/>
      <point x="51" y="582"/>
      <point x="72" y="554"/>
    </contour>
  </outline>
</glyph>
<glyph name="uni0061" format="1">
  <advance width="360"/>
  <unicode hex="0061"/>
  <outline>
    <contour>
      <point x="42" y="349" type="curve" smooth="no"/>
      <point x="29" y="338" type="line" smooth="no"/>
      <point x="28" y="294" type="line" smooth="no"/>
      <point x="28" y="251" type="line" smooth="no"/>
      <point x="39" y="260" type="line" smooth="no"/>
      <point x="63" y="281"/>
      <point x="74" y="289"/>
      <point x="90" y="297" type="curve" smooth="yes"/>
      <point x="158" y="333"/>
      <point x="211" y="312"/>
      <point x="216" y="246" type="curve" smooth="no"/>
      <point x="218" y="230" type="line" smooth="no"/>
      <point x="181" y="217" type="line" smooth="yes"/>
      <point x="120" y="196"/>
      <point x="98" y="188"/>
      <point x="84" y="179" type="curve" smooth="yes"/>
      <point x="41" y="154"/>
      <point x="23" y="126"/>
      <point x="23" y="86" type="curve" smooth="yes"/>
      <point x="22" y="1"/>
      <point x="111" y="-33"/>
      <point x="200" y="19" type="curve" smooth="yes"/>
      <point x="216" y="29"/>
      <point x="216" y="29"/>
      <point x="218" y="24" type="curve" smooth="yes"/>
      <point x="234" y="-11"/>
      <point x="284" y="-16"/>
      <point x="332" y="12" type="curve" smooth="no"/>
      <point x="347" y="20" type="line" smooth="no"/>
      <point x="347" y="44" type="line" smooth="yes"/>
      <point x="347" y="58"/>
      <point x="347" y="69"/>
      <point x="346" y="69" type="curve" smooth="yes"/>
      <point x="345" y="69"/>
      <point x="339" y="65"/>
      <point x="332" y="61" type="curve" smooth="yes"/>
      <point x="318" y="52"/>
      <point x="305" y="48"/>
      <point x="300" y="50" type="curve" smooth="yes"/>
      <point x="293" y="53"/>
      <point x="292" y="63"/>
      <point x="291" y="179" type="curve" smooth="no"/>
      <point x="291" y="307"/>
      <point x="291" y="307"/>
      <point x="274" y="333" type="curve" smooth="yes"/>
      <point x="249" y="372"/>
      <point x="186" y="395"/>
      <point x="126" y="385" type="curve" smooth="yes"/>
      <point x="96" y="381"/>
      <point x="65" y="367"/>
    </contour>
    <contour>
      <point x="217" y="76" type="line" smooth="no"/>
      <point x="208" y="69" type="line" smooth="no"/>
      <point x="168" y="40"/>
      <point x="123" y="42"/>
      <point x="107" y="72" type="curve" smooth="yes"/>
      <point x="89" y="105"/>
      <point x="103" y="136"/>
      <point x="145" y="156" type="curve" smooth="no"/>
      <point x="161" y="165"/>
      <point x="211" y="185"/>
      <point x="216" y="185" type="curve" smooth="no"/>
      <point x="216" y="185"/>
      <point x="217" y="161"/>
      <point x="217" y="131" type="curve" smooth="yes"/>
    </contour>
  </outline>
</glyph>
<glyph name="uni0062" format="1">
  <advance width="422"/>
  <unicode hex="0062"/>
  <outline>
    <contour>
      <point x="50" y="20" type="line" smooth="no"/>
      <point x="58" y="17" type="line" smooth="no"/>
      <point x="103" y="-2"/>
      <point x="191" y="-12"/>
      <point x="235" y="-3" type="curve" smooth="yes"/>
      <point x="283" y="7"/>
      <point x="325" y="29"/>
      <point x="348" y="58" type="curve" smooth="no"/>
      <point x="405" y="125"/>
      <point x="408" y="247"/>
      <point x="356" y="323" type="curve" smooth="yes"/>
      <point x="311" y="389"/>
      <point x="217" y="407"/>
      <point x="142" y="363" type="curve" smooth="no"/>
      <point x="127" y="355" type="line" smooth="no"/>
      <point x="127" y="466" type="line" smooth="no"/>
      <point x="127" y="577" type="line" smooth="no"/>
      <point x="88" y="577" type="line" smooth="no"/>
      <point x="50" y="577" type="line" smooth="no"/>
      <point x="50" y="298" type="line" smooth="no"/>
    </contour>
    <contour>
      <point x="299" y="124" type="curve" smooth="yes"/>
      <point x="274" y="73"/>
      <point x="223" y="55"/>
      <point x="144" y="72" type="curve" smooth="no"/>
      <point x="127" y="76" type="line" smooth="no"/>
      <point x="127" y="178" type="line" smooth="no"/>
      <point x="128" y="281" type="line" smooth="no"/>
      <point x="143" y="291" type="line" smooth="yes"/>
      <point x="175" y="313"/>
      <point x="204" y="319"/>
      <point x="235" y="313" type="curve" smooth="no"/>
      <point x="305" y="297"/>
      <point x="337" y="201"/>
    </contour>
  </outline>
</glyph>
<glyph name="uni0063" format="1">
  <advance width="370"/>
  <unicode hex="0063"/>
  <outline>
    <contour>
      <point x="76" y="324" type="curve" smooth="yes"/>
      <point x="10" y="240"/>
      <point x="20" y="96"/>
      <point x="96" y="35" type="curve" smooth="yes"/>
      <point x="149" y="-7"/>
      <point x="238" y="-18"/>
      <point x="321" y="8" type="curve" smooth="no"/>
      <point x="338" y="14" type="line" smooth="no"/>
      <point x="338" y="52" type="line" smooth="yes"/>
      <point x="338" y="88"/>
      <point x="338" y="91"/>
      <point x="334" y="89" type="curve" smooth="yes"/>
      <point x="213" y="37"/>
      <point x="117" y="77"/>
      <point x="110" y="183" type="curve" smooth="yes"/>
      <point x="107" y="233"/>
      <point x="133" y="283"/>
      <point x="171" y="302" type="curve" smooth="no"/>
      <point x="214" y="322"/>
      <point x="257" y="318"/>
      <point x="313" y="287" type="curve" smooth="yes"/>
      <point x="321" y="283"/>
      <point x="328" y="280"/>
      <point x="328" y="280" type="curve" smooth="yes"/>
      <point x="329" y="280"/>
      <point x="329" y="298"/>
      <point x="329" y="321" type="curve" smooth="yes"/>
      <point x="328" y="362" type="line" smooth="no"/>
      <point x="310" y="369" type="line" smooth="no"/>
      <point x="272" y="385"/>
      <point x="226" y="391"/>
      <point x="189" y="385" type="curve" smooth="yes"/>
      <point x="146" y="379"/>
      <point x="98" y="353"/>
    </contour>
  </outline>
</glyph>
<glyph name="uni0064" format="1">
  <advance width="431"/>
  <unicode hex="0064"/>
  <outline>
    <contour>
      <point x="301" y="375" type="curve" smooth="yes"/>
      <point x="298" y="376"/>
      <point x="288" y="378"/>
      <point x="278" y="381" type="curve" smooth="yes"/>
      <point x="208" y="400"/>
      <point x="125" y="377"/>
      <point x="82" y="326" type="curve" smooth="yes"/>
      <point x="24" y="258"/>
      <point x="22" y="142"/>
      <point x="77" y="65" type="curve" smooth="yes"/>
      <point x="94" y="40"/>
      <point x="130" y="17"/>
      <point x="168" y="7" type="curve" smooth="yes"/>
      <point x="185" y="2"/>
      <point x="190" y="2"/>
      <point x="284" y="1" type="curve" smooth="yes"/>
      <point x="383" y="0" type="line" smooth="no"/>
      <point x="383" y="288" type="line" smooth="no"/>
      <point x="383" y="577" type="line" smooth="no"/>
      <point x="344" y="577" type="line" smooth="no"/>
      <point x="306" y="577" type="line" smooth="no"/>
      <point x="306" y="475" type="line" smooth="yes"/>
      <point x="306" y="374"/>
      <point x="306" y="374"/>
    </contour>
    <contour>
      <point x="292" y="309" type="curve" smooth="yes"/>
      <point x="306" y="304" type="line" smooth="no"/>
      <point x="306" y="185" type="line" smooth="no"/>
      <point x="306" y="66" type="line" smooth="no"/>
      <point x="261" y="66" type="line" smooth="yes"/>
      <point x="209" y="66"/>
      <point x="186" y="69"/>
      <point x="172" y="76" type="curve" smooth="yes"/>
      <point x="89" y="118"/>
      <point x="99" y="278"/>
      <point x="186" y="311" type="curve" smooth="yes"/>
      <point x="215" y="322"/>
      <point x="235" y="324"/>
      <point x="261" y="318" type="curve" smooth="yes"/>
      <point x="270" y="316"/>
      <point x="284" y="312"/>
    </contour>
  </outline>
</glyph>
<glyph name="uni0065" format="1">
  <advance width="405"/>
  <unicode hex="0065"/>
  <outline>
    <contour>
      <point x="53" y="284" type="curve" smooth="yes"/>
      <point x="12" y="182"/>
      <point x="42" y="68"/>
      <point x="123" y="17" type="curve" smooth="yes"/>
      <point x="163" y="-8"/>
      <point x="249" y="-14"/>
      <point x="306" y="5" type="curve" smooth="yes"/>
      <point x="323" y="11"/>
      <point x="368" y="33"/>
      <point x="369" y="37" type="curve" smooth="yes"/>
      <point x="370" y="38"/>
      <point x="370" y="56"/>
      <point x="370" y="76" type="curve" smooth="yes"/>
      <point x="369" y="113" type="line" smooth="no"/>
      <point x="356" y="104" type="line" smooth="yes"/>
      <point x="314" y="76"/>
      <point x="244" y="60"/>
      <point x="205" y="69" type="curve" smooth="yes"/>
      <point x="152" y="82"/>
      <point x="123" y="115"/>
      <point x="112" y="176" type="curve" smooth="no"/>
      <point x="111" y="183" type="line" smooth="no"/>
      <point x="244" y="183" type="line" smooth="no"/>
      <point x="378" y="183" type="line" smooth="no"/>
      <point x="376" y="207" type="line" smooth="no"/>
      <point x="370" y="315"/>
      <point x="311" y="382"/>
      <point x="217" y="387" type="curve" smooth="yes"/>
      <point x="203" y="387"/>
      <point x="189" y="386"/>
      <point x="178" y="384" type="curve" smooth="yes"/>
      <point x="121" y="373"/>
      <point x="74" y="336"/>
    </contour>
    <contour>
      <point x="296" y="252" type="curve" smooth="no"/>
      <point x="303" y="227"/>
      <point x="313" y="229"/>
      <point x="207" y="229" type="curve" smooth="yes"/>
      <point x="113" y="229" type="line" smooth="no"/>
      <point x="115" y="239" type="line" smooth="no"/>
      <point x="129" y="300"/>
      <point x="190" y="335"/>
      <point x="247" y="313" type="curve" smooth="yes"/>
      <point x="272" y="304"/>
      <point x="289" y="283"/>
    </contour>
  </outline>
</glyph>
<glyph name="uni0066" format="1">
  <advance width="212"/>
  <unicode hex="0066"/>
  <outline>
    <contour>
      <point x="61" y="408" type="curve" smooth="no"/>
      <point x="60" y="381" type="line" smooth="no"/>
      <point x="34" y="381" type="line" smooth="no"/>
      <point x="7" y="381" type="line" smooth="no"/>
      <point x="7" y="346" type="line" smooth="no"/>
      <point x="7" y="311" type="line" smooth="no"/>
      <point x="34" y="311" type="line" smooth="no"/>
      <point x="60" y="311" type="line" smooth="no"/>
      <point x="60" y="156" type="line" smooth="no"/>
      <point x="60" y="0" type="line" smooth="no"/>
      <point x="99" y="0" type="line" smooth="no"/>
      <point x="137" y="0" type="line" smooth="no"/>
      <point x="137" y="156" type="line" smooth="no"/>
      <point x="137" y="311" type="line" smooth="no"/>
      <point x="171" y="311" type="line" smooth="no"/>
      <point x="205" y="311" type="line" smooth="no"/>
      <point x="205" y="346" type="line" smooth="no"/>
      <point x="205" y="381" type="line" smooth="no"/>
      <point x="171" y="381" type="line" smooth="no"/>
      <point x="137" y="381" type="line" smooth="no"/>
      <point x="138" y="407" type="line" smooth="yes"/>
      <point x="140" y="434"/>
      <point x="144" y="461"/>
      <point x="150" y="473" type="curve" smooth="no"/>
      <point x="160" y="498"/>
      <point x="197" y="513"/>
      <point x="232" y="505" type="curve" smooth="no"/>
      <point x="241" y="504"/>
      <point x="249" y="502"/>
      <point x="250" y="502" type="curve" smooth="yes"/>
      <point x="251" y="502"/>
      <point x="252" y="519"/>
      <point x="252" y="539" type="curve" smooth="yes"/>
      <point x="252" y="576" type="line" smooth="no"/>
      <point x="240" y="579" type="line" smooth="yes"/>
      <point x="219" y="584"/>
      <point x="177" y="584"/>
      <point x="164" y="579" type="curve" smooth="yes"/>
      <point x="97" y="557"/>
      <point x="67" y="507"/>
    </contour>
  </outline>
</glyph>
<glyph name="uni0067" format="1">
  <advance width="360"/>
  <unicode hex="0067"/>
  <outline>
    <contour>
      <point x="49" y="309" type="curve" smooth="yes"/>
      <point x="16" y="246"/>
      <point x="36" y="178"/>
      <point x="100" y="137" type="curve" smooth="no"/>
      <point x="113" y="129" type="line" smooth="no"/>
      <point x="100" y="124" type="line" smooth="yes"/>
      <point x="52" y="106"/>
      <point x="43" y="69"/>
      <point x="78" y="37" type="curve" smooth="yes"/>
      <point x="91" y="25" type="line" smooth="no"/>
      <point x="78" y="21" type="line" smooth="yes"/>
      <point x="-2" y="-3"/>
      <point x="-26" y="-89"/>
      <point x="31" y="-147" type="curve" smooth="yes"/>
      <point x="92" y="-208"/>
      <point x="262" y="-209"/>
      <point x="323" y="-148" type="curve" smooth="yes"/>
      <point x="370" y="-100"/>
      <point x="363" y="-26"/>
      <point x="308" y="11" type="curve" smooth="yes"/>
      <point x="293" y="20"/>
      <point x="280" y="25"/>
      <point x="216" y="40" type="curve" smooth="yes"/>
      <point x="155" y="55"/>
      <point x="138" y="62"/>
      <point x="132" y="74" type="curve" smooth="yes"/>
      <point x="123" y="93"/>
      <point x="137" y="103"/>
      <point x="186" y="112" type="curve" smooth="no"/>
      <point x="244" y="124"/>
      <point x="265" y="134"/>
      <point x="287" y="159" type="curve" smooth="yes"/>
      <point x="313" y="188"/>
      <point x="324" y="231"/>
      <point x="314" y="267" type="curve" smooth="yes"/>
      <point x="311" y="281"/>
      <point x="308" y="286"/>
      <point x="293" y="306" type="curve" smooth="no"/>
      <point x="282" y="319" type="line" smooth="no"/>
      <point x="319" y="319" type="line" smooth="no"/>
      <point x="355" y="319" type="line" smooth="no"/>
      <point x="355" y="350" type="line" smooth="no"/>
      <point x="355" y="381" type="line" smooth="no"/>
      <point x="273" y="381" type="line" smooth="yes"/>
      <point x="228" y="381"/>
      <point x="183" y="380"/>
      <point x="173" y="379" type="curve" smooth="yes"/>
      <point x="112" y="373"/>
      <point x="70" y="349"/>
    </contour>
    <contour>
      <point x="210" y="187" type="curve" smooth="yes"/>
      <point x="161" y="163"/>
      <point x="103" y="194"/>
      <point x="103" y="245" type="curve" smooth="no"/>
      <point x="104" y="295"/>
      <point x="158" y="327"/>
      <point x="206" y="305" type="curve" smooth="no"/>
      <point x="259" y="282"/>
      <point x="261" y="212"/>
    </contour>
    <contour>
      <point x="226" y="-126" type="curve" smooth="yes"/>
      <point x="205" y="-132"/>
      <point x="149" y="-132"/>
      <point x="129" y="-126" type="curve" smooth="yes"/>
      <point x="57" y="-107"/>
      <point x="54" y="-43"/>
      <point x="124" y="-23" type="curve" smooth="yes"/>
      <point x="141" y="-18"/>
      <point x="194" y="-20"/>
      <point x="217" y="-26" type="curve" smooth="yes"/>
      <point x="295" y="-46"/>
      <point x="301" y="-107"/>
    </contour>
  </outline>
</glyph>
<glyph name="uni0068" format="1">
  <advance width="424"/>
  <unicode hex="0068"/>
  <outline>
    <contour>
      <point x="52" y="0" type="line" smooth="no"/>
      <point x="90" y="0" type="line" smooth="no"/>
      <point x="129" y="0" type="line" smooth="no"/>
      <point x="129" y="135" type="line" smooth="no"/>
      <point x="129" y="271" type="line" smooth="no"/>
      <point x="148" y="288" type="line" smooth="no"/>
      <point x="171" y="310"/>
      <point x="184" y="318"/>
      <point x="205" y="323" type="curve" smooth="yes"/>
      <point x="238" y="330"/>
      <point x="268" y="317"/>
      <point x="283" y="289" type="curve" smooth="yes"/>
      <point x="295" y="265"/>
      <point x="296" y="258"/>
      <point x="296" y="123" type="curve" smooth="yes"/>
      <point x="296" y="0" type="line" smooth="no"/>
      <point x="335" y="0" type="line" smooth="no"/>
      <point x="373" y="0" type="line" smooth="no"/>
      <point x="373" y="122" type="line" smooth="yes"/>
      <point x="373" y="274"/>
      <point x="371" y="298"/>
      <point x="352" y="329" type="curve" smooth="yes"/>
      <point x="308" y="401"/>
      <point x="209" y="407"/>
      <point x="140" y="343" type="curve" smooth="no"/>
      <point x="129" y="332" type="line" smooth="no"/>
      <point x="129" y="454" type="line" smooth="no"/>
      <point x="129" y="577" type="line" smooth="no"/>
      <point x="90" y="577" type="line" smooth="no"/>
      <point x="52" y="577" type="line" smooth="no"/>
      <point x="52" y="289" type="line" smooth="no"/>
    </contour>
  </outline>
</glyph>
<glyph name="uni0069" format="1">
  <advance width="188"/>
  <unicode hex="0069"/>
  <outline>
    <contour>
      <point x="69" y="457" type="curve" smooth="yes"/>
      <point x="100" y="435"/>
      <point x="144" y="463"/>
      <point x="139" y="500" type="curve" smooth="yes"/>
      <point x="135" y="528"/>
      <point x="103" y="547"/>
      <point x="78" y="537" type="curve" smooth="yes"/>
      <point x="44" y="523"/>
      <point x="39" y="478"/>
    </contour>
    <contour>
      <point x="54" y="0" type="line" smooth="no"/>
      <point x="94" y="0" type="line" smooth="no"/>
      <point x="133" y="0" type="line" smooth="no"/>
      <point x="133" y="191" type="line" smooth="no"/>
      <point x="133" y="381" type="line" smooth="no"/>
      <point x="94" y="381" type="line" smooth="no"/>
      <point x="54" y="381" type="line" smooth="no"/>
      <point x="54" y="191" type="line" smooth="no"/>
    </contour>
  </outline>
</glyph>
<glyph name="uni006A" format="1">
  <advance width="184"/>
  <unicode hex="006a"/>
  <outline>
    <contour>
      <point x="60" y="458" type="curve" smooth="yes"/>
      <point x="95" y="433"/>
      <point x="141" y="465"/>
      <point x="130" y="506" type="curve" smooth="yes"/>
      <point x="124" y="530"/>
      <point x="94" y="546"/>
      <point x="71" y="537" type="curve" smooth="yes"/>
      <point x="37" y="524"/>
      <point x="31" y="479"/>
    </contour>
    <contour>
      <point x="42" y="-89" type="curve" smooth="yes"/>
      <point x="34" y="-109"/>
      <point x="21" y="-122"/>
      <point x="-4" y="-136" type="curve" smooth="yes"/>
      <point x="-7" y="-138"/>
      <point x="45" y="-193"/>
      <point x="50" y="-193" type="curve" smooth="yes"/>
      <point x="61" y="-193"/>
      <point x="95" y="-157"/>
      <point x="107" y="-133" type="curve" smooth="yes"/>
      <point x="126" y="-94"/>
      <point x="125" y="-113"/>
      <point x="125" y="148" type="curve" smooth="no"/>
      <point x="126" y="381" type="line" smooth="no"/>
      <point x="87" y="381" type="line" smooth="no"/>
      <point x="49" y="381" type="line" smooth="no"/>
      <point x="48" y="153" type="line" smooth="yes"/>
      <point x="48" y="-75"/>
      <point x="48" y="-75"/>
    </contour>
  </outline>
</glyph>
<glyph name="uni006B" format="1">
  <advance width="406"/>
  <unicode hex="006b"/>
  <outline>
    <contour>
      <point x="53" y="0" type="line" smooth="no"/>
      <point x="92" y="0" type="line" smooth="no"/>
      <point x="130" y="0" type="line" smooth="no"/>
      <point x="131" y="97" type="line" smooth="no"/>
      <point x="131" y="193" type="line" smooth="no"/>
      <point x="226" y="97" type="line" smooth="no"/>
      <point x="321" y="0" type="line" smooth="no"/>
      <point x="373" y="0" type="line" smooth="no"/>
      <point x="424" y="0" type="line" smooth="no"/>
      <point x="328" y="97" type="line" smooth="no"/>
      <point x="275" y="149"/>
      <point x="232" y="193"/>
      <point x="232" y="194" type="curve" smooth="yes"/>
      <point x="232" y="195"/>
      <point x="268" y="237"/>
      <point x="312" y="287" type="curve" smooth="yes"/>
      <point x="392" y="380" type="line" smooth="yes"/>
      <point x="392" y="381"/>
      <point x="372" y="381"/>
      <point x="346" y="381" type="curve" smooth="yes"/>
      <point x="300" y="381" type="line" smooth="no"/>
      <point x="216" y="288" type="line" smooth="no"/>
      <point x="132" y="195" type="line" smooth="no"/>
      <point x="131" y="386" type="line" smooth="no"/>
      <point x="130" y="577" type="line" smooth="no"/>
      <point x="92" y="577" type="line" smooth="no"/>
      <point x="53" y="577" type="line" smooth="no"/>
      <point x="53" y="289" type="line" smooth="no"/>
    </contour>
  </outline>
</glyph>
<glyph name="uni006C" format="1">
  <advance width="189"/>
  <unicode hex="006c"/>
  <outline>
    <contour>
      <point x="56" y="0" type="line" smooth="no"/>
      <point x="95" y="0" type="line" smooth="no"/>
      <point x="133" y="0" type="line" smooth="no"/>
      <point x="133" y="289" type="line" smooth="no"/>
      <point x="133" y="577" type="line" smooth="no"/>
      <point x="95" y="577" type="line" smooth="no"/>
      <point x="56" y="577" type="line" smooth="no"/>
      <point x="56" y="289" type="line" smooth="no"/>
    </contour>
  </outline>
</glyph>
<glyph name="uni006D" format="1">
  <advance width="652"/>
  <unicode hex="006d"/>
  <outline>
    <contour>
      <point x="144" y="347" type="curve" smooth="no"/>
      <point x="128" y="335" type="line" smooth="no"/>
      <point x="127" y="358" type="line" smooth="no"/>
      <point x="127" y="381" type="line" smooth="no"/>
      <point x="88" y="381" type="line" smooth="no"/>
      <point x="50" y="381" type="line" smooth="no"/>
      <point x="50" y="191" type="line" smooth="no"/>
      <point x="50" y="0" type="line" smooth="no"/>
      <point x="89" y="0" type="line" smooth="no"/>
      <point x="127" y="0" type="line" smooth="no"/>
      <point x="127" y="138" type="line" smooth="no"/>
      <point x="127" y="275" type="line" smooth="no"/>
      <point x="143" y="290" type="line" smooth="yes"/>
      <point x="177" y="322"/>
      <point x="216" y="331"/>
      <point x="250" y="314" type="curve" smooth="yes"/>
      <point x="284" y="297"/>
      <point x="286" y="285"/>
      <point x="287" y="124" type="curve" smooth="yes"/>
      <point x="288" y="0" type="line" smooth="no"/>
      <point x="326" y="0" type="line" smooth="no"/>
      <point x="365" y="0" type="line" smooth="no"/>
      <point x="365" y="138" type="line" smooth="no"/>
      <point x="365" y="275" type="line" smooth="no"/>
      <point x="375" y="285" type="line" smooth="no"/>
      <point x="434" y="340"/>
      <point x="503" y="329"/>
      <point x="520" y="263" type="curve" smooth="yes"/>
      <point x="523" y="250"/>
      <point x="524" y="232"/>
      <point x="525" y="124" type="curve" smooth="yes"/>
      <point x="526" y="0" type="line" smooth="no"/>
      <point x="564" y="0" type="line" smooth="no"/>
      <point x="603" y="0" type="line" smooth="no"/>
      <point x="602" y="130" type="line" smooth="yes"/>
      <point x="601" y="269"/>
      <point x="600" y="271"/>
      <point x="588" y="307" type="curve" smooth="yes"/>
      <point x="573" y="349"/>
      <point x="547" y="373"/>
      <point x="504" y="384" type="curve" smooth="yes"/>
      <point x="459" y="396"/>
      <point x="407" y="377"/>
      <point x="361" y="332" type="curve" smooth="yes"/>
      <point x="354" y="326"/>
      <point x="349" y="321"/>
      <point x="348" y="322" type="curve" smooth="yes"/>
      <point x="347" y="323"/>
      <point x="344" y="328"/>
      <point x="340" y="333" type="curve" smooth="yes"/>
      <point x="313" y="370"/>
      <point x="258" y="394"/>
      <point x="218" y="386" type="curve" smooth="yes"/>
      <point x="196" y="381"/>
      <point x="168" y="367"/>
    </contour>
  </outline>
</glyph>
<glyph name="uni006E" format="1">
  <advance width="424"/>
  <unicode hex="006e"/>
  <outline>
    <contour>
      <point x="141" y="343" type="curve" smooth="yes"/>
      <point x="131" y="334" type="line" smooth="no"/>
      <point x="131" y="358" type="line" smooth="no"/>
      <point x="131" y="381" type="line" smooth="no"/>
      <point x="91" y="381" type="line" smooth="no"/>
      <point x="52" y="381" type="line" smooth="no"/>
      <point x="52" y="191" type="line" smooth="no"/>
      <point x="52" y="0" type="line" smooth="no"/>
      <point x="91" y="0" type="line" smooth="no"/>
      <point x="131" y="0" type="line" smooth="no"/>
      <point x="131" y="135" type="line" smooth="no"/>
      <point x="131" y="270" type="line" smooth="no"/>
      <point x="143" y="283" type="line" smooth="no"/>
      <point x="184" y="329"/>
      <point x="255" y="335"/>
      <point x="280" y="295" type="curve" smooth="yes"/>
      <point x="294" y="273"/>
      <point x="295" y="264"/>
      <point x="296" y="126" type="curve" smooth="no"/>
      <point x="296" y="0" type="line" smooth="no"/>
      <point x="335" y="0" type="line" smooth="no"/>
      <point x="373" y="0" type="line" smooth="no"/>
      <point x="373" y="121" type="line" smooth="yes"/>
      <point x="373" y="241"/>
      <point x="372" y="268"/>
      <point x="365" y="295" type="curve" smooth="yes"/>
      <point x="349" y="359"/>
      <point x="284" y="399"/>
      <point x="217" y="384" type="curve" smooth="yes"/>
      <point x="193" y="379"/>
      <point x="161" y="362"/>
    </contour>
  </outline>
</glyph>
<glyph name="uni006F" format="1">
  <advance width="464"/>
  <unicode hex="006f"/>
  <outline>
    <contour>
      <point x="45" y="115" type="curve" smooth="yes"/>
      <point x="87" y="2"/>
      <point x="231" y="-41"/>
      <point x="347" y="25" type="curve" smooth="yes"/>
      <point x="442" y="79"/>
      <point x="464" y="214"/>
      <point x="393" y="308" type="curve" smooth="yes"/>
      <point x="355" y="359"/>
      <point x="274" y="389"/>
      <point x="204" y="379" type="curve" smooth="yes"/>
      <point x="73" y="359"/>
      <point x="-1" y="237"/>
    </contour>
    <contour>
      <point x="344" y="131" type="curve" smooth="yes"/>
      <point x="314" y="68"/>
      <point x="228" y="46"/>
      <point x="164" y="85" type="curve" smooth="yes"/>
      <point x="89" y="130"/>
      <point x="92" y="250"/>
      <point x="168" y="294" type="curve" smooth="yes"/>
      <point x="192" y="308"/>
      <point x="229" y="314"/>
      <point x="258" y="308" type="curve" smooth="yes"/>
      <point x="339" y="292"/>
      <point x="380" y="206"/>
    </contour>
  </outline>
</glyph>
<glyph name="uni0070" format="1">
  <advance width="424"/>
  <unicode hex="0070"/>
  <outline>
    <contour>
      <point x="48" y="-193" type="line" smooth="no"/>
      <point x="88" y="-193" type="line" smooth="no"/>
      <point x="128" y="-193" type="line" smooth="no"/>
      <point x="128" y="-93" type="line" smooth="yes"/>
      <point x="128" y="-38"/>
      <point x="128" y="7"/>
      <point x="129" y="7" type="curve" smooth="yes"/>
      <point x="150" y="1" type="line" smooth="no"/>
      <point x="239" y="-23"/>
      <point x="333" y="13"/>
      <point x="370" y="87" type="curve" smooth="yes"/>
      <point x="421" y="187"/>
      <point x="391" y="309"/>
      <point x="306" y="352" type="curve" smooth="yes"/>
      <point x="264" y="374"/>
      <point x="230" y="379"/>
      <point x="130" y="380" type="curve" smooth="yes"/>
      <point x="48" y="381" type="line" smooth="no"/>
      <point x="48" y="94" type="line" smooth="no"/>
    </contour>
    <contour>
      <point x="317" y="189" type="curve" smooth="yes"/>
      <point x="317" y="94"/>
      <point x="240" y="39"/>
      <point x="150" y="69" type="curve" smooth="yes"/>
      <point x="129" y="76" type="line" smooth="no"/>
      <point x="128" y="193" type="line" smooth="no"/>
      <point x="128" y="309" type="line" smooth="no"/>
      <point x="171" y="308" type="line" smooth="yes"/>
      <point x="197" y="307"/>
      <point x="221" y="305"/>
      <point x="231" y="303" type="curve" smooth="yes"/>
      <point x="286" y="291"/>
      <point x="317" y="250"/>
    </contour>
  </outline>
</glyph>
<glyph name="uni0071" format="1">
  <advance width="424"/>
  <unicode hex="0071"/>
  <outline>
    <contour>
      <point x="30" y="183" type="curve" smooth="yes"/>
      <point x="31" y="51"/>
      <point x="140" y="-30"/>
      <point x="276" y="0" type="curve" smooth="yes"/>
      <point x="288" y="3"/>
      <point x="297" y="5"/>
      <point x="298" y="5" type="curve" smooth="yes"/>
      <point x="298" y="5"/>
      <point x="299" y="-40"/>
      <point x="299" y="-94" type="curve" smooth="yes"/>
      <point x="299" y="-193" type="line" smooth="no"/>
      <point x="337" y="-193" type="line" smooth="no"/>
      <point x="376" y="-193" type="line" smooth="no"/>
      <point x="376" y="94" type="line" smooth="no"/>
      <point x="376" y="381" type="line" smooth="no"/>
      <point x="301" y="381" type="line" smooth="yes"/>
      <point x="261" y="381"/>
      <point x="219" y="380"/>
      <point x="209" y="379" type="curve" smooth="yes"/>
      <point x="97" y="368"/>
      <point x="29" y="294"/>
    </contour>
    <contour>
      <point x="299" y="74" type="line" smooth="no"/>
      <point x="276" y="66" type="line" smooth="no"/>
      <point x="237" y="54"/>
      <point x="210" y="55"/>
      <point x="175" y="71" type="curve" smooth="yes"/>
      <point x="101" y="107"/>
      <point x="84" y="221"/>
      <point x="145" y="279" type="curve" smooth="yes"/>
      <point x="170" y="303"/>
      <point x="188" y="308"/>
      <point x="260" y="308" type="curve" smooth="yes"/>
      <point x="299" y="308" type="line" smooth="no"/>
      <point x="299" y="191" type="line" smooth="no"/>
    </contour>
  </outline>
</glyph>
<glyph name="uni0072" format="1">
  <advance width="336"/>
  <unicode hex="0072"/>
  <outline>
    <contour>
      <point x="150" y="318" type="curve" smooth="no"/>
      <point x="137" y="299" type="line" smooth="no"/>
      <point x="136" y="340" type="line" smooth="no"/>
      <point x="135" y="381" type="line" smooth="no"/>
      <point x="97" y="381" type="line" smooth="no"/>
      <point x="59" y="381" type="line" smooth="no"/>
      <point x="59" y="191" type="line" smooth="no"/>
      <point x="59" y="0" type="line" smooth="no"/>
      <point x="97" y="0" type="line" smooth="no"/>
      <point x="136" y="0" type="line" smooth="no"/>
      <point x="136" y="104" type="line" smooth="yes"/>
      <point x="136" y="221"/>
      <point x="136" y="229"/>
      <point x="151" y="259" type="curve" smooth="yes"/>
      <point x="179" y="317"/>
      <point x="228" y="328"/>
      <point x="282" y="287" type="curve" smooth="yes"/>
      <point x="290" y="282"/>
      <point x="297" y="278"/>
      <point x="298" y="279" type="curve" smooth="yes"/>
      <point x="301" y="282"/>
      <point x="338" y="344"/>
      <point x="337" y="345" type="curve" smooth="yes"/>
      <point x="337" y="345"/>
      <point x="331" y="350"/>
      <point x="324" y="355" type="curve" smooth="yes"/>
      <point x="293" y="381"/>
      <point x="257" y="392"/>
      <point x="230" y="385" type="curve" smooth="yes"/>
      <point x="207" y="379"/>
      <point x="175" y="352"/>
    </contour>
  </outline>
</glyph>
<glyph name="uni0073" format="1">
  <advance width="327"/>
  <unicode hex="0073"/>
  <outline>
    <contour>
      <point x="45" y="251" type="curve" smooth="no"/>
      <point x="58" y="221"/>
      <point x="81" y="200"/>
      <point x="146" y="161" type="curve" smooth="yes"/>
      <point x="211" y="122"/>
      <point x="223" y="107"/>
      <point x="208" y="84" type="curve" smooth="yes"/>
      <point x="183" y="48"/>
      <point x="127" y="54"/>
      <point x="50" y="101" type="curve" smooth="no"/>
      <point x="36" y="110" type="line" smooth="no"/>
      <point x="35" y="69" type="line" smooth="yes"/>
      <point x="35" y="47"/>
      <point x="35" y="27"/>
      <point x="36" y="27" type="curve" smooth="yes"/>
      <point x="40" y="23"/>
      <point x="87" y="4"/>
      <point x="103" y="0" type="curve" smooth="yes"/>
      <point x="128" y="-7"/>
      <point x="190" y="-7"/>
      <point x="212" y="0" type="curve" smooth="yes"/>
      <point x="247" y="12"/>
      <point x="270" y="29"/>
      <point x="282" y="53" type="curve" smooth="yes"/>
      <point x="314" y="116"/>
      <point x="280" y="174"/>
      <point x="181" y="230" type="curve" smooth="yes"/>
      <point x="127" y="261"/>
      <point x="113" y="276"/>
      <point x="120" y="296" type="curve" smooth="yes"/>
      <point x="131" y="328"/>
      <point x="180" y="327"/>
      <point x="246" y="294" type="curve" smooth="yes"/>
      <point x="274" y="280" type="line" smooth="no"/>
      <point x="274" y="319" type="line" smooth="no"/>
      <point x="274" y="357" type="line" smooth="no"/>
      <point x="264" y="362" type="line" smooth="yes"/>
      <point x="226" y="381"/>
      <point x="165" y="392"/>
      <point x="131" y="385" type="curve" smooth="yes"/>
      <point x="58" y="371"/>
      <point x="21" y="313"/>
    </contour>
  </outline>
</glyph>
<glyph name="uni0074" format="1">
  <advance width="282"/>
  <unicode hex="0074"/>
  <outline>
    <contour>
      <point x="0" y="315" type="curve" smooth="yes"/>
      <point x="0" y="311"/>
      <point x="0" y="311"/>
      <point x="33" y="311" type="curve" smooth="yes"/>
      <point x="66" y="311" type="line" smooth="no"/>
      <point x="67" y="198" type="line" smooth="yes"/>
      <point x="68" y="62"/>
      <point x="69" y="54"/>
      <point x="95" y="28" type="curve" smooth="yes"/>
      <point x="133" y="-9"/>
      <point x="202" y="-17"/>
      <point x="266" y="10" type="curve" smooth="no"/>
      <point x="282" y="16" type="line" smooth="no"/>
      <point x="282" y="52" type="line" smooth="yes"/>
      <point x="282" y="72"/>
      <point x="281" y="88"/>
      <point x="280" y="88" type="curve" smooth="yes"/>
      <point x="280" y="88"/>
      <point x="274" y="86"/>
      <point x="267" y="82" type="curve" smooth="yes"/>
      <point x="207" y="52"/>
      <point x="165" y="57"/>
      <point x="149" y="97" type="curve" smooth="yes"/>
      <point x="144" y="109"/>
      <point x="144" y="112"/>
      <point x="143" y="210" type="curve" smooth="no"/>
      <point x="143" y="311" type="line" smooth="no"/>
      <point x="203" y="311" type="line" smooth="no"/>
      <point x="264" y="311" type="line" smooth="no"/>
      <point x="264" y="346" type="line" smooth="no"/>
      <point x="264" y="381" type="line" smooth="no"/>
      <point x="204" y="381" type="line" smooth="no"/>
      <point x="143" y="381" type="line" smooth="no"/>
      <point x="143" y="420" type="line" smooth="yes"/>
      <point x="143" y="441"/>
      <point x="142" y="458"/>
      <point x="141" y="458" type="curve" smooth="yes"/>
      <point x="140" y="458"/>
      <point x="108" y="427"/>
      <point x="70" y="389" type="curve" smooth="yes"/>
      <point x="20" y="340"/>
      <point x="0" y="319"/>
    </contour>
  </outline>
</glyph>
<glyph name="uni0075" format="1">
  <advance width="426"/>
  <unicode hex="0075"/>
  <outline>
    <contour>
      <point x="92" y="29" type="curve" smooth="yes"/>
      <point x="140" y="-19"/>
      <point x="219" y="-18"/>
      <point x="280" y="31" type="curve" smooth="yes"/>
      <point x="296" y="44" type="line" smooth="no"/>
      <point x="296" y="22" type="line" smooth="no"/>
      <point x="296" y="0" type="line" smooth="no"/>
      <point x="335" y="0" type="line" smooth="no"/>
      <point x="373" y="0" type="line" smooth="no"/>
      <point x="373" y="191" type="line" smooth="no"/>
      <point x="373" y="381" type="line" smooth="no"/>
      <point x="335" y="381" type="line" smooth="no"/>
      <point x="296" y="381" type="line" smooth="no"/>
      <point x="296" y="245" type="line" smooth="no"/>
      <point x="296" y="108" type="line" smooth="no"/>
      <point x="282" y="94" type="line" smooth="yes"/>
      <point x="237" y="48"/>
      <point x="163" y="45"/>
      <point x="143" y="89" type="curve" smooth="yes"/>
      <point x="132" y="115"/>
      <point x="131" y="124"/>
      <point x="130" y="257" type="curve" smooth="yes"/>
      <point x="129" y="381" type="line" smooth="no"/>
      <point x="90" y="381" type="line" smooth="no"/>
      <point x="52" y="381" type="line" smooth="no"/>
      <point x="52" y="275" type="line" smooth="yes"/>
      <point x="52" y="89"/>
      <point x="56" y="64"/>
    </contour>
  </outline>
</glyph>
<glyph name="uni0076" format="1">
  <advance width="370"/>
  <unicode hex="0076"/>
  <outline>
    <contour>
      <point x="88" y="186" type="curve" smooth="yes"/>
      <point x="173" y="-6" type="line" smooth="no"/>
      <point x="187" y="-6" type="line" smooth="no"/>
      <point x="202" y="-6" type="line" smooth="no"/>
      <point x="285" y="185" type="line" smooth="yes"/>
      <point x="330" y="290"/>
      <point x="368" y="377"/>
      <point x="368" y="379" type="curve" smooth="yes"/>
      <point x="368" y="380"/>
      <point x="355" y="381"/>
      <point x="326" y="381" type="curve" smooth="yes"/>
      <point x="285" y="381" type="line" smooth="no"/>
      <point x="237" y="265" type="line" smooth="no"/>
      <point x="188" y="150" type="line" smooth="no"/>
      <point x="138" y="265" type="line" smooth="no"/>
      <point x="87" y="380" type="line" smooth="no"/>
      <point x="45" y="380" type="line" smooth="no"/>
      <point x="22" y="381"/>
      <point x="2" y="380"/>
      <point x="2" y="379" type="curve" smooth="yes"/>
      <point x="2" y="378"/>
      <point x="41" y="291"/>
    </contour>
  </outline>
</glyph>
<glyph name="uni0077" format="1">
  <advance width="607"/>
  <unicode hex="0077"/>
  <outline>
    <contour>
      <point x="84" y="186" type="line" smooth="no"/>
      <point x="168" y="-6" type="line" smooth="no"/>
      <point x="182" y="-6" type="line" smooth="no"/>
      <point x="195" y="-6" type="line" smooth="no"/>
      <point x="246" y="116" type="line" smooth="no"/>
      <point x="301" y="247" type="line" smooth="yes"/>
      <point x="304" y="254"/>
      <point x="304" y="254"/>
      <point x="359" y="125" type="curve" smooth="yes"/>
      <point x="415" y="-5" type="line" smooth="no"/>
      <point x="428" y="-6" type="line" smooth="no"/>
      <point x="441" y="-6" type="line" smooth="no"/>
      <point x="524" y="185" type="line" smooth="yes"/>
      <point x="570" y="290"/>
      <point x="607" y="377"/>
      <point x="607" y="378" type="curve" smooth="yes"/>
      <point x="607" y="380"/>
      <point x="596" y="381"/>
      <point x="567" y="381" type="curve" smooth="yes"/>
      <point x="526" y="381" type="line" smooth="no"/>
      <point x="478" y="269" type="line" smooth="yes"/>
      <point x="452" y="208"/>
      <point x="430" y="157"/>
      <point x="429" y="156" type="curve" smooth="yes"/>
      <point x="428" y="155"/>
      <point x="406" y="205"/>
      <point x="381" y="267" type="curve" smooth="no"/>
      <point x="333" y="380" type="line" smooth="no"/>
      <point x="305" y="381" type="line" smooth="no"/>
      <point x="276" y="381" type="line" smooth="no"/>
      <point x="229" y="269" type="line" smooth="yes"/>
      <point x="203" y="207"/>
      <point x="181" y="157"/>
      <point x="180" y="157" type="curve" smooth="yes"/>
      <point x="131" y="268" type="line" smooth="no"/>
      <point x="82" y="380" type="line" smooth="no"/>
      <point x="41" y="380" type="line" smooth="no"/>
      <point x="18" y="381"/>
      <point x="0" y="380"/>
      <point x="0" y="379" type="curve" smooth="yes"/>
    </contour>
  </outline>
</glyph>
<glyph name="uni0078" format="1">
  <advance width="424"/>
  <unicode hex="0078"/>
  <outline>
    <contour>
      <point x="79" y="285" type="curve" smooth="yes"/>
      <point x="146" y="207"/>
      <point x="158" y="192"/>
      <point x="155" y="190" type="curve" smooth="no"/>
      <point x="144" y="176"/>
      <point x="3" y="5"/>
      <point x="2" y="3" type="curve" smooth="yes"/>
      <point x="0" y="1"/>
      <point x="10" y="0"/>
      <point x="49" y="1" type="curve" smooth="no"/>
      <point x="98" y="1" type="line" smooth="no"/>
      <point x="152" y="66" type="line" smooth="no"/>
      <point x="181" y="103"/>
      <point x="206" y="132"/>
      <point x="207" y="132" type="curve" smooth="yes"/>
      <point x="208" y="132"/>
      <point x="235" y="103"/>
      <point x="267" y="66" type="curve" smooth="yes"/>
      <point x="324" y="0" type="line" smooth="no"/>
      <point x="375" y="0" type="line" smooth="no"/>
      <point x="425" y="0" type="line" smooth="no"/>
      <point x="341" y="96" type="line" smooth="yes"/>
      <point x="270" y="178"/>
      <point x="258" y="193"/>
      <point x="260" y="196" type="curve" smooth="yes"/>
      <point x="262" y="198"/>
      <point x="296" y="239"/>
      <point x="337" y="288" type="curve" smooth="yes"/>
      <point x="378" y="337"/>
      <point x="411" y="378"/>
      <point x="411" y="379" type="curve" smooth="yes"/>
      <point x="411" y="380"/>
      <point x="391" y="381"/>
      <point x="363" y="381" type="curve" smooth="yes"/>
      <point x="315" y="381" type="line" smooth="no"/>
      <point x="261" y="316" type="line" smooth="no"/>
      <point x="207" y="251" type="line" smooth="no"/>
      <point x="152" y="316" type="line" smooth="no"/>
      <point x="96" y="381" type="line" smooth="no"/>
      <point x="48" y="381" type="line" smooth="yes"/>
      <point x="22" y="381"/>
      <point x="0" y="380"/>
      <point x="0" y="379" type="curve" smooth="yes"/>
      <point x="0" y="378"/>
      <point x="36" y="336"/>
    </contour>
  </outline>
</glyph>
<glyph name="uni0079" format="1">
  <advance width="369"/>
  <unicode hex="0079"/>
  <outline>
    <contour>
      <point x="63" y="250" type="curve" smooth="yes"/>
      <point x="97" y="180"/>
      <point x="130" y="113"/>
      <point x="136" y="102" type="curve" smooth="no"/>
      <point x="145" y="81" type="line" smooth="no"/>
      <point x="83" y="-52" type="line" smooth="yes"/>
      <point x="48" y="-126"/>
      <point x="19" y="-187"/>
      <point x="19" y="-189" type="curve" smooth="yes"/>
      <point x="17" y="-193"/>
      <point x="20" y="-193"/>
      <point x="61" y="-193" type="curve" smooth="yes"/>
      <point x="104" y="-192" type="line" smooth="no"/>
      <point x="235" y="88" type="line" smooth="yes"/>
      <point x="307" y="243"/>
      <point x="368" y="372"/>
      <point x="369" y="375" type="curve" smooth="yes"/>
      <point x="372" y="381"/>
      <point x="372" y="381"/>
      <point x="328" y="381" type="curve" smooth="yes"/>
      <point x="285" y="381" type="line" smooth="no"/>
      <point x="237" y="276" type="line" smooth="yes"/>
      <point x="210" y="218"/>
      <point x="188" y="171"/>
      <point x="187" y="171" type="curve" smooth="no"/>
      <point x="187" y="172"/>
      <point x="164" y="219"/>
      <point x="136" y="276" type="curve" smooth="no"/>
      <point x="87" y="380" type="line" smooth="no"/>
      <point x="43" y="380" type="line" smooth="no"/>
      <point x="18" y="381"/>
      <point x="0" y="380"/>
      <point x="0" y="379" type="curve" smooth="yes"/>
      <point x="0" y="378"/>
      <point x="28" y="320"/>
    </contour>
  </outline>
</glyph>
<glyph name="uni007A" format="1">
  <advance width="354"/>
  <unicode hex="007a"/>
  <outline>
    <contour>
      <point x="18" y="308" type="line" smooth="no"/>
      <point x="113" y="308" type="line" smooth="no"/>
      <point x="207" y="307" type="line" smooth="no"/>
      <point x="115" y="164" type="line" smooth="no"/>
      <point x="16" y="11" type="line" smooth="no"/>
      <point x="10" y="0" type="line" smooth="no"/>
      <point x="177" y="0" type="line" smooth="no"/>
      <point x="344" y="0" type="line" smooth="no"/>
      <point x="344" y="36" type="line" smooth="no"/>
      <point x="344" y="71" type="line" smooth="no"/>
      <point x="245" y="71" type="line" smooth="yes"/>
      <point x="190" y="71"/>
      <point x="146" y="71"/>
      <point x="146" y="72" type="curve" smooth="yes"/>
      <point x="244" y="224" type="line" smooth="yes"/>
      <point x="298" y="307"/>
      <point x="343" y="376"/>
      <point x="343" y="378" type="curve" smooth="yes"/>
      <point x="344" y="381"/>
      <point x="318" y="381"/>
      <point x="181" y="381" type="curve" smooth="yes"/>
      <point x="18" y="381" type="line" smooth="no"/>
      <point x="18" y="345" type="line" smooth="no"/>
    </contour>
  </outline>
</glyph>
<glyph name="uni007B" format="1">
  <advance width="284"/>
  <unicode hex="007b"/>
  <outline>
    <contour>
      <point x="127" y="559" type="curve" smooth="no"/>
      <point x="115" y="533"/>
      <point x="110" y="492"/>
      <point x="110" y="405" type="curve" smooth="yes"/>
      <point x="110" y="298"/>
      <point x="92" y="262"/>
      <point x="35" y="255" type="curve" smooth="no"/>
      <point x="24" y="253" type="line" smooth="no"/>
      <point x="24" y="219" type="line" smooth="no"/>
      <point x="25" y="184"/>
      <point x="25" y="184"/>
      <point x="33" y="183" type="curve" smooth="yes"/>
      <point x="66" y="181"/>
      <point x="92" y="159"/>
      <point x="102" y="126" type="curve" smooth="yes"/>
      <point x="106" y="111"/>
      <point x="110" y="66"/>
      <point x="110" y="29" type="curve" smooth="yes"/>
      <point x="110" y="-136"/>
      <point x="132" y="-172"/>
      <point x="235" y="-177" type="curve" smooth="no"/>
      <point x="266" y="-178" type="line" smooth="no"/>
      <point x="266" y="-144" type="line" smooth="no"/>
      <point x="266" y="-110" type="line" smooth="no"/>
      <point x="244" y="-109" type="line" smooth="yes"/>
      <point x="189" y="-106"/>
      <point x="182" y="-94"/>
      <point x="182" y="7" type="curve" smooth="yes"/>
      <point x="182" y="133"/>
      <point x="166" y="180"/>
      <point x="111" y="211" type="curve" smooth="yes"/>
      <point x="104" y="215"/>
      <point x="99" y="219"/>
      <point x="99" y="219" type="curve" smooth="yes"/>
      <point x="99" y="220"/>
      <point x="106" y="224"/>
      <point x="113" y="228" type="curve" smooth="yes"/>
      <point x="167" y="259"/>
      <point x="182" y="304"/>
      <point x="182" y="432" type="curve" smooth="yes"/>
      <point x="182" y="532"/>
      <point x="189" y="544"/>
      <point x="244" y="548" type="curve" smooth="no"/>
      <point x="266" y="549" type="line" smooth="no"/>
      <point x="266" y="583" type="line" smooth="no"/>
      <point x="266" y="616" type="line" smooth="no"/>
      <point x="252" y="616" type="line" smooth="yes"/>
      <point x="245" y="616"/>
      <point x="233" y="615"/>
      <point x="226" y="615" type="curve" smooth="yes"/>
      <point x="173" y="612"/>
      <point x="147" y="597"/>
    </contour>
  </outline>
</glyph>
<glyph name="uni007C" format="1">
  <advance width="223"/>
  <unicode hex="007c"/>
  <outline>
    <contour>
      <point x="79" y="-195" type="line" smooth="no"/>
      <point x="112" y="-195" type="line" smooth="no"/>
      <point x="145" y="-195" type="line" smooth="no"/>
      <point x="145" y="191" type="line" smooth="no"/>
      <point x="145" y="577" type="line" smooth="no"/>
      <point x="112" y="577" type="line" smooth="no"/>
      <point x="79" y="577" type="line" smooth="no"/>
      <point x="79" y="191" type="line" smooth="no"/>
    </contour>
  </outline>
</glyph>
<glyph name="uni007D" format="1">
  <advance width="283"/>
  <unicode hex="007d"/>
  <outline>
    <contour>
      <point x="20" y="549" type="line" smooth="no"/>
      <point x="40" y="548" type="line" smooth="yes"/>
      <point x="96" y="545"/>
      <point x="100" y="536"/>
      <point x="103" y="417" type="curve" smooth="yes"/>
      <point x="106" y="291"/>
      <point x="117" y="259"/>
      <point x="170" y="227" type="curve" smooth="no"/>
      <point x="185" y="219" type="line" smooth="no"/>
      <point x="172" y="211" type="line" smooth="yes"/>
      <point x="117" y="177"/>
      <point x="106" y="147"/>
      <point x="103" y="18" type="curve" smooth="yes"/>
      <point x="100" y="-88"/>
      <point x="98" y="-98"/>
      <point x="65" y="-106" type="curve" smooth="yes"/>
      <point x="57" y="-108"/>
      <point x="44" y="-110"/>
      <point x="36" y="-110" type="curve" smooth="yes"/>
      <point x="20" y="-110" type="line" smooth="no"/>
      <point x="20" y="-144" type="line" smooth="no"/>
      <point x="20" y="-178" type="line" smooth="no"/>
      <point x="48" y="-177" type="line" smooth="yes"/>
      <point x="109" y="-174"/>
      <point x="131" y="-164"/>
      <point x="151" y="-131" type="curve" smooth="yes"/>
      <point x="168" y="-102"/>
      <point x="170" y="-89"/>
      <point x="173" y="19" type="curve" smooth="yes"/>
      <point x="176" y="120"/>
      <point x="180" y="137"/>
      <point x="200" y="159" type="curve" smooth="yes"/>
      <point x="210" y="171"/>
      <point x="228" y="180"/>
      <point x="246" y="182" type="curve" smooth="yes"/>
      <point x="258" y="184" type="line" smooth="no"/>
      <point x="259" y="219" type="line" smooth="no"/>
      <point x="259" y="253" type="line" smooth="no"/>
      <point x="249" y="255" type="line" smooth="no"/>
      <point x="205" y="261"/>
      <point x="183" y="285"/>
      <point x="178" y="335" type="curve" smooth="yes"/>
      <point x="177" y="347"/>
      <point x="175" y="389"/>
      <point x="174" y="429" type="curve" smooth="yes"/>
      <point x="171" y="512"/>
      <point x="169" y="527"/>
      <point x="161" y="548" type="curve" smooth="yes"/>
      <point x="141" y="597"/>
      <point x="117" y="612"/>
      <point x="49" y="615" type="curve" smooth="no"/>
      <point x="20" y="617" type="line" smooth="no"/>
      <point x="20" y="583" type="line" smooth="no"/>
    </contour>
  </outline>
</glyph>
<glyph name="uni007E" format="1">
  <advance width="495"/>
  <unicode hex="007e"/>
  <outline>
    <contour>
      <point x="374" y="305" type="curve" smooth="yes"/>
      <point x="347" y="298"/>
      <point x="326" y="301"/>
      <point x="278" y="322" type="curve" smooth="yes"/>
      <point x="178" y="364"/>
      <point x="118" y="365"/>
      <point x="63" y="328" type="curve" smooth="yes"/>
      <point x="35" y="309"/>
      <point x="36" y="311"/>
      <point x="36" y="263" type="curve" smooth="yes"/>
      <point x="36" y="240"/>
      <point x="36" y="220"/>
      <point x="37" y="220" type="curve" smooth="yes"/>
      <point x="38" y="220"/>
      <point x="45" y="226"/>
      <point x="53" y="233" type="curve" smooth="yes"/>
      <point x="114" y="285"/>
      <point x="142" y="287"/>
      <point x="245" y="245" type="curve" smooth="yes"/>
      <point x="331" y="210"/>
      <point x="389" y="214"/>
      <point x="449" y="259" type="curve" smooth="no"/>
      <point x="460" y="268" type="line" smooth="no"/>
      <point x="460" y="312" type="line" smooth="yes"/>
      <point x="460" y="337"/>
      <point x="459" y="357"/>
      <point x="458" y="357" type="curve" smooth="yes"/>
      <point x="458" y="357"/>
      <point x="453" y="353"/>
      <point x="449" y="349" type="curve" smooth="yes"/>
      <point x="432" y="331"/>
      <point x="399" y="312"/>
    </contour>
  </outline>
</glyph>
<glyph name="uni007F" format="1">
  <advance width="141"/>
  <unicode hex="007f"/>
  <outline>
    <contour>
      <point x="34" y="269" type="curve" smooth="yes"/>
      <point x="46" y="194"/>
      <point x="59" y="158"/>
      <point x="70" y="168" type="curve" smooth="yes"/>
      <point x="88" y="184"/>
      <point x="116" y="393"/>
      <point x="111" y="479" type="curve" smooth="no"/>
      <point x="108" y="555"/>
      <point x="86" y="594"/>
      <point x="54" y="580" type="curve" smooth="yes"/>
      <point x="15" y="563"/>
      <point x="7" y="443"/>
    </contour>
    <contour>
      <point x="47" y="-4" type="curve" smooth="yes"/>
      <point x="73" y="-11"/>
      <point x="99" y="-1"/>
      <point x="110" y="19" type="curve" smooth="yes"/>
      <point x="130" y="59"/>
      <point x="95" y="105"/>
      <point x="52" y="95" type="curve" smooth="yes"/>
      <point x="2" y="83"/>
      <point x="-1" y="10"/>
    </contour>
  </outline>
</glyph>
<glyph name="uni00A2" format="1">
  <advance width="569"/>
  <unicode hex="00a2"/>
  <outline>
    <contour>
      <point x="431" y="403" type="curve" smooth="yes"/>
      <point x="425" y="386" type="line" smooth="no"/>
      <point x="393" y="386" type="line" smooth="no"/>
      <point x="346" y="385"/>
      <point x="306" y="373"/>
      <point x="271" y="346" type="curve" smooth="yes"/>
      <point x="199" y="293"/>
      <point x="180" y="152"/>
      <point x="235" y="70" type="curve" smooth="yes"/>
      <point x="244" y="55"/>
      <point x="271" y="27"/>
      <point x="283" y="20" type="curve" smooth="yes"/>
      <point x="287" y="18"/>
      <point x="290" y="15"/>
      <point x="290" y="14" type="curve" smooth="yes"/>
      <point x="290" y="13"/>
      <point x="238" y="-131"/>
      <point x="228" y="-157" type="curve" smooth="yes"/>
      <point x="226" y="-161"/>
      <point x="228" y="-161"/>
      <point x="248" y="-161" type="curve" smooth="yes"/>
      <point x="270" y="-161" type="line" smooth="no"/>
      <point x="298" y="-82" type="line" smooth="yes"/>
      <point x="327" y="-2"/>
      <point x="327" y="-2"/>
      <point x="334" y="-4" type="curve" smooth="yes"/>
      <point x="389" y="-13"/>
      <point x="434" y="-9"/>
      <point x="488" y="8" type="curve" smooth="yes"/>
      <point x="507" y="14" type="line" smooth="no"/>
      <point x="508" y="52" type="line" smooth="no"/>
      <point x="508" y="90" type="line" smooth="no"/>
      <point x="493" y="83" type="line" smooth="yes"/>
      <point x="456" y="66"/>
      <point x="405" y="60"/>
      <point x="370" y="69" type="curve" smooth="yes"/>
      <point x="361" y="71"/>
      <point x="354" y="74"/>
      <point x="354" y="75" type="curve" smooth="yes"/>
      <point x="354" y="77"/>
      <point x="373" y="129"/>
      <point x="396" y="192" type="curve" smooth="yes"/>
      <point x="432" y="292"/>
      <point x="438" y="306"/>
      <point x="442" y="306" type="curve" smooth="yes"/>
      <point x="450" y="305"/>
      <point x="471" y="296"/>
      <point x="484" y="288" type="curve" smooth="yes"/>
      <point x="491" y="283"/>
      <point x="498" y="279"/>
      <point x="498" y="279" type="curve" smooth="yes"/>
      <point x="499" y="279"/>
      <point x="499" y="297"/>
      <point x="499" y="320" type="curve" smooth="yes"/>
      <point x="499" y="361" type="line" smooth="no"/>
      <point x="485" y="367" type="line" smooth="yes"/>
      <point x="477" y="371"/>
      <point x="469" y="374"/>
      <point x="468" y="374" type="curve" smooth="yes"/>
      <point x="462" y="374"/>
      <point x="463" y="376"/>
      <point x="489" y="450" type="curve" smooth="yes"/>
      <point x="503" y="488"/>
      <point x="515" y="521"/>
      <point x="515" y="522" type="curve" smooth="yes"/>
      <point x="515" y="522"/>
      <point x="506" y="523"/>
      <point x="494" y="523" type="curve" smooth="yes"/>
      <point x="474" y="523" type="line" smooth="no"/>
      <point x="455" y="472" type="line" smooth="yes"/>
      <point x="445" y="444"/>
      <point x="434" y="413"/>
    </contour>
    <contour>
      <point x="320" y="96" type="curve" smooth="yes"/>
      <point x="319" y="96"/>
      <point x="315" y="100"/>
      <point x="310" y="105" type="curve" smooth="yes"/>
      <point x="260" y="161"/>
      <point x="278" y="270"/>
      <point x="342" y="301" type="curve" smooth="yes"/>
      <point x="362" y="311"/>
      <point x="398" y="318"/>
      <point x="398" y="313" type="curve" smooth="yes"/>
      <point x="398" y="311"/>
      <point x="321" y="98"/>
    </contour>
  </outline>
</glyph>
<glyph name="uni00A3" format="1">
  <advance width="836"/>
  <unicode hex="00a3"/>
  <outline>
    <contour>
      <point x="318" y="333" type="curve" smooth="no"/>
      <point x="312" y="314" type="line" smooth="no"/>
      <point x="273" y="314" type="line" smooth="no"/>
      <point x="233" y="314" type="line" smooth="no"/>
      <point x="233" y="277" type="line" smooth="no"/>
      <point x="233" y="239" type="line" smooth="no"/>
      <point x="263" y="239" type="line" smooth="yes"/>
      <point x="293" y="239"/>
      <point x="293" y="239"/>
      <point x="292" y="234" type="curve" smooth="yes"/>
      <point x="291" y="232"/>
      <point x="276" y="177"/>
      <point x="259" y="112" type="curve" smooth="yes"/>
      <point x="242" y="47"/>
      <point x="228" y="-6"/>
      <point x="229" y="-7" type="curve" smooth="yes"/>
      <point x="230" y="-7"/>
      <point x="240" y="-6"/>
      <point x="251" y="-4" type="curve" smooth="yes"/>
      <point x="318" y="7"/>
      <point x="377" y="8"/>
      <point x="440" y="-1" type="curve" smooth="yes"/>
      <point x="490" y="-9"/>
      <point x="528" y="-9"/>
      <point x="562" y="-2" type="curve" smooth="yes"/>
      <point x="600" y="5"/>
      <point x="596" y="-1"/>
      <point x="596" y="47" type="curve" smooth="yes"/>
      <point x="596" y="88" type="line" smooth="no"/>
      <point x="595" y="88"/>
      <point x="590" y="86"/>
      <point x="585" y="83" type="curve" smooth="yes"/>
      <point x="555" y="70"/>
      <point x="499" y="67"/>
      <point x="453" y="76" type="curve" smooth="yes"/>
      <point x="433" y="80"/>
      <point x="418" y="82"/>
      <point x="381" y="83" type="curve" smooth="yes"/>
      <point x="333" y="84" type="line" smooth="no"/>
      <point x="354" y="161" type="line" smooth="no"/>
      <point x="374" y="239" type="line" smooth="no"/>
      <point x="417" y="239" type="line" smooth="no"/>
      <point x="460" y="239" type="line" smooth="no"/>
      <point x="460" y="277" type="line" smooth="no"/>
      <point x="460" y="314" type="line" smooth="no"/>
      <point x="428" y="314" type="line" smooth="yes"/>
      <point x="398" y="314"/>
      <point x="396" y="314"/>
      <point x="397" y="318" type="curve" smooth="yes"/>
      <point x="398" y="320"/>
      <point x="403" y="333"/>
      <point x="407" y="346" type="curve" smooth="yes"/>
      <point x="453" y="477"/>
      <point x="509" y="523"/>
      <point x="591" y="495" type="curve" smooth="yes"/>
      <point x="598" y="492"/>
      <point x="604" y="491"/>
      <point x="604" y="491" type="curve" smooth="yes"/>
      <point x="605" y="491"/>
      <point x="594" y="512"/>
      <point x="581" y="536" type="curve" smooth="yes"/>
      <point x="559" y="579"/>
      <point x="558" y="580"/>
      <point x="550" y="581" type="curve" smooth="yes"/>
      <point x="536" y="584"/>
      <point x="508" y="582"/>
      <point x="495" y="579" type="curve" smooth="yes"/>
      <point x="421" y="559"/>
      <point x="362" y="478"/>
    </contour>
  </outline>
</glyph>
<glyph name="uni00A4" format="1">
  <advance width="482"/>
  <unicode hex="00a4"/>
  <outline>
    <contour>
      <point x="42" y="441" type="curve" smooth="yes"/>
      <point x="42" y="440"/>
      <point x="54" y="426"/>
      <point x="69" y="411" type="curve" smooth="yes"/>
      <point x="97" y="383" type="line" smooth="no"/>
      <point x="88" y="366" type="line" smooth="no"/>
      <point x="63" y="315"/>
      <point x="63" y="262"/>
      <point x="88" y="209" type="curve" smooth="yes"/>
      <point x="97" y="190" type="line" smooth="no"/>
      <point x="69" y="163" type="line" smooth="yes"/>
      <point x="54" y="148"/>
      <point x="42" y="135"/>
      <point x="42" y="134" type="curve" smooth="yes"/>
      <point x="43" y="133"/>
      <point x="53" y="121"/>
      <point x="66" y="107" type="curve" smooth="yes"/>
      <point x="89" y="83" type="line" smooth="no"/>
      <point x="118" y="112" type="line" smooth="no"/>
      <point x="147" y="140" type="line" smooth="no"/>
      <point x="166" y="131" type="line" smooth="no"/>
      <point x="193" y="117"/>
      <point x="211" y="113"/>
      <point x="244" y="113" type="curve" smooth="yes"/>
      <point x="278" y="113"/>
      <point x="296" y="117"/>
      <point x="323" y="131" type="curve" smooth="no"/>
      <point x="342" y="140" type="line" smooth="no"/>
      <point x="371" y="112" type="line" smooth="no"/>
      <point x="400" y="83" type="line" smooth="no"/>
      <point x="424" y="109" type="line" smooth="no"/>
      <point x="449" y="135" type="line" smooth="no"/>
      <point x="420" y="162" type="line" smooth="no"/>
      <point x="391" y="190" type="line" smooth="no"/>
      <point x="399" y="205" type="line" smooth="no"/>
      <point x="426" y="259"/>
      <point x="426" y="312"/>
      <point x="399" y="368" type="curve" smooth="no"/>
      <point x="392" y="384" type="line" smooth="no"/>
      <point x="421" y="412" type="line" smooth="no"/>
      <point x="449" y="441" type="line" smooth="no"/>
      <point x="424" y="466" type="line" smooth="no"/>
      <point x="398" y="491" type="line" smooth="no"/>
      <point x="370" y="463" type="line" smooth="no"/>
      <point x="342" y="435" type="line" smooth="no"/>
      <point x="321" y="445" type="line" smooth="yes"/>
      <point x="273" y="468"/>
      <point x="215" y="468"/>
      <point x="167" y="444" type="curve" smooth="no"/>
      <point x="146" y="434" type="line" smooth="no"/>
      <point x="119" y="462" type="line" smooth="yes"/>
      <point x="104" y="477"/>
      <point x="92" y="490"/>
      <point x="91" y="490" type="curve" smooth="yes"/>
      <point x="90" y="490"/>
      <point x="79" y="480"/>
      <point x="66" y="467" type="curve" smooth="yes"/>
      <point x="53" y="453"/>
      <point x="42" y="442"/>
    </contour>
    <contour>
      <point x="338" y="243" type="curve" smooth="yes"/>
      <point x="295" y="153"/>
      <point x="167" y="167"/>
      <point x="142" y="265" type="curve" smooth="yes"/>
      <point x="124" y="335"/>
      <point x="192" y="405"/>
      <point x="263" y="390" type="curve" smooth="yes"/>
      <point x="331" y="376"/>
      <point x="368" y="305"/>
    </contour>
  </outline>
</glyph>
<glyph name="uni00A5" format="1">
  <advance width="555"/>
  <unicode hex="00a5"/>
  <outline>
    <contour>
      <point x="143" y="457" type="curve" smooth="yes"/>
      <point x="225" y="313" type="line" smooth="no"/>
      <point x="155" y="313" type="line" smooth="no"/>
      <point x="86" y="312" type="line" smooth="no"/>
      <point x="86" y="280" type="line" smooth="no"/>
      <point x="86" y="248" type="line" smooth="no"/>
      <point x="172" y="248" type="line" smooth="no"/>
      <point x="258" y="248" type="line" smooth="no"/>
      <point x="258" y="220" type="line" smooth="no"/>
      <point x="258" y="191" type="line" smooth="no"/>
      <point x="172" y="191" type="line" smooth="no"/>
      <point x="86" y="191" type="line" smooth="no"/>
      <point x="86" y="162" type="line" smooth="no"/>
      <point x="86" y="134" type="line" smooth="no"/>
      <point x="172" y="134" type="line" smooth="no"/>
      <point x="258" y="134" type="line" smooth="no"/>
      <point x="258" y="67" type="line" smooth="no"/>
      <point x="258" y="0" type="line" smooth="no"/>
      <point x="296" y="0" type="line" smooth="no"/>
      <point x="335" y="0" type="line" smooth="no"/>
      <point x="335" y="67" type="line" smooth="no"/>
      <point x="335" y="134" type="line" smooth="no"/>
      <point x="418" y="134" type="line" smooth="no"/>
      <point x="502" y="134" type="line" smooth="no"/>
      <point x="502" y="162" type="line" smooth="no"/>
      <point x="502" y="191" type="line" smooth="no"/>
      <point x="418" y="191" type="line" smooth="no"/>
      <point x="335" y="191" type="line" smooth="no"/>
      <point x="335" y="220" type="line" smooth="no"/>
      <point x="335" y="248" type="line" smooth="no"/>
      <point x="418" y="248" type="line" smooth="no"/>
      <point x="502" y="248" type="line" smooth="no"/>
      <point x="502" y="280" type="line" smooth="no"/>
      <point x="502" y="312" type="line" smooth="no"/>
      <point x="433" y="312" type="line" smooth="yes"/>
      <point x="380" y="312"/>
      <point x="365" y="313"/>
      <point x="366" y="315" type="curve" smooth="yes"/>
      <point x="367" y="316"/>
      <point x="403" y="381"/>
      <point x="448" y="459" type="curve" smooth="yes"/>
      <point x="492" y="537"/>
      <point x="528" y="602"/>
      <point x="528" y="603" type="curve" smooth="yes"/>
      <point x="528" y="604"/>
      <point x="509" y="604"/>
      <point x="484" y="604" type="curve" smooth="yes"/>
      <point x="439" y="604" type="line" smooth="no"/>
      <point x="389" y="511" type="line" smooth="yes"/>
      <point x="361" y="460"/>
      <point x="328" y="399"/>
      <point x="316" y="375" type="curve" smooth="yes"/>
      <point x="294" y="332" type="line" smooth="no"/>
      <point x="283" y="353" type="line" smooth="yes"/>
      <point x="277" y="365"/>
      <point x="244" y="426"/>
      <point x="209" y="490" type="curve" smooth="yes"/>
      <point x="145" y="605" type="line" smooth="no"/>
      <point x="103" y="605" type="line" smooth="yes"/>
      <point x="80" y="605"/>
      <point x="62" y="604"/>
      <point x="62" y="603" type="curve" smooth="yes"/>
      <point x="62" y="602"/>
      <point x="98" y="536"/>
    </contour>
  </outline>
</glyph>
<glyph name="uni00A6" format="1">
  <advance width="75"/>
  <unicode hex="00a6"/>
  <outline>
    <contour>
      <point x="5" y="288" type="line" smooth="no"/>
      <point x="38" y="288" type="line" smooth="no"/>
      <point x="71" y="288" type="line" smooth="no"/>
      <point x="71" y="432" type="line" smooth="no"/>
      <point x="71" y="576" type="line" smooth="no"/>
      <point x="38" y="576" type="line" smooth="no"/>
      <point x="5" y="576" type="line" smooth="no"/>
      <point x="5" y="432" type="line" smooth="no"/>
    </contour>
    <contour>
      <point x="5" y="-196" type="line" smooth="no"/>
      <point x="38" y="-196" type="line" smooth="no"/>
      <point x="71" y="-196" type="line" smooth="no"/>
      <point x="71" y="-23" type="line" smooth="no"/>
      <point x="71" y="149" type="line" smooth="no"/>
      <point x="38" y="149" type="line" smooth="no"/>
      <point x="5" y="149" type="line" smooth="no"/>
      <point x="5" y="-23" type="line" smooth="no"/>
    </contour>
  </outline>
</glyph>
<glyph name="uni00A7" format="1">
  <advance width="287"/>
  <unicode hex="00a7"/>
  <outline>
    <contour>
      <point x="49" y="382" type="curve" smooth="no"/>
      <point x="55" y="371" type="line" smooth="no"/>
      <point x="45" y="361" type="line" smooth="yes"/>
      <point x="15" y="330"/>
      <point x="-3" y="282"/>
      <point x="0" y="242" type="curve" smooth="yes"/>
      <point x="5" y="178"/>
      <point x="26" y="138"/>
      <point x="88" y="73" type="curve" smooth="yes"/>
      <point x="176" y="-20"/>
      <point x="198" y="-59"/>
      <point x="185" y="-98" type="curve" smooth="yes"/>
      <point x="175" y="-126"/>
      <point x="134" y="-148"/>
      <point x="118" y="-133" type="curve" smooth="yes"/>
      <point x="113" y="-128"/>
      <point x="112" y="-127"/>
      <point x="113" y="-112" type="curve" smooth="yes"/>
      <point x="117" y="-57"/>
      <point x="48" y="-47"/>
      <point x="29" y="-99" type="curve" smooth="yes"/>
      <point x="11" y="-150"/>
      <point x="61" y="-197"/>
      <point x="131" y="-193" type="curve" smooth="no"/>
      <point x="233" y="-189"/>
      <point x="286" y="-89"/>
      <point x="238" y="7" type="curve" smooth="yes"/>
      <point x="228" y="27" type="line" smooth="no"/>
      <point x="237" y="36" type="line" smooth="no"/>
      <point x="275" y="78"/>
      <point x="288" y="109"/>
      <point x="288" y="157" type="curve" smooth="yes"/>
      <point x="289" y="220"/>
      <point x="266" y="261"/>
      <point x="189" y="338" type="curve" smooth="yes"/>
      <point x="142" y="385"/>
      <point x="129" y="400"/>
      <point x="115" y="428" type="curve" smooth="yes"/>
      <point x="91" y="476"/>
      <point x="104" y="517"/>
      <point x="146" y="526" type="curve" smooth="no"/>
      <point x="170" y="530"/>
      <point x="182" y="522"/>
      <point x="182" y="501" type="curve" smooth="yes"/>
      <point x="182" y="453"/>
      <point x="246" y="449"/>
      <point x="259" y="497" type="curve" smooth="yes"/>
      <point x="274" y="552"/>
      <point x="198" y="599"/>
      <point x="126" y="578" type="curve" smooth="yes"/>
      <point x="44" y="555"/>
      <point x="8" y="462"/>
    </contour>
    <contour>
      <point x="210" y="192" type="curve" smooth="yes"/>
      <point x="224" y="164"/>
      <point x="224" y="136"/>
      <point x="212" y="109" type="curve" smooth="yes"/>
      <point x="206" y="96"/>
      <point x="193" y="78"/>
      <point x="191" y="79" type="curve" smooth="yes"/>
      <point x="188" y="81"/>
      <point x="118" y="157"/>
      <point x="103" y="175" type="curve" smooth="yes"/>
      <point x="72" y="213"/>
      <point x="60" y="255"/>
      <point x="72" y="286" type="curve" smooth="yes"/>
      <point x="76" y="298"/>
      <point x="89" y="321"/>
      <point x="92" y="321" type="curve" smooth="yes"/>
      <point x="93" y="321"/>
      <point x="115" y="298"/>
      <point x="143" y="271" type="curve" smooth="no"/>
      <point x="197" y="216"/>
      <point x="200" y="212"/>
    </contour>
  </outline>
</glyph>
<glyph name="uni00A8" format="1">
  <advance width="803"/>
  <unicode hex="00a8"/>
  <outline>
    <contour>
      <point x="288" y="504" type="curve" smooth="yes"/>
      <point x="302" y="476"/>
      <point x="346" y="476"/>
      <point x="359" y="504" type="curve" smooth="yes"/>
      <point x="374" y="539"/>
      <point x="341" y="575"/>
      <point x="307" y="560" type="curve" smooth="yes"/>
      <point x="286" y="551"/>
      <point x="278" y="526"/>
    </contour>
    <contour>
      <point x="491" y="484" type="curve" smooth="yes"/>
      <point x="536" y="494"/>
      <point x="528" y="563"/>
      <point x="481" y="563" type="curve" smooth="yes"/>
      <point x="476" y="563"/>
      <point x="469" y="561"/>
      <point x="465" y="560" type="curve" smooth="yes"/>
      <point x="422" y="540"/>
      <point x="445" y="474"/>
    </contour>
  </outline>
</glyph>
<glyph name="uni00A9" format="1">
  <advance width="739"/>
  <unicode hex="00a9"/>
  <outline>
    <contour>
      <point x="113" y="448" type="curve" smooth="yes"/>
      <point x="6" y="297"/>
      <point x="64" y="75"/>
      <point x="232" y="-6" type="curve" smooth="yes"/>
      <point x="464" y="-117"/>
      <point x="725" y="81"/>
      <point x="675" y="331" type="curve" smooth="yes"/>
      <point x="660" y="410"/>
      <point x="616" y="478"/>
      <point x="550" y="526" type="curve" smooth="yes"/>
      <point x="493" y="567"/>
      <point x="413" y="589"/>
      <point x="342" y="583" type="curve" smooth="no"/>
      <point x="251" y="574"/>
      <point x="166" y="524"/>
    </contour>
    <contour>
      <point x="626" y="269" type="curve" smooth="yes"/>
      <point x="625" y="130"/>
      <point x="507" y="16"/>
      <point x="367" y="17" type="curve" smooth="yes"/>
      <point x="227" y="18"/>
      <point x="113" y="135"/>
      <point x="114" y="276" type="curve" smooth="yes"/>
      <point x="115" y="403"/>
      <point x="209" y="507"/>
      <point x="342" y="528" type="curve" smooth="yes"/>
      <point x="359" y="531"/>
      <point x="406" y="528"/>
      <point x="427" y="522" type="curve" smooth="yes"/>
      <point x="547" y="492"/>
      <point x="627" y="390"/>
    </contour>
    <contour>
      <point x="229" y="370" type="curve" smooth="yes"/>
      <point x="197" y="306"/>
      <point x="199" y="225"/>
      <point x="235" y="164" type="curve" smooth="yes"/>
      <point x="288" y="73"/>
      <point x="442" y="69"/>
      <point x="499" y="158" type="curve" smooth="yes"/>
      <point x="507" y="170"/>
      <point x="523" y="206"/>
      <point x="521" y="208" type="curve" smooth="no"/>
      <point x="521" y="208"/>
      <point x="509" y="212"/>
      <point x="495" y="216" type="curve" smooth="yes"/>
      <point x="471" y="223"/>
      <point x="469" y="223"/>
      <point x="467" y="220" type="curve" smooth="no"/>
      <point x="447" y="155"/>
      <point x="376" y="125"/>
      <point x="318" y="158" type="curve" smooth="yes"/>
      <point x="245" y="200"/>
      <point x="249" y="352"/>
      <point x="324" y="387" type="curve" smooth="yes"/>
      <point x="376" y="412"/>
      <point x="430" y="396"/>
      <point x="459" y="346" type="curve" smooth="yes"/>
      <point x="462" y="341"/>
      <point x="466" y="336"/>
      <point x="468" y="337" type="curve" smooth="yes"/>
      <point x="469" y="337"/>
      <point x="480" y="340"/>
      <point x="493" y="343" type="curve" smooth="yes"/>
      <point x="518" y="349"/>
      <point x="518" y="348"/>
      <point x="508" y="368" type="curve" smooth="yes"/>
      <point x="486" y="414"/>
      <point x="450" y="440"/>
      <point x="400" y="445" type="curve" smooth="yes"/>
      <point x="374" y="448"/>
      <point x="371" y="448"/>
      <point x="354" y="446" type="curve" smooth="yes"/>
      <point x="299" y="441"/>
      <point x="250" y="411"/>
    </contour>
  </outline>
</glyph>
<glyph name="uni00AA" format="1">
  <advance width="261"/>
  <unicode hex="00aa"/>
  <outline>
    <contour>
      <point x="36" y="559" type="curve" smooth="yes"/>
      <point x="25" y="551" type="line" smooth="no"/>
      <point x="25" y="521" type="line" smooth="yes"/>
      <point x="25" y="504"/>
      <point x="26" y="490"/>
      <point x="27" y="490" type="curve" smooth="yes"/>
      <point x="42" y="503" type="line" smooth="yes"/>
      <point x="89" y="545"/>
      <point x="141" y="543"/>
      <point x="146" y="498" type="curve" smooth="yes"/>
      <point x="147" y="489"/>
      <point x="147" y="489"/>
      <point x="116" y="480" type="curve" smooth="yes"/>
      <point x="34" y="454"/>
      <point x="5" y="418"/>
      <point x="30" y="374" type="curve" smooth="yes"/>
      <point x="48" y="342"/>
      <point x="100" y="335"/>
      <point x="141" y="358" type="curve" smooth="yes"/>
      <point x="148" y="362"/>
      <point x="148" y="362"/>
      <point x="151" y="358" type="curve" smooth="yes"/>
      <point x="160" y="341"/>
      <point x="195" y="340"/>
      <point x="228" y="356" type="curve" smooth="no"/>
      <point x="241" y="363" type="line" smooth="no"/>
      <point x="241" y="381" type="line" smooth="yes"/>
      <point x="241" y="403"/>
      <point x="242" y="402"/>
      <point x="225" y="392" type="curve" smooth="yes"/>
      <point x="205" y="380"/>
      <point x="206" y="378"/>
      <point x="206" y="442" type="curve" smooth="yes"/>
      <point x="205" y="539"/>
      <point x="197" y="562"/>
      <point x="156" y="576" type="curve" smooth="no"/>
      <point x="139" y="583"/>
      <point x="96" y="584"/>
      <point x="78" y="579" type="curve" smooth="yes"/>
      <point x="61" y="574"/>
      <point x="48" y="568"/>
    </contour>
    <contour>
      <point x="119" y="385" type="curve" smooth="yes"/>
      <point x="93" y="378"/>
      <point x="73" y="403"/>
      <point x="87" y="425" type="curve" smooth="yes"/>
      <point x="92" y="434"/>
      <point x="129" y="453"/>
      <point x="145" y="455" type="curve" smooth="yes"/>
      <point x="146" y="455"/>
      <point x="146" y="442"/>
      <point x="146" y="426" type="curve" smooth="yes"/>
      <point x="146" y="395"/>
      <point x="144" y="392"/>
    </contour>
  </outline>
</glyph>
<glyph name="uni00AB" format="1">
  <advance width="373"/>
  <unicode hex="00ab"/>
  <outline>
    <contour>
      <point x="1" y="192" type="curve" smooth="yes"/>
      <point x="-1" y="190"/>
      <point x="114" y="11"/>
      <point x="123" y="2" type="curve" smooth="yes"/>
      <point x="125" y="0"/>
      <point x="135" y="0"/>
      <point x="163" y="0" type="curve" smooth="yes"/>
      <point x="201" y="1" type="line" smooth="no"/>
      <point x="139" y="95" type="line" smooth="yes"/>
      <point x="103" y="151"/>
      <point x="78" y="190"/>
      <point x="79" y="192" type="curve" smooth="yes"/>
      <point x="80" y="193"/>
      <point x="108" y="236"/>
      <point x="141" y="286" type="curve" smooth="yes"/>
      <point x="174" y="336"/>
      <point x="201" y="378"/>
      <point x="201" y="379" type="curve" smooth="yes"/>
      <point x="201" y="380"/>
      <point x="184" y="380"/>
      <point x="163" y="380" type="curve" smooth="yes"/>
      <point x="125" y="380" type="line" smooth="no"/>
      <point x="64" y="287" type="line" smooth="yes"/>
      <point x="30" y="236"/>
      <point x="1" y="193"/>
    </contour>
    <contour>
      <point x="174" y="190" type="curve" smooth="yes"/>
      <point x="174" y="187"/>
      <point x="201" y="144"/>
      <point x="234" y="93" type="curve" smooth="yes"/>
      <point x="295" y="0" type="line" smooth="no"/>
      <point x="334" y="0" type="line" smooth="no"/>
      <point x="373" y="0" type="line" smooth="no"/>
      <point x="343" y="44" type="line" smooth="no"/>
      <point x="281" y="139" type="line" smooth="no"/>
      <point x="248" y="189" type="line" smooth="no"/>
      <point x="279" y="237" type="line" smooth="yes"/>
      <point x="296" y="263"/>
      <point x="324" y="306"/>
      <point x="342" y="331" type="curve" smooth="no"/>
      <point x="359" y="357"/>
      <point x="373" y="378"/>
      <point x="373" y="379" type="curve" smooth="yes"/>
      <point x="373" y="380"/>
      <point x="355" y="380"/>
      <point x="334" y="380" type="curve" smooth="yes"/>
      <point x="296" y="380" type="line" smooth="no"/>
      <point x="235" y="287" type="line" smooth="yes"/>
      <point x="201" y="236"/>
      <point x="174" y="192"/>
    </contour>
  </outline>
</glyph>
<glyph name="uni00AD" format="1">
  <advance width="436"/>
  <unicode hex="00ad"/>
  <outline>
    <contour>
      <point x="24" y="286" type="line" smooth="no"/>
      <point x="187" y="286" type="line" smooth="no"/>
      <point x="351" y="286" type="line" smooth="no"/>
      <point x="351" y="195" type="line" smooth="no"/>
      <point x="351" y="105" type="line" smooth="no"/>
      <point x="388" y="105" type="line" smooth="no"/>
      <point x="424" y="105" type="line" smooth="no"/>
      <point x="424" y="231" type="line" smooth="no"/>
      <point x="424" y="356" type="line" smooth="no"/>
      <point x="224" y="356" type="line" smooth="no"/>
      <point x="24" y="356" type="line" smooth="no"/>
      <point x="24" y="321" type="line" smooth="no"/>
    </contour>
  </outline>
</glyph>
<glyph name="uni00AE" format="1">
  <advance width="695"/>
  <unicode hex="00ae"/>
  <outline>
    <contour>
      <point x="94" y="448" type="curve" smooth="yes"/>
      <point x="-13" y="297"/>
      <point x="45" y="75"/>
      <point x="212" y="-6" type="curve" smooth="no"/>
      <point x="445" y="-117"/>
      <point x="706" y="81"/>
      <point x="656" y="331" type="curve" smooth="yes"/>
      <point x="640" y="410"/>
      <point x="597" y="478"/>
      <point x="531" y="526" type="curve" smooth="yes"/>
      <point x="474" y="567"/>
      <point x="393" y="589"/>
      <point x="323" y="583" type="curve" smooth="yes"/>
      <point x="232" y="574"/>
      <point x="147" y="524"/>
    </contour>
    <contour>
      <point x="607" y="269" type="curve" smooth="yes"/>
      <point x="606" y="130"/>
      <point x="488" y="16"/>
      <point x="347" y="17" type="curve" smooth="yes"/>
      <point x="208" y="18"/>
      <point x="94" y="135"/>
      <point x="95" y="276" type="curve" smooth="yes"/>
      <point x="96" y="403"/>
      <point x="190" y="507"/>
      <point x="323" y="528" type="curve" smooth="yes"/>
      <point x="340" y="531"/>
      <point x="387" y="528"/>
      <point x="408" y="522" type="curve" smooth="yes"/>
      <point x="528" y="492"/>
      <point x="607" y="390"/>
    </contour>
    <contour>
      <point x="225" y="105" type="line" smooth="no"/>
      <point x="254" y="105" type="line" smooth="no"/>
      <point x="282" y="105" type="line" smooth="no"/>
      <point x="282" y="176" type="line" smooth="no"/>
      <point x="282" y="246" type="line" smooth="no"/>
      <point x="303" y="246" type="line" smooth="yes"/>
      <point x="354" y="246"/>
      <point x="371" y="231"/>
      <point x="423" y="135" type="curve" smooth="no"/>
      <point x="440" y="105" type="line" smooth="no"/>
      <point x="475" y="105" type="line" smooth="yes"/>
      <point x="510" y="105"/>
      <point x="510" y="105"/>
      <point x="506" y="110" type="curve" smooth="no"/>
      <point x="505" y="113"/>
      <point x="493" y="132"/>
      <point x="480" y="153" type="curve" smooth="yes"/>
      <point x="447" y="206"/>
      <point x="427" y="232"/>
      <point x="411" y="244" type="curve" smooth="no"/>
      <point x="397" y="253"/>
      <point x="396" y="257"/>
      <point x="406" y="257" type="curve" smooth="yes"/>
      <point x="413" y="257"/>
      <point x="434" y="266"/>
      <point x="446" y="274" type="curve" smooth="yes"/>
      <point x="492" y="305"/>
      <point x="498" y="375"/>
      <point x="459" y="412" type="curve" smooth="no"/>
      <point x="431" y="437"/>
      <point x="418" y="439"/>
      <point x="307" y="441" type="curve" smooth="yes"/>
      <point x="225" y="442" type="line" smooth="no"/>
      <point x="225" y="274" type="line" smooth="no"/>
    </contour>
    <contour>
      <point x="425" y="347" type="curve" smooth="yes"/>
      <point x="426" y="307"/>
      <point x="399" y="294"/>
      <point x="315" y="294" type="curve" smooth="yes"/>
      <point x="282" y="294" type="line" smooth="no"/>
      <point x="282" y="344" type="line" smooth="no"/>
      <point x="282" y="393" type="line" smooth="no"/>
      <point x="317" y="393" type="line" smooth="yes"/>
      <point x="336" y="393"/>
      <point x="360" y="392"/>
      <point x="371" y="391" type="curve" smooth="yes"/>
      <point x="408" y="386"/>
      <point x="425" y="373"/>
    </contour>
  </outline>
</glyph>
<glyph name="uni00AF" format="1">
  <advance width="614"/>
  <unicode hex="00af"/>
  <outline>
    <contour>
      <point x="58" y="616" type="line" smooth="no"/>
      <point x="307" y="616" type="line" smooth="no"/>
      <point x="555" y="616" type="line" smooth="no"/>
      <point x="555" y="643" type="line" smooth="no"/>
      <point x="555" y="671" type="line" smooth="no"/>
      <point x="307" y="671" type="line" smooth="no"/>
      <point x="58" y="671" type="line" smooth="no"/>
      <point x="58" y="643" type="line" smooth="no"/>
    </contour>
  </outline>
</glyph>
<glyph name="uni00B0" format="1">
  <advance width="303"/>
  <unicode hex="00b0"/>
  <outline>
    <contour>
      <point x="54" y="439" type="curve" smooth="no"/>
      <point x="93" y="374"/>
      <point x="193" y="366"/>
      <point x="240" y="425" type="curve" smooth="yes"/>
      <point x="306" y="507"/>
      <point x="241" y="626"/>
      <point x="137" y="613" type="curve" smooth="yes"/>
      <point x="55" y="603"/>
      <point x="12" y="512"/>
    </contour>
    <contour>
      <point x="211" y="468" type="curve" smooth="yes"/>
      <point x="179" y="405"/>
      <point x="84" y="429"/>
      <point x="85" y="500" type="curve" smooth="yes"/>
      <point x="86" y="548"/>
      <point x="135" y="580"/>
      <point x="179" y="561" type="curve" smooth="yes"/>
      <point x="215" y="545"/>
      <point x="229" y="503"/>
    </contour>
  </outline>
</glyph>
<glyph name="uni00B1" format="1">
  <advance width="401"/>
  <unicode hex="00b1"/>
  <outline>
    <contour>
      <point x="166" y="343" type="line" smooth="no"/>
      <point x="83" y="343" type="line" smooth="no"/>
      <point x="1" y="343" type="line" smooth="no"/>
      <point x="1" y="308" type="line" smooth="no"/>
      <point x="1" y="272" type="line" smooth="no"/>
      <point x="83" y="272" type="line" smooth="no"/>
      <point x="166" y="272" type="line" smooth="no"/>
      <point x="166" y="189" type="line" smooth="no"/>
      <point x="166" y="105" type="line" smooth="no"/>
      <point x="201" y="105" type="line" smooth="no"/>
      <point x="236" y="105" type="line" smooth="no"/>
      <point x="236" y="189" type="line" smooth="no"/>
      <point x="236" y="272" type="line" smooth="no"/>
      <point x="318" y="272" type="line" smooth="no"/>
      <point x="401" y="272" type="line" smooth="no"/>
      <point x="401" y="308" type="line" smooth="no"/>
      <point x="401" y="343" type="line" smooth="no"/>
      <point x="318" y="343" type="line" smooth="no"/>
      <point x="236" y="343" type="line" smooth="no"/>
      <point x="236" y="425" type="line" smooth="no"/>
      <point x="236" y="508" type="line" smooth="no"/>
      <point x="201" y="508" type="line" smooth="no"/>
      <point x="166" y="508" type="line" smooth="no"/>
      <point x="166" y="425" type="line" smooth="no"/>
    </contour>
    <contour>
      <point x="1" y="0" type="line" smooth="no"/>
      <point x="201" y="0" type="line" smooth="no"/>
      <point x="401" y="0" type="line" smooth="no"/>
      <point x="401" y="35" type="line" smooth="no"/>
      <point x="401" y="70" type="line" smooth="no"/>
      <point x="201" y="70" type="line" smooth="no"/>
      <point x="1" y="70" type="line" smooth="no"/>
      <point x="1" y="35" type="line" smooth="no"/>
    </contour>
  </outline>
</glyph>
<glyph name="uni00B2" format="1">
  <advance width="215"/>
  <unicode hex="00b2"/>
  <outline>
    <contour>
      <point x="23" y="565" type="curve" smooth="yes"/>
      <point x="3" y="555" type="line" smooth="no"/>
      <point x="3" y="520" type="line" smooth="no"/>
      <point x="2" y="501"/>
      <point x="3" y="486"/>
      <point x="3" y="486" type="curve" smooth="no"/>
      <point x="4" y="486"/>
      <point x="9" y="491"/>
      <point x="15" y="497" type="curve" smooth="yes"/>
      <point x="58" y="545"/>
      <point x="120" y="544"/>
      <point x="133" y="495" type="curve" smooth="yes"/>
      <point x="142" y="459"/>
      <point x="108" y="405"/>
      <point x="16" y="310" type="curve" smooth="yes"/>
      <point x="3" y="297"/>
      <point x="-7" y="285"/>
      <point x="-7" y="283" type="curve" smooth="yes"/>
      <point x="-7" y="279"/>
      <point x="3" y="279"/>
      <point x="108" y="279" type="curve" smooth="yes"/>
      <point x="222" y="279" type="line" smooth="no"/>
      <point x="222" y="303" type="line" smooth="no"/>
      <point x="222" y="327" type="line" smooth="no"/>
      <point x="160" y="328" type="line" smooth="no"/>
      <point x="99" y="329" type="line" smooth="no"/>
      <point x="120" y="354" type="line" smooth="no"/>
      <point x="183" y="427"/>
      <point x="196" y="450"/>
      <point x="196" y="488" type="curve" smooth="yes"/>
      <point x="196" y="554"/>
      <point x="129" y="598"/>
      <point x="56" y="579" type="curve" smooth="yes"/>
      <point x="49" y="577"/>
      <point x="35" y="571"/>
    </contour>
  </outline>
</glyph>
<glyph name="uni00B3" format="1">
  <advance width="276"/>
  <unicode hex="00b3"/>
  <outline>
    <contour>
      <point x="53" y="546" type="curve" smooth="no"/>
      <point x="52" y="532"/>
      <point x="52" y="521"/>
      <point x="53" y="521" type="curve" smooth="yes"/>
      <point x="73" y="528" type="line" smooth="yes"/>
      <point x="125" y="546"/>
      <point x="168" y="532"/>
      <point x="167" y="498" type="curve" smooth="yes"/>
      <point x="167" y="476"/>
      <point x="148" y="462"/>
      <point x="114" y="458" type="curve" smooth="no"/>
      <point x="101" y="457" type="line" smooth="no"/>
      <point x="101" y="434" type="line" smooth="yes"/>
      <point x="101" y="417"/>
      <point x="101" y="411"/>
      <point x="103" y="411" type="curve" smooth="yes"/>
      <point x="113" y="411"/>
      <point x="142" y="404"/>
      <point x="150" y="400" type="curve" smooth="yes"/>
      <point x="175" y="388"/>
      <point x="177" y="348"/>
      <point x="153" y="333" type="curve" smooth="yes"/>
      <point x="130" y="318"/>
      <point x="105" y="321"/>
      <point x="46" y="346" type="curve" smooth="yes"/>
      <point x="44" y="347"/>
      <point x="43" y="341"/>
      <point x="43" y="320" type="curve" smooth="yes"/>
      <point x="43" y="293" type="line" smooth="no"/>
      <point x="56" y="288" type="line" smooth="yes"/>
      <point x="147" y="253"/>
      <point x="233" y="292"/>
      <point x="233" y="368" type="curve" smooth="yes"/>
      <point x="233" y="395"/>
      <point x="222" y="415"/>
      <point x="201" y="430" type="curve" smooth="no"/>
      <point x="191" y="438" type="line" smooth="no"/>
      <point x="200" y="444" type="line" smooth="no"/>
      <point x="242" y="475"/>
      <point x="234" y="546"/>
      <point x="186" y="569" type="curve" smooth="yes"/>
      <point x="160" y="582"/>
      <point x="118" y="586"/>
      <point x="85" y="579" type="curve" smooth="yes"/>
      <point x="52" y="572"/>
      <point x="53" y="573"/>
    </contour>
  </outline>
</glyph>
<glyph name="uni00B4" format="1">
  <advance width="173"/>
  <unicode hex="00b4"/>
  <outline>
    <contour>
      <point x="41" y="516" type="curve" smooth="yes"/>
      <point x="17" y="461" type="line" smooth="yes"/>
      <point x="17" y="460"/>
      <point x="27" y="459"/>
      <point x="41" y="459" type="curve" smooth="yes"/>
      <point x="65" y="459" type="line" smooth="no"/>
      <point x="111" y="521" type="line" smooth="yes"/>
      <point x="137" y="555"/>
      <point x="157" y="583"/>
      <point x="157" y="584" type="curve" smooth="yes"/>
      <point x="157" y="584"/>
      <point x="138" y="585"/>
      <point x="115" y="585" type="curve" smooth="yes"/>
      <point x="72" y="585"/>
      <point x="72" y="585"/>
      <point x="69" y="578" type="curve" smooth="yes"/>
      <point x="67" y="574"/>
      <point x="55" y="546"/>
    </contour>
  </outline>
</glyph>
<glyph name="uni00B5" format="1">
  <advance width="388"/>
  <unicode hex="00b5"/>
  <outline>
    <contour>
      <point x="33" y="-146" type="line" smooth="no"/>
      <point x="71" y="-146" type="line" smooth="no"/>
      <point x="108" y="-146" type="line" smooth="no"/>
      <point x="108" y="-57" type="line" smooth="no"/>
      <point x="108" y="32" type="line" smooth="no"/>
      <point x="122" y="18" type="line" smooth="no"/>
      <point x="166" y="-23"/>
      <point x="239" y="-19"/>
      <point x="277" y="28" type="curve" smooth="yes"/>
      <point x="286" y="39" type="line" smooth="no"/>
      <point x="286" y="19" type="line" smooth="no"/>
      <point x="286" y="0" type="line" smooth="no"/>
      <point x="321" y="0" type="line" smooth="no"/>
      <point x="355" y="0" type="line" smooth="no"/>
      <point x="355" y="190" type="line" smooth="no"/>
      <point x="355" y="380" type="line" smooth="no"/>
      <point x="317" y="380" type="line" smooth="no"/>
      <point x="280" y="380" type="line" smooth="no"/>
      <point x="279" y="256" type="line" smooth="yes"/>
      <point x="279" y="170"/>
      <point x="277" y="129"/>
      <point x="276" y="121" type="curve" smooth="yes"/>
      <point x="258" y="43"/>
      <point x="162" y="26"/>
      <point x="124" y="93" type="curve" smooth="yes"/>
      <point x="110" y="116"/>
      <point x="110" y="123"/>
      <point x="109" y="258" type="curve" smooth="yes"/>
      <point x="108" y="380" type="line" smooth="no"/>
      <point x="71" y="380" type="line" smooth="no"/>
      <point x="33" y="380" type="line" smooth="no"/>
      <point x="33" y="117" type="line" smooth="no"/>
    </contour>
  </outline>
</glyph>
<glyph name="uni00B6" format="1">
  <advance width="657"/>
  <unicode hex="00b6"/>
  <outline>
    <contour>
      <point x="113" y="515" type="curve" smooth="yes"/>
      <point x="74" y="437"/>
      <point x="95" y="336"/>
      <point x="160" y="294" type="curve" smooth="yes"/>
      <point x="183" y="278"/>
      <point x="230" y="262"/>
      <point x="253" y="261" type="curve" smooth="yes"/>
      <point x="259" y="261"/>
      <point x="259" y="261"/>
      <point x="259" y="47" type="curve" smooth="yes"/>
      <point x="259" y="-168" type="line" smooth="no"/>
      <point x="293" y="-168" type="line" smooth="no"/>
      <point x="327" y="-168" type="line" smooth="no"/>
      <point x="327" y="181" type="line" smooth="no"/>
      <point x="327" y="530" type="line" smooth="no"/>
      <point x="372" y="530" type="line" smooth="no"/>
      <point x="417" y="530" type="line" smooth="no"/>
      <point x="417" y="181" type="line" smooth="no"/>
      <point x="417" y="-168" type="line" smooth="no"/>
      <point x="454" y="-168" type="line" smooth="no"/>
      <point x="490" y="-168" type="line" smooth="no"/>
      <point x="490" y="181" type="line" smooth="no"/>
      <point x="490" y="530" type="line" smooth="no"/>
      <point x="520" y="530" type="line" smooth="no"/>
      <point x="549" y="530" type="line" smooth="no"/>
      <point x="549" y="567" type="line" smooth="no"/>
      <point x="549" y="605" type="line" smooth="no"/>
      <point x="410" y="604" type="line" smooth="yes"/>
      <point x="334" y="604"/>
      <point x="263" y="603"/>
      <point x="252" y="602" type="curve" smooth="yes"/>
      <point x="185" y="596"/>
      <point x="138" y="566"/>
    </contour>
  </outline>
</glyph>
<glyph name="uni00B7" format="1">
  <advance width="182"/>
  <unicode hex="00b7"/>
  <outline>
    <contour>
      <point x="85" y="256" type="curve" smooth="yes"/>
      <point x="128" y="235"/>
      <point x="170" y="283"/>
      <point x="143" y="323" type="curve" smooth="yes"/>
      <point x="134" y="337"/>
      <point x="112" y="345"/>
      <point x="96" y="341" type="curve" smooth="yes"/>
      <point x="55" y="331"/>
      <point x="48" y="275"/>
    </contour>
  </outline>
</glyph>
